<mxfile host="app.diagrams.net" agent="Mozilla/5.0 (Windows NT 10.0; Win64; x64) AppleWebKit/537.36 (KHTML, like Gecko) Chrome/129.0.0.0 Safari/537.36" version="24.7.17">
  <diagram id="Ht1M8jgEwFfnCIfOTk4-" name="Page-1">
    <mxGraphModel dx="1500" dy="746" grid="1" gridSize="10" guides="1" tooltips="1" connect="1" arrows="1" fold="1" page="1" pageScale="1" pageWidth="827" pageHeight="1169" math="0" shadow="0">
      <root>
        <mxCell id="0" />
        <mxCell id="1" parent="0" />
        <mxCell id="UEzPUAAOIrF-is8g5C7q-2" value="AWS Cloud" style="points=[[0,0],[0.25,0],[0.5,0],[0.75,0],[1,0],[1,0.25],[1,0.5],[1,0.75],[1,1],[0.75,1],[0.5,1],[0.25,1],[0,1],[0,0.75],[0,0.5],[0,0.25]];outlineConnect=0;gradientColor=none;html=1;whiteSpace=wrap;fontSize=12;fontStyle=0;shape=mxgraph.aws4.group;grIcon=mxgraph.aws4.group_aws_cloud_alt;strokeColor=#232F3E;fillColor=none;verticalAlign=top;align=left;spacingLeft=30;fontColor=#232F3E;dashed=0;container=1;pointerEvents=0;collapsible=0;recursiveResize=0;" parent="1" vertex="1">
          <mxGeometry x="436" y="175" width="630" height="625" as="geometry" />
        </mxCell>
        <mxCell id="UEzPUAAOIrF-is8g5C7q-1" value="Corporate data center" style="points=[[0,0],[0.25,0],[0.5,0],[0.75,0],[1,0],[1,0.25],[1,0.5],[1,0.75],[1,1],[0.75,1],[0.5,1],[0.25,1],[0,1],[0,0.75],[0,0.5],[0,0.25]];outlineConnect=0;gradientColor=none;html=1;whiteSpace=wrap;fontSize=12;fontStyle=0;shape=mxgraph.aws4.group;grIcon=mxgraph.aws4.group_corporate_data_center;strokeColor=#5A6C86;fillColor=none;verticalAlign=top;align=left;spacingLeft=30;fontColor=#5A6C86;dashed=0;container=1;pointerEvents=0;collapsible=0;recursiveResize=0;" parent="1" vertex="1">
          <mxGeometry x="12" y="175" width="404" height="625" as="geometry" />
        </mxCell>
        <mxCell id="UEzPUAAOIrF-is8g5C7q-59" style="edgeStyle=orthogonalEdgeStyle;rounded=0;orthogonalLoop=1;jettySize=auto;html=1;endArrow=open;endFill=0;strokeWidth=2;strokeColor=#545B64;startArrow=none;" parent="1" source="UEzPUAAOIrF-is8g5C7q-6" target="UEzPUAAOIrF-is8g5C7q-39" edge="1">
          <mxGeometry relative="1" as="geometry" />
        </mxCell>
        <mxCell id="UEzPUAAOIrF-is8g5C7q-60" style="edgeStyle=orthogonalEdgeStyle;rounded=0;orthogonalLoop=1;jettySize=auto;html=1;endArrow=open;endFill=0;strokeWidth=2;strokeColor=#545B64;startArrow=none;" parent="1" source="UEzPUAAOIrF-is8g5C7q-39" target="UEzPUAAOIrF-is8g5C7q-42" edge="1">
          <mxGeometry relative="1" as="geometry" />
        </mxCell>
        <mxCell id="UEzPUAAOIrF-is8g5C7q-61" value="" style="edgeStyle=orthogonalEdgeStyle;rounded=0;orthogonalLoop=1;jettySize=auto;html=1;endArrow=open;endFill=0;strokeWidth=2;strokeColor=#545B64;startArrow=none;" parent="1" source="UEzPUAAOIrF-is8g5C7q-42" target="UEzPUAAOIrF-is8g5C7q-44" edge="1">
          <mxGeometry relative="1" as="geometry" />
        </mxCell>
        <mxCell id="UEzPUAAOIrF-is8g5C7q-69" style="edgeStyle=orthogonalEdgeStyle;rounded=0;orthogonalLoop=1;jettySize=auto;html=1;endArrow=open;endFill=0;strokeWidth=2;strokeColor=#545B64;startArrow=none;" parent="1" source="UEzPUAAOIrF-is8g5C7q-42" target="UEzPUAAOIrF-is8g5C7q-48" edge="1">
          <mxGeometry relative="1" as="geometry">
            <Array as="points">
              <mxPoint x="511" y="714" />
            </Array>
          </mxGeometry>
        </mxCell>
        <mxCell id="UEzPUAAOIrF-is8g5C7q-73" style="edgeStyle=orthogonalEdgeStyle;rounded=0;orthogonalLoop=1;jettySize=auto;html=1;endArrow=open;endFill=0;strokeWidth=2;strokeColor=#545B64;startArrow=none;" parent="1" source="UEzPUAAOIrF-is8g5C7q-43" target="UEzPUAAOIrF-is8g5C7q-40" edge="1">
          <mxGeometry relative="1" as="geometry">
            <Array as="points">
              <mxPoint x="281" y="231" />
            </Array>
          </mxGeometry>
        </mxCell>
        <mxCell id="UEzPUAAOIrF-is8g5C7q-63" value="" style="edgeStyle=orthogonalEdgeStyle;rounded=0;orthogonalLoop=1;jettySize=auto;html=1;endArrow=open;endFill=0;strokeWidth=2;strokeColor=#545B64;startArrow=none;" parent="1" source="UEzPUAAOIrF-is8g5C7q-44" target="UEzPUAAOIrF-is8g5C7q-45" edge="1">
          <mxGeometry relative="1" as="geometry">
            <mxPoint x="759" y="359" as="targetPoint" />
          </mxGeometry>
        </mxCell>
        <mxCell id="UEzPUAAOIrF-is8g5C7q-64" value="" style="edgeStyle=orthogonalEdgeStyle;rounded=0;orthogonalLoop=1;jettySize=auto;html=1;endArrow=open;endFill=0;strokeWidth=2;strokeColor=#545B64;startArrow=none;" parent="1" source="UEzPUAAOIrF-is8g5C7q-45" target="UEzPUAAOIrF-is8g5C7q-46" edge="1">
          <mxGeometry relative="1" as="geometry" />
        </mxCell>
        <mxCell id="UEzPUAAOIrF-is8g5C7q-72" style="edgeStyle=orthogonalEdgeStyle;rounded=0;orthogonalLoop=1;jettySize=auto;html=1;endArrow=open;endFill=0;strokeWidth=2;strokeColor=#545B64;startArrow=none;" parent="1" source="UEzPUAAOIrF-is8g5C7q-45" target="UEzPUAAOIrF-is8g5C7q-43" edge="1">
          <mxGeometry relative="1" as="geometry">
            <Array as="points">
              <mxPoint x="803" y="231" />
            </Array>
          </mxGeometry>
        </mxCell>
        <mxCell id="UEzPUAAOIrF-is8g5C7q-65" style="edgeStyle=orthogonalEdgeStyle;rounded=0;orthogonalLoop=1;jettySize=auto;html=1;endArrow=open;endFill=0;strokeWidth=2;strokeColor=#545B64;startArrow=none;" parent="1" source="UEzPUAAOIrF-is8g5C7q-46" edge="1">
          <mxGeometry relative="1" as="geometry">
            <mxPoint x="1036" y="439" as="targetPoint" />
            <mxPoint x="976" y="439" as="sourcePoint" />
          </mxGeometry>
        </mxCell>
        <mxCell id="UEzPUAAOIrF-is8g5C7q-66" style="edgeStyle=orthogonalEdgeStyle;rounded=0;orthogonalLoop=1;jettySize=auto;html=1;endArrow=open;endFill=0;strokeWidth=2;strokeColor=#545B64;startArrow=none;" parent="1" source="UEzPUAAOIrF-is8g5C7q-47" target="UEzPUAAOIrF-is8g5C7q-45" edge="1">
          <mxGeometry relative="1" as="geometry" />
        </mxCell>
        <mxCell id="UEzPUAAOIrF-is8g5C7q-68" value="" style="edgeStyle=orthogonalEdgeStyle;rounded=0;orthogonalLoop=1;jettySize=auto;html=1;endArrow=open;endFill=0;strokeWidth=2;strokeColor=#545B64;startArrow=none;" parent="1" source="UEzPUAAOIrF-is8g5C7q-48" target="UEzPUAAOIrF-is8g5C7q-49" edge="1">
          <mxGeometry relative="1" as="geometry" />
        </mxCell>
        <mxCell id="UEzPUAAOIrF-is8g5C7q-67" style="edgeStyle=orthogonalEdgeStyle;rounded=0;orthogonalLoop=1;jettySize=auto;html=1;endArrow=open;endFill=0;strokeWidth=2;strokeColor=#545B64;startArrow=none;" parent="1" source="UEzPUAAOIrF-is8g5C7q-49" target="UEzPUAAOIrF-is8g5C7q-47" edge="1">
          <mxGeometry relative="1" as="geometry">
            <Array as="points">
              <mxPoint x="709" y="583" />
            </Array>
          </mxGeometry>
        </mxCell>
        <mxCell id="UEzPUAAOIrF-is8g5C7q-70" style="edgeStyle=orthogonalEdgeStyle;rounded=0;orthogonalLoop=1;jettySize=auto;html=1;endArrow=open;endFill=0;strokeWidth=2;strokeColor=#545B64;startArrow=none;" parent="1" source="UEzPUAAOIrF-is8g5C7q-49" target="UEzPUAAOIrF-is8g5C7q-50" edge="1">
          <mxGeometry relative="1" as="geometry" />
        </mxCell>
        <mxCell id="UEzPUAAOIrF-is8g5C7q-71" value="" style="edgeStyle=orthogonalEdgeStyle;rounded=0;orthogonalLoop=1;jettySize=auto;html=1;endArrow=open;endFill=0;strokeWidth=2;strokeColor=#545B64;startArrow=none;" parent="1" source="UEzPUAAOIrF-is8g5C7q-50" target="UEzPUAAOIrF-is8g5C7q-51" edge="1">
          <mxGeometry relative="1" as="geometry" />
        </mxCell>
        <mxCell id="-QjtrjUzRDEMRZ5MF8oH-9" value="1" style="rounded=1;whiteSpace=wrap;html=1;fillColor=#007CBD;strokeColor=none;fontColor=#FFFFFF;fontStyle=1;fontSize=22;" parent="1" vertex="1">
          <mxGeometry x="33" y="355" width="40" height="38" as="geometry" />
        </mxCell>
        <mxCell id="-QjtrjUzRDEMRZ5MF8oH-47" value="Title text" style="text;html=1;resizable=0;points=[];autosize=1;align=left;verticalAlign=top;spacingTop=-4;fontSize=30;fontStyle=1" parent="1" vertex="1">
          <mxGeometry x="12" y="65.5" width="130" height="40" as="geometry" />
        </mxCell>
        <mxCell id="-QjtrjUzRDEMRZ5MF8oH-48" value="Subtitle text&lt;br style=&quot;font-size: 16px&quot;&gt;" style="text;html=1;resizable=0;points=[];autosize=1;align=left;verticalAlign=top;spacingTop=-4;fontSize=16" parent="1" vertex="1">
          <mxGeometry x="12" y="115.5" width="100" height="20" as="geometry" />
        </mxCell>
        <mxCell id="SCVMTBWpLvtzJIhz15lM-1" value="" style="line;strokeWidth=2;html=1;fontSize=14;" parent="1" vertex="1">
          <mxGeometry x="8" y="140.5" width="1060" height="10" as="geometry" />
        </mxCell>
        <mxCell id="7OVz4w7n9kzEPWy-4BBC-3" value="" style="rounded=0;whiteSpace=wrap;html=1;fillColor=#EAEDED;fontSize=22;fontColor=#FFFFFF;strokeColor=none;labelBackgroundColor=none;" parent="1" vertex="1">
          <mxGeometry x="2350" y="135.5" width="539" height="1098" as="geometry" />
        </mxCell>
        <mxCell id="7OVz4w7n9kzEPWy-4BBC-4" value="1" style="rounded=1;whiteSpace=wrap;html=1;fillColor=#007CBD;strokeColor=none;fontColor=#FFFFFF;fontStyle=1;fontSize=22;labelBackgroundColor=none;" parent="1" vertex="1">
          <mxGeometry x="2367.5" y="147.5" width="40" height="38" as="geometry" />
        </mxCell>
        <mxCell id="7OVz4w7n9kzEPWy-4BBC-5" value="2" style="rounded=1;whiteSpace=wrap;html=1;fillColor=#007CBD;strokeColor=none;fontColor=#FFFFFF;fontStyle=1;fontSize=22;labelBackgroundColor=none;" parent="1" vertex="1">
          <mxGeometry x="2367.5" y="269.5" width="40" height="38" as="geometry" />
        </mxCell>
        <mxCell id="7OVz4w7n9kzEPWy-4BBC-6" value="3" style="rounded=1;whiteSpace=wrap;html=1;fillColor=#007CBD;strokeColor=none;fontColor=#FFFFFF;fontStyle=1;fontSize=22;labelBackgroundColor=none;" parent="1" vertex="1">
          <mxGeometry x="2367.5" y="389.5" width="40" height="38" as="geometry" />
        </mxCell>
        <mxCell id="7OVz4w7n9kzEPWy-4BBC-7" value="4" style="rounded=1;whiteSpace=wrap;html=1;fillColor=#007CBD;strokeColor=none;fontColor=#FFFFFF;fontStyle=1;fontSize=22;labelBackgroundColor=none;" parent="1" vertex="1">
          <mxGeometry x="2367.5" y="503.5" width="40" height="38" as="geometry" />
        </mxCell>
        <mxCell id="7OVz4w7n9kzEPWy-4BBC-8" value="5" style="rounded=1;whiteSpace=wrap;html=1;fillColor=#007CBD;strokeColor=none;fontColor=#FFFFFF;fontStyle=1;fontSize=22;labelBackgroundColor=none;" parent="1" vertex="1">
          <mxGeometry x="2367.5" y="620.5" width="40" height="38" as="geometry" />
        </mxCell>
        <mxCell id="7OVz4w7n9kzEPWy-4BBC-9" value="6" style="rounded=1;whiteSpace=wrap;html=1;fillColor=#007CBD;strokeColor=none;fontColor=#FFFFFF;fontStyle=1;fontSize=22;labelBackgroundColor=none;" parent="1" vertex="1">
          <mxGeometry x="2367.5" y="735.5" width="40" height="38" as="geometry" />
        </mxCell>
        <mxCell id="7OVz4w7n9kzEPWy-4BBC-10" value="7" style="rounded=1;whiteSpace=wrap;html=1;fillColor=#007CBD;strokeColor=none;fontColor=#FFFFFF;fontStyle=1;fontSize=22;labelBackgroundColor=none;" parent="1" vertex="1">
          <mxGeometry x="2367.5" y="851.5" width="40" height="38" as="geometry" />
        </mxCell>
        <mxCell id="7OVz4w7n9kzEPWy-4BBC-11" value="8" style="rounded=1;whiteSpace=wrap;html=1;fillColor=#007CBD;strokeColor=none;fontColor=#FFFFFF;fontStyle=1;fontSize=22;labelBackgroundColor=none;" parent="1" vertex="1">
          <mxGeometry x="2367.5" y="969.5" width="40" height="38" as="geometry" />
        </mxCell>
        <mxCell id="7OVz4w7n9kzEPWy-4BBC-13" value="&lt;span&gt;Lorem ipsum dolor sit amet, consectetur adipiscing elit, sed do eiusmod tempor incididunt ut labore et dolore magna aliqua. Ut enim ad minim veniam, quis nostrud exercitation ullamco laboris nisi ut aliquip ex ea commodo consequat. Duis aute irure dolor in reprehenderit in voluptate velit esse cillum dolore eu fugiat nulla pariatur. Excepteur sint occaecat cupidatat non proident, sunt in culpa qui officia deserunt mollit anim id est laborum.&lt;/span&gt;&lt;br&gt;" style="text;html=1;align=left;verticalAlign=top;spacingTop=-4;fontSize=14;labelBackgroundColor=none;whiteSpace=wrap;" parent="1" vertex="1">
          <mxGeometry x="2419" y="147" width="449" height="118" as="geometry" />
        </mxCell>
        <mxCell id="7OVz4w7n9kzEPWy-4BBC-14" value="&lt;span&gt;Lorem ipsum dolor sit amet, consectetur adipiscing elit, sed do eiusmod tempor incididunt ut labore et dolore magna aliqua. Ut enim ad minim veniam, quis nostrud exercitation ullamco laboris nisi ut aliquip ex ea commodo consequat. Duis aute irure dolor in reprehenderit in voluptate velit esse cillum dolore eu fugiat nulla pariatur. Excepteur sint occaecat cupidatat non proident, sunt in culpa qui officia deserunt mollit anim id est laborum.&lt;/span&gt;&lt;br&gt;" style="text;html=1;align=left;verticalAlign=top;spacingTop=-4;fontSize=14;labelBackgroundColor=none;whiteSpace=wrap;" parent="1" vertex="1">
          <mxGeometry x="2418.5" y="270" width="450" height="115" as="geometry" />
        </mxCell>
        <mxCell id="7OVz4w7n9kzEPWy-4BBC-15" value="&lt;span&gt;Lorem ipsum dolor sit amet, consectetur adipiscing elit, sed do eiusmod tempor incididunt ut labore et dolore magna aliqua. Ut enim ad minim veniam, quis nostrud exercitation ullamco laboris nisi ut aliquip ex ea commodo consequat. Duis aute irure dolor in reprehenderit in voluptate velit esse cillum dolore eu fugiat nulla pariatur. Excepteur sint occaecat cupidatat non proident, sunt in culpa qui officia deserunt mollit anim id est laborum.&lt;/span&gt;&lt;br&gt;" style="text;html=1;align=left;verticalAlign=top;spacingTop=-4;fontSize=14;labelBackgroundColor=none;whiteSpace=wrap;" parent="1" vertex="1">
          <mxGeometry x="2418.5" y="388" width="450" height="117" as="geometry" />
        </mxCell>
        <mxCell id="7OVz4w7n9kzEPWy-4BBC-16" value="&lt;span&gt;Lorem ipsum dolor sit amet, consectetur adipiscing elit, sed do eiusmod tempor incididunt ut labore et dolore magna aliqua. Ut enim ad minim veniam, quis nostrud exercitation ullamco laboris nisi ut aliquip ex ea commodo consequat. Duis aute irure dolor in reprehenderit in voluptate velit esse cillum dolore eu fugiat nulla pariatur. Excepteur sint occaecat cupidatat non proident, sunt in culpa qui officia deserunt mollit anim id est laborum.&lt;/span&gt;&lt;br&gt;" style="text;html=1;align=left;verticalAlign=top;spacingTop=-4;fontSize=14;labelBackgroundColor=none;whiteSpace=wrap;" parent="1" vertex="1">
          <mxGeometry x="2418.5" y="504" width="450" height="121" as="geometry" />
        </mxCell>
        <mxCell id="7OVz4w7n9kzEPWy-4BBC-17" value="&lt;span&gt;Lorem ipsum dolor sit amet, consectetur adipiscing elit, sed do eiusmod tempor incididunt ut labore et dolore magna aliqua. Ut enim ad minim veniam, quis nostrud exercitation ullamco laboris nisi ut aliquip ex ea commodo consequat. Duis aute irure dolor in reprehenderit in voluptate velit esse cillum dolore eu fugiat nulla pariatur. Excepteur sint occaecat cupidatat non proident, sunt in culpa qui officia deserunt mollit anim id est laborum.&lt;/span&gt;&lt;br&gt;" style="text;html=1;align=left;verticalAlign=top;spacingTop=-4;fontSize=14;labelBackgroundColor=none;whiteSpace=wrap;" parent="1" vertex="1">
          <mxGeometry x="2419" y="621" width="449" height="114" as="geometry" />
        </mxCell>
        <mxCell id="7OVz4w7n9kzEPWy-4BBC-18" value="&lt;span&gt;Lorem ipsum dolor sit amet, consectetur adipiscing elit, sed do eiusmod tempor incididunt ut labore et dolore magna aliqua. Ut enim ad minim veniam, quis nostrud exercitation ullamco laboris nisi ut aliquip ex ea commodo consequat. Duis aute irure dolor in reprehenderit in voluptate velit esse cillum dolore eu fugiat nulla pariatur. Excepteur sint occaecat cupidatat non proident, sunt in culpa qui officia deserunt mollit anim id est laborum.&lt;/span&gt;&lt;br&gt;" style="text;html=1;align=left;verticalAlign=top;spacingTop=-4;fontSize=14;labelBackgroundColor=none;whiteSpace=wrap;" parent="1" vertex="1">
          <mxGeometry x="2418.5" y="737" width="450" height="118" as="geometry" />
        </mxCell>
        <mxCell id="7OVz4w7n9kzEPWy-4BBC-19" value="&lt;span&gt;Lorem ipsum dolor sit amet, consectetur adipiscing elit, sed do eiusmod tempor incididunt ut labore et dolore magna aliqua. Ut enim ad minim veniam, quis nostrud exercitation ullamco laboris nisi ut aliquip ex ea commodo consequat. Duis aute irure dolor in reprehenderit in voluptate velit esse cillum dolore eu fugiat nulla pariatur. Excepteur sint occaecat cupidatat non proident, sunt in culpa qui officia deserunt mollit anim id est laborum.&lt;/span&gt;&lt;br&gt;" style="text;html=1;align=left;verticalAlign=top;spacingTop=-4;fontSize=14;labelBackgroundColor=none;whiteSpace=wrap;" parent="1" vertex="1">
          <mxGeometry x="2419" y="852" width="449" height="113" as="geometry" />
        </mxCell>
        <mxCell id="7OVz4w7n9kzEPWy-4BBC-20" value="&lt;span&gt;Lorem ipsum dolor sit amet, consectetur adipiscing elit, sed do eiusmod tempor incididunt ut labore et dolore magna aliqua. Ut enim ad minim veniam, quis nostrud exercitation ullamco laboris nisi ut aliquip ex ea commodo consequat. Duis aute irure dolor in reprehenderit in voluptate velit esse cillum dolore eu fugiat nulla pariatur. Excepteur sint occaecat cupidatat non proident, sunt in culpa qui officia deserunt mollit anim id est laborum.&lt;/span&gt;&lt;br&gt;" style="text;html=1;align=left;verticalAlign=top;spacingTop=-4;fontSize=14;labelBackgroundColor=none;whiteSpace=wrap;" parent="1" vertex="1">
          <mxGeometry x="2419" y="971" width="449" height="124" as="geometry" />
        </mxCell>
        <mxCell id="UEzPUAAOIrF-is8g5C7q-6" value="Factory" style="outlineConnect=0;fontColor=#232F3E;gradientColor=none;fillColor=#277116;strokeColor=none;dashed=0;verticalLabelPosition=bottom;verticalAlign=top;align=center;html=1;fontSize=12;fontStyle=0;aspect=fixed;pointerEvents=1;shape=mxgraph.aws4.factory;" parent="1" vertex="1">
          <mxGeometry x="26.000000000000156" y="399.99999999999994" width="78" height="78" as="geometry" />
        </mxCell>
        <mxCell id="UEzPUAAOIrF-is8g5C7q-37" value="9" style="rounded=1;whiteSpace=wrap;html=1;fillColor=#007CBD;strokeColor=none;fontColor=#FFFFFF;fontStyle=1;fontSize=22;labelBackgroundColor=none;" parent="1" vertex="1">
          <mxGeometry x="2367.5" y="1104.5" width="40" height="38" as="geometry" />
        </mxCell>
        <mxCell id="UEzPUAAOIrF-is8g5C7q-38" value="&lt;span&gt;Lorem ipsum dolor sit amet, consectetur adipiscing elit, sed do eiusmod tempor incididunt ut labore et dolore magna aliqua. Ut enim ad minim veniam, quis nostrud exercitation ullamco laboris nisi ut aliquip ex ea commodo consequat. Duis aute irure dolor in reprehenderit in voluptate velit esse cillum dolore eu fugiat nulla pariatur. Excepteur sint occaecat cupidatat non proident, sunt in culpa qui officia deserunt mollit anim id est laborum.&lt;/span&gt;&lt;br&gt;" style="text;html=1;align=left;verticalAlign=top;spacingTop=-4;fontSize=14;labelBackgroundColor=none;whiteSpace=wrap;" parent="1" vertex="1">
          <mxGeometry x="2419" y="1106" width="449" height="124" as="geometry" />
        </mxCell>
        <mxCell id="UEzPUAAOIrF-is8g5C7q-39" value="AWS IoT Greengrass" style="outlineConnect=0;fontColor=#232F3E;gradientColor=#60A337;gradientDirection=north;fillColor=#277116;strokeColor=#ffffff;dashed=0;verticalLabelPosition=bottom;verticalAlign=top;align=center;html=1;fontSize=12;fontStyle=0;aspect=fixed;shape=mxgraph.aws4.resourceIcon;resIcon=mxgraph.aws4.greengrass;labelBackgroundColor=#ffffff;" parent="1" vertex="1">
          <mxGeometry x="242" y="400" width="78" height="78" as="geometry" />
        </mxCell>
        <mxCell id="UEzPUAAOIrF-is8g5C7q-40" value="Lambda function" style="outlineConnect=0;fontColor=#232F3E;gradientColor=none;fillColor=#277116;strokeColor=none;dashed=0;verticalLabelPosition=bottom;verticalAlign=top;align=center;html=1;fontSize=12;fontStyle=0;aspect=fixed;pointerEvents=1;shape=mxgraph.aws4.lambda_function;labelBackgroundColor=#ffffff;" parent="1" vertex="1">
          <mxGeometry x="242" y="270" width="78" height="78" as="geometry" />
        </mxCell>
        <mxCell id="UEzPUAAOIrF-is8g5C7q-41" value="2" style="rounded=1;whiteSpace=wrap;html=1;fillColor=#007CBD;strokeColor=none;fontColor=#FFFFFF;fontStyle=1;fontSize=22;" parent="1" vertex="1">
          <mxGeometry x="190" y="244" width="40" height="38" as="geometry" />
        </mxCell>
        <mxCell id="UEzPUAAOIrF-is8g5C7q-42" value="AWS IoT Core" style="outlineConnect=0;fontColor=#232F3E;gradientColor=#60A337;gradientDirection=north;fillColor=#277116;strokeColor=#ffffff;dashed=0;verticalLabelPosition=bottom;verticalAlign=top;align=center;html=1;fontSize=12;fontStyle=0;aspect=fixed;shape=mxgraph.aws4.resourceIcon;resIcon=mxgraph.aws4.iot_core;labelBackgroundColor=#ffffff;" parent="1" vertex="1">
          <mxGeometry x="472" y="400" width="78" height="78" as="geometry" />
        </mxCell>
        <mxCell id="UEzPUAAOIrF-is8g5C7q-43" value="Amazon&lt;br&gt;SageMaker&lt;br&gt;" style="outlineConnect=0;fontColor=#232F3E;gradientColor=#4AB29A;gradientDirection=north;fillColor=#116D5B;strokeColor=#ffffff;dashed=0;verticalLabelPosition=bottom;verticalAlign=top;align=center;html=1;fontSize=12;fontStyle=0;aspect=fixed;shape=mxgraph.aws4.resourceIcon;resIcon=mxgraph.aws4.sagemaker;labelBackgroundColor=#ffffff;" parent="1" vertex="1">
          <mxGeometry x="577" y="192" width="78" height="78" as="geometry" />
        </mxCell>
        <mxCell id="UEzPUAAOIrF-is8g5C7q-44" value="Amazon Kinesis&lt;br&gt;Data Firehose&lt;br&gt;" style="outlineConnect=0;fontColor=#232F3E;gradientColor=#945DF2;gradientDirection=north;fillColor=#5A30B5;strokeColor=#ffffff;dashed=0;verticalLabelPosition=bottom;verticalAlign=top;align=center;html=1;fontSize=12;fontStyle=0;aspect=fixed;shape=mxgraph.aws4.resourceIcon;resIcon=mxgraph.aws4.kinesis_data_firehose;labelBackgroundColor=#ffffff;" parent="1" vertex="1">
          <mxGeometry x="593" y="400" width="78" height="78" as="geometry" />
        </mxCell>
        <mxCell id="UEzPUAAOIrF-is8g5C7q-45" value="Amazon S3" style="outlineConnect=0;fontColor=#232F3E;gradientColor=#60A337;gradientDirection=north;fillColor=#277116;strokeColor=#ffffff;dashed=0;verticalLabelPosition=bottom;verticalAlign=top;align=center;html=1;fontSize=12;fontStyle=0;aspect=fixed;shape=mxgraph.aws4.resourceIcon;resIcon=mxgraph.aws4.s3;labelBackgroundColor=#ffffff;" parent="1" vertex="1">
          <mxGeometry x="764" y="400" width="78" height="78" as="geometry" />
        </mxCell>
        <mxCell id="UEzPUAAOIrF-is8g5C7q-46" value="Amazon Athena" style="outlineConnect=0;fontColor=#232F3E;gradientColor=#945DF2;gradientDirection=north;fillColor=#5A30B5;strokeColor=#ffffff;dashed=0;verticalLabelPosition=bottom;verticalAlign=top;align=center;html=1;fontSize=12;fontStyle=0;aspect=fixed;shape=mxgraph.aws4.resourceIcon;resIcon=mxgraph.aws4.athena;labelBackgroundColor=#ffffff;" parent="1" vertex="1">
          <mxGeometry x="900" y="400" width="78" height="78" as="geometry" />
        </mxCell>
        <mxCell id="UEzPUAAOIrF-is8g5C7q-47" value="Amazon Kinesis&lt;br&gt;Data Firehose&lt;br&gt;" style="outlineConnect=0;fontColor=#232F3E;gradientColor=#945DF2;gradientDirection=north;fillColor=#5A30B5;strokeColor=#ffffff;dashed=0;verticalLabelPosition=bottom;verticalAlign=top;align=center;html=1;fontSize=12;fontStyle=0;aspect=fixed;shape=mxgraph.aws4.resourceIcon;resIcon=mxgraph.aws4.kinesis_data_firehose;labelBackgroundColor=#ffffff;" parent="1" vertex="1">
          <mxGeometry x="764" y="544" width="78" height="78" as="geometry" />
        </mxCell>
        <mxCell id="UEzPUAAOIrF-is8g5C7q-48" value="Amazon Kinesis&lt;br&gt;Data Streams&lt;br&gt;" style="outlineConnect=0;fontColor=#232F3E;gradientColor=#945DF2;gradientDirection=north;fillColor=#5A30B5;strokeColor=#ffffff;dashed=0;verticalLabelPosition=bottom;verticalAlign=top;align=center;html=1;fontSize=12;fontStyle=0;aspect=fixed;shape=mxgraph.aws4.resourceIcon;resIcon=mxgraph.aws4.kinesis_data_streams;labelBackgroundColor=#ffffff;" parent="1" vertex="1">
          <mxGeometry x="538" y="674.5" width="78" height="78" as="geometry" />
        </mxCell>
        <mxCell id="UEzPUAAOIrF-is8g5C7q-49" value="Amazon Kinesis&lt;br&gt;Data Analytics&lt;br&gt;" style="outlineConnect=0;fontColor=#232F3E;gradientColor=#945DF2;gradientDirection=north;fillColor=#5A30B5;strokeColor=#ffffff;dashed=0;verticalLabelPosition=bottom;verticalAlign=top;align=center;html=1;fontSize=12;fontStyle=0;aspect=fixed;shape=mxgraph.aws4.resourceIcon;resIcon=mxgraph.aws4.kinesis_data_analytics;labelBackgroundColor=#ffffff;" parent="1" vertex="1">
          <mxGeometry x="670" y="674.5" width="78" height="78" as="geometry" />
        </mxCell>
        <mxCell id="UEzPUAAOIrF-is8g5C7q-50" value="AWS&lt;br&gt;Lambda&lt;br&gt;" style="outlineConnect=0;fontColor=#232F3E;gradientColor=#F78E04;gradientDirection=north;fillColor=#D05C17;strokeColor=#ffffff;dashed=0;verticalLabelPosition=bottom;verticalAlign=top;align=center;html=1;fontSize=12;fontStyle=0;aspect=fixed;shape=mxgraph.aws4.resourceIcon;resIcon=mxgraph.aws4.lambda;labelBackgroundColor=#ffffff;" parent="1" vertex="1">
          <mxGeometry x="827" y="674.5" width="78" height="78" as="geometry" />
        </mxCell>
        <mxCell id="UEzPUAAOIrF-is8g5C7q-51" value="Amazon SNS" style="outlineConnect=0;fontColor=#232F3E;gradientColor=#F34482;gradientDirection=north;fillColor=#BC1356;strokeColor=#ffffff;dashed=0;verticalLabelPosition=bottom;verticalAlign=top;align=center;html=1;fontSize=12;fontStyle=0;aspect=fixed;shape=mxgraph.aws4.resourceIcon;resIcon=mxgraph.aws4.sns;labelBackgroundColor=#ffffff;" parent="1" vertex="1">
          <mxGeometry x="958" y="674.5" width="78" height="78" as="geometry" />
        </mxCell>
        <mxCell id="UEzPUAAOIrF-is8g5C7q-52" value="3" style="rounded=1;whiteSpace=wrap;html=1;fillColor=#007CBD;strokeColor=none;fontColor=#FFFFFF;fontStyle=1;fontSize=22;" parent="1" vertex="1">
          <mxGeometry x="450" y="355" width="40" height="38" as="geometry" />
        </mxCell>
        <mxCell id="UEzPUAAOIrF-is8g5C7q-53" value="4" style="rounded=1;whiteSpace=wrap;html=1;fillColor=#007CBD;strokeColor=none;fontColor=#FFFFFF;fontStyle=1;fontSize=22;" parent="1" vertex="1">
          <mxGeometry x="660" y="182" width="40" height="38" as="geometry" />
        </mxCell>
        <mxCell id="UEzPUAAOIrF-is8g5C7q-54" value="5" style="rounded=1;whiteSpace=wrap;html=1;fillColor=#007CBD;strokeColor=none;fontColor=#FFFFFF;fontStyle=1;fontSize=22;" parent="1" vertex="1">
          <mxGeometry x="697.5" y="374" width="40" height="38" as="geometry" />
        </mxCell>
        <mxCell id="UEzPUAAOIrF-is8g5C7q-55" value="6" style="rounded=1;whiteSpace=wrap;html=1;fillColor=#007CBD;strokeColor=none;fontColor=#FFFFFF;fontStyle=1;fontSize=22;" parent="1" vertex="1">
          <mxGeometry x="851" y="374" width="40" height="38" as="geometry" />
        </mxCell>
        <mxCell id="UEzPUAAOIrF-is8g5C7q-56" value="7" style="rounded=1;whiteSpace=wrap;html=1;fillColor=#007CBD;strokeColor=none;fontColor=#FFFFFF;fontStyle=1;fontSize=22;" parent="1" vertex="1">
          <mxGeometry x="990" y="374" width="40" height="38" as="geometry" />
        </mxCell>
        <mxCell id="UEzPUAAOIrF-is8g5C7q-57" value="8" style="rounded=1;whiteSpace=wrap;html=1;fillColor=#007CBD;strokeColor=none;fontColor=#FFFFFF;fontStyle=1;fontSize=22;" parent="1" vertex="1">
          <mxGeometry x="620" y="645" width="40" height="38" as="geometry" />
        </mxCell>
        <mxCell id="UEzPUAAOIrF-is8g5C7q-58" value="9" style="rounded=1;whiteSpace=wrap;html=1;fillColor=#007CBD;strokeColor=none;fontColor=#FFFFFF;fontStyle=1;fontSize=22;" parent="1" vertex="1">
          <mxGeometry x="910" y="645" width="40" height="38" as="geometry" />
        </mxCell>
        <mxCell id="P7BREsWE-NC01rkeyd-l-10" value="AWS Cloud" style="points=[[0,0],[0.25,0],[0.5,0],[0.75,0],[1,0],[1,0.25],[1,0.5],[1,0.75],[1,1],[0.75,1],[0.5,1],[0.25,1],[0,1],[0,0.75],[0,0.5],[0,0.25]];outlineConnect=0;gradientColor=none;html=1;whiteSpace=wrap;fontSize=12;fontStyle=0;shape=mxgraph.aws4.group;grIcon=mxgraph.aws4.group_aws_cloud_alt;strokeColor=#232F3E;fillColor=none;verticalAlign=top;align=left;spacingLeft=30;fontColor=#232F3E;dashed=0;container=1;pointerEvents=0;collapsible=0;recursiveResize=0;" vertex="1" parent="1">
          <mxGeometry x="1190" y="127.5" width="960" height="1184.5" as="geometry" />
        </mxCell>
        <mxCell id="P7BREsWE-NC01rkeyd-l-8" value="" style="whiteSpace=wrap;html=1;aspect=fixed;fillColor=none;" vertex="1" parent="P7BREsWE-NC01rkeyd-l-10">
          <mxGeometry x="100" y="94.5" width="645.5" height="645.5" as="geometry" />
        </mxCell>
        <mxCell id="P7BREsWE-NC01rkeyd-l-3" value="" style="group" vertex="1" connectable="0" parent="P7BREsWE-NC01rkeyd-l-10">
          <mxGeometry x="60" y="54.5" width="120" height="123" as="geometry" />
        </mxCell>
        <mxCell id="P7BREsWE-NC01rkeyd-l-1" value="" style="sketch=0;points=[[0,0,0],[0.25,0,0],[0.5,0,0],[0.75,0,0],[1,0,0],[0,1,0],[0.25,1,0],[0.5,1,0],[0.75,1,0],[1,1,0],[0,0.25,0],[0,0.5,0],[0,0.75,0],[1,0.25,0],[1,0.5,0],[1,0.75,0]];outlineConnect=0;fontColor=#232F3E;fillColor=#ED7100;strokeColor=#ffffff;dashed=0;verticalLabelPosition=bottom;verticalAlign=top;align=center;html=1;fontSize=12;fontStyle=0;aspect=fixed;shape=mxgraph.aws4.resourceIcon;resIcon=mxgraph.aws4.lightsail;" vertex="1" parent="P7BREsWE-NC01rkeyd-l-3">
          <mxGeometry x="5.274725274725275" width="84.90265486725663" height="84.90265486725663" as="geometry" />
        </mxCell>
        <mxCell id="P7BREsWE-NC01rkeyd-l-2" value="AWS Lightsail" style="text;strokeColor=none;fillColor=none;html=1;align=center;verticalAlign=middle;whiteSpace=wrap;rounded=0;fontSize=16;" vertex="1" parent="P7BREsWE-NC01rkeyd-l-3">
          <mxGeometry x="-12.27" y="90.34513274336283" width="120" height="32.65486725663717" as="geometry" />
        </mxCell>
        <mxCell id="P7BREsWE-NC01rkeyd-l-11" value="" style="rounded=1;whiteSpace=wrap;html=1;fillColor=none;strokeWidth=3;" vertex="1" parent="P7BREsWE-NC01rkeyd-l-10">
          <mxGeometry x="257.75" y="402.5" width="330" height="260" as="geometry" />
        </mxCell>
        <mxCell id="P7BREsWE-NC01rkeyd-l-12" value="" style="dashed=0;outlineConnect=0;html=1;align=center;labelPosition=center;verticalLabelPosition=bottom;verticalAlign=top;shape=mxgraph.webicons.mongodb;gradientColor=#000000;gradientDirection=radial;" vertex="1" parent="P7BREsWE-NC01rkeyd-l-10">
          <mxGeometry x="289" y="510" width="120" height="110" as="geometry" />
        </mxCell>
        <mxCell id="P7BREsWE-NC01rkeyd-l-14" value="" style="shape=image;verticalLabelPosition=bottom;labelBackgroundColor=default;verticalAlign=top;aspect=fixed;imageAspect=0;image=data:image/jpeg,/9j/4AAQSkZJRgABAQEAeAB4AAD/2wBDAAIBAQIBAQICAgICAgICAwUDAwMDAwYEBAMFBwYHBwcGBwcICQsJCAgKCAcHCg0KCgsMDAwMBwkODw0MDgsMDAz/2wBDAQICAgMDAwYDAwYMCAcIDAwMDAwMDAwMDAwMDAwMDAwMDAwMDAwMDAwMDAwMDAwMDAwMDAwMDAwMDAwMDAwMDAz/wAARCAOzA7YDASIAAhEBAxEB/8QAHwAAAQUBAQEBAQEAAAAAAAAAAAECAwQFBgcICQoL/8QAtRAAAgEDAwIEAwUFBAQAAAF9AQIDAAQRBRIhMUEGE1FhByJxFDKBkaEII0KxwRVS0fAkM2JyggkKFhcYGRolJicoKSo0NTY3ODk6Q0RFRkdISUpTVFVWV1hZWmNkZWZnaGlqc3R1dnd4eXqDhIWGh4iJipKTlJWWl5iZmqKjpKWmp6ipqrKztLW2t7i5usLDxMXGx8jJytLT1NXW19jZ2uHi4+Tl5ufo6erx8vP09fb3+Pn6/8QAHwEAAwEBAQEBAQEBAQAAAAAAAAECAwQFBgcICQoL/8QAtREAAgECBAQDBAcFBAQAAQJ3AAECAxEEBSExBhJBUQdhcRMiMoEIFEKRobHBCSMzUvAVYnLRChYkNOEl8RcYGRomJygpKjU2Nzg5OkNERUZHSElKU1RVVldYWVpjZGVmZ2hpanN0dXZ3eHl6goOEhYaHiImKkpOUlZaXmJmaoqOkpaanqKmqsrO0tba3uLm6wsPExcbHyMnK0tPU1dbX2Nna4uPk5ebn6Onq8vP09fb3+Pn6/9oADAMBAAIRAxEAPwD9/KKKKACiiigAooooAKKKKACiiigAooooAKKKKACiiigAooooAKKKKACiiigAooooAKKKKACiiigAooooAKKKKACiiigAooooAKKKKACiiigAooooAKKKKACiiigAooooAKKKKACiiigAooooAKKKKACiiigAooooAKKKKACiiigAooooAKKKKACiiigAooooAKKKKACiiigAooooAKKKKACiiigAooooAKKKKACiiigAooooAKKKKACiiigAooooAKKKKACiiigAooooAKKKKACiiigAooooAKKKKACiiigAooooAKKKKACiiigAooooAKKKKACiiigAooooAKKKKACiiigAooooAKKKKACiiigAooooAKKKKACiiigAooooAKKKKACiiigAooooAKKKKACiiigAooooAKKKKACiiigAooooAKKKKACiiigAooooAKKKKACiiigAooooAKKKKACiiigAooooAKKKKACiiigAooooAKKKKACiiigAooooAKKKKACiiigAooooAKKKKACiiigAooooAKKKKACiiigAooooAKKKKACiiigAooooAKKKKACiiigAooooAKKKKACiiigAooooAKKKKACiiigAooooAKKKKACiiigAooooAKKKKACiiigAooooAKKKKACiiigAooooAKKKKACiiigAooooAKKKKACiiigAooooAKKKKACiiigAooooAKKKKACiiigAooooAKKKKACiiigAooooAKKKKACiiigAooooAKKKKACiiigAooooAKKKKACiiigAooooAKKKKACiiigAooooAKKKKACiiigAooooAKKKKACiiigAooooAKKKKACiiigAooooAKKKKACiiigAooooAKKKKACiiigAooooAKKKKACiiigAooooAKKKKACiiigAooooAKKKKACiiigAooooAKKKKACiiigAooooAKKKKACiiigAooooAKKKKACiiigAooooAKKKKACiiigAooooAKKKKACiiigAooooAKKKbIxVCRyew9aABmxSeZg1heOfiPo/w58P3Gq65qFrpWm2yeZLdXUoiiRc4HzHjOSOPevF7f8A4KkfAma68tfiDpLFSQzAOUH/AALbiuWtjqFGXJVmk/NnpYHJcfjYueEozml/LFv8kfRAORRXgqf8FNvgYw+X4i+H8+jSMP8A2WpIv+ClXwRlcL/wsTw2ue7XW0fqBWf9qYT/AJ+R+9Ha+Fc6W+Eq/wDgEv8AI92orxOH/gon8F7jG34jeEwp/ifUolX8yQK19E/bi+EPiF9lr8SPBM0n9xdZty35B6qOYYWTsqkfvRzVMhzKnrOhNf8Abr/yPVaK4WD9pv4e3YUxeNPC8it0K6lC2f8Ax6tfSfi14c1wJ9j1vS7rzM7TFcq4OPQitfrFLZSX3o5ZZfioq7pS/wDAX/kdHnNFU4dfs7mPdHdQOvqHpw1i3d9qzQsfTfz+VWpX6nP7Ka3T+4tUVW/tJfVT+NPW7Df3fzqoyM3dbomopizBjQ8mBwM1RPMrXH0U2OTeKdmldFLUKKKKYBRRRQAUUUUAFFFFABRRRQAUUUUAFFFFABRRRQAUUUUAFFFFABRRRQAUUUUAFFFFABRRRQAUUUUAFFFFABRRRQAUUUUAFFFFABRRRQAUUUUAFFFFABRRRQAUUUE4oAM0VE+Qc9fb1rkvGHx58K/DvULez1zXNK0m5uhuijurpImdc4yAxB68f/qq6dOU3ywV2cuLx2HwsPaYmajHu3ZHYscCkBPFVdN1mHWLOO4t5ElhmUMjowZWB6EGrW3cKiXuuzN6dSM4qUHdPqOooooLCiiigAooooAKKKKACiiigAooooAKKKKACiiigAooooAKKKKACiiigAooooAKKKKACiiigAooooAKKKKACiiigAooooAKKKKACiiigAooooAKKKKACiiigAooooAKKKKACmzH5adQwzQwPiP/AILf/DbxR42/Zitr3QYZrrT9F1OO/wBVhi4YQCN0Dn1RWYMc8AfNkbefyDBxIP7xTd8yjIGegyMjn0OfbBBP9Juo2Ud3bvHIokjddrqRkMp6g+1flZ/wU5/4JayfDK4vPHnw3s5H8O8y6lo0Y/5B2eskP/THPVeqj7pCKEH5pxvkNatL+0KTeis0f0z4F+I2BwCeQ5ilDmd4z6N9pP8AI+BSctTv+WdAly2NrL8u7BGCnOMMOze3bvjIyE5SvyDmcW1O+5/X8adJxTirp7DScrj5h9DTgVBzsXPfA4P1FNorTml3K+r0+sV9w7cAeFC+w4pGbI6K3s6hh/j+tJRR7SW92YywdJv4F9yLFlqc+murW800LL93ZIV2/TGCPzrc0z4w+LtGSMWvirxNa7M/6nVZ0B/Jq5uiuiGOxEFaM397M6mV4Ofx0ov5I7y0/ao+J+nxoLf4jeO7dl/55a/dKp/DzK6jQ/8AgoR8avDqr9m+I3iJiv3TcSrdEf8Af0Nn8a8borohm+Nh8NWX3s8itwfktSXNPCU3/wBuR/yPpLRP+CuHx+0dl3+OPtQX+GTTLXDfXEef1rsdE/4LgfGjTAouYvCOp/32uNPlVn/79yqB+VfHlFdNPiTM4O6rS++55GK8L+F8R/EwUF6RS/Kx+gXhr/g4B8VaUu7Vfh/o+odMi21OW2X8AySV6F4Z/wCDgvw7dbf7a+Heu2Ct/Fa3sV1/MJ+uK/Lum5+bG2P67Bn869GHG2ax15/wX+R87jPAzhGvrHDuPpKX+dj9hPCv/BdT4Qa2+L6z8V6NtxlrqyRlP0Mcj16Z4T/4Kt/Afxg+y38eWNtJwNt9bz2Yz9ZUUV+GJfav3QfqT/LOPzoDFuTXq0fEPHR0nGL+/wDzPl8V9HPh6q/3NWpT+af6H9Engj9ojwV8SovM8P8Aijw/raKQrNY6hFOEJ5wSpPPsa6xNRhkHyyK341/NersrfK2GU5B9K7fwZ+0f8Qvh/LHJovjnxdpvl/djh1e4WJf+AB9v4EEV6tHxGWntKf3HxmYfRoxEW/qeMT7KUWvxV/yP6HhLlN38qaLj5q/EXwL/AMFdPjp4HmXzfFUGvQx9ItSsYmBHu0QjY/UnNe3/AA1/4L8+ItLKR+KfAek6kpb5ptOvpLUoMdkdZMn/AIEBX0GE45y2qv3jcPVHwWZ+A3FOEu6cI1V/dkv/AG6x+pwfdSscV8U/Dr/guh8IvFbxJrVr4j8LNIcb72zEsZP+yYWdiPfaK+hPhl+2J8M/jSyReGfG3hvVLpv+XaO/RZ178xsQ4OOcFRX0GHzjBVv4VWL+Z+c5nwjnOX3+u4acF3cXb71oeo7+admqcV0s65RgwPcGp4m6V6EZRezPndSWiiiqAKKKKACiiigAooooAKKKKACiiigAooooAKKKKACiiigAooooAKKKKACiiigAooooAKKKKACiiigAooooAKKKKACiikY4FAC5psr7Bmo5X2HP6V45+13+1xpP7NXgndMYbjXL9WWwsy/zSN/fOOiDnJ45wO+a3w+Fq4ioqNJXkzyc6zrCZXg547GTUYQV23+XzK/7YP7Xuk/s3+FWjDQ3XiC9XbZ2hf8A8iPjkIP1PAxyR+YXjrx3qPxQ8Y3mua9O2paheOzO8gBABGAqgghVA4x6cdgQ/wAe+PtU+KPi651zWbqW81G8cl5HP8PZFH8KjjAHHFY8q/rX7fw3w3RwFFOqrze7P86fFPxXxvE+NcacnToRfuxT3ts3bqz9IP8AglZrd3rH7PMlvcTySw6dqM0FuGP3EIV9v0DO2PQYHavp+MYNfLP/AAScXyf2e7tuvm6pM30wqD+lfVCSbq/H+IopZjVUdrs/u3wtqTqcK4KdR3bgtWOoooryT78KKKKACiiigAooooAKKKKACiiigAooooAKKKKACiiigAooooAKKKKACiiigAooooAKKKKACiiigAooooAKKKKACiiigAooooAKKKKACiiigAooooAKKKKACiiigAooooAKKKKAEYbhVbUdNW/tJIXGUkGGBGQR71apsgyKUtVYLtao/K7/AIKg/wDBK6TwLNqHxC+G+nCTRmLXWq6Pbx7fsLc5lhUcbO7IB8o5HChB+fSSZRQyt8w3BgMqR9f5gjIOAcZGf6Trm3WaFkblZFKkeoPBr8wf+CoP/BKyTw7JqXxC+Gem7rHm61fQ7cH9038U0CjjB5LIB1+YY5B/LOKuEbKWNwvxbtfnY/qjwd8YFDkyXO5dlTm/yl+jPzvopXXY2PmzgZBGCD3H4Ulflc/dfvH9ZQqKaU4vRhRRRQbBRRRQAUUUUAFFFFABRRRQTyK9w6UUUU7sdgpwfAptFJti5UO8yjzKbRQUOZ93+z9FXn68c01TtcH0Of8APp/wHH4jIJRTi3F3jp6Gc6UJq00n6o9Q+Fn7anxW+DEsf/CPeO/EFrDCfkt5rj7ZCF/u7Jw6gc/whT9K+nvhD/wXl8deE/Kj8YeGdH8SQhwGlspWsZyOmcNvQt0/ug+1fCNBGR/F+BxXs4PiDMMM06VR6fP8z4nOvDbhzNLvF4aN31S5X96sz9sPgl/wWB+DvxdSGG81ibwpqEgGbfV4/KQH/rspaL2+8D7V9K6B4ssPFVhFd6beWt9azDck0EokRx2wR1r+bpQqj7qj2Cjafwxiuq+Fvx18Y/BLWFvfCfiTV9BkVt/l2t06ws3qyZ2t34YEc9BgV9xl/iJNLlxdP5r/ACPxPiH6N2HneeTV3F/yyXMvvVmvnc/osD57U4HNfk7+z5/wXM8VeEvstp8QNEtvEVqjhXv7FhbXMa9MmM5jY9M4Kcfkfv79nn9u74bftMWsa+GfEVjLqDKGbT7hvs92vGciN8Fh/tJuU9jX3OX8RYLGRvSmk+z0Z/PvE/hzn2Qyf16i+X+aOsfw2+dj2PdSBuetN8xWQMu0g+lCtkV7cb2uz4VuzsSA5ooHSiqKCiiigAooooAKKKKACiiigAooooAKKKKACiiigAooooAKKKKACiiigAooooAKKKKACiikY8UADHAqOaTZEzf3RnngUlzP5cdeU/tP/tT6N+zZ4Bkv75vO1K6Vk0+xRx513JjOAOuBwWPQD6it8Phqleap01ds8vOM4wmV4OeOxs1GnBXbf9dSt+1V+1fo/wCzV4Ia6vNs+r3w8vT7MN+8nfGeR1Cjuf15r8wPiZ8TtX+LfjO88Qa9cfatRvCQWJOyFc5WNB2A9R/9enfFD4pa38Z/Gdzr2v3TXF9cklVGQlrGeRCgycIuTgcn1JrnZHxxiv2vhnhqGBpKrWXvs/zr8WvFTFcUYt0KLccNB+7Hv5ytu+w3f81SRt5vHtUNOiba9fUvS5+K3bep+k3/AASnttn7Niybs+dqFwcY6YYL/Svp4Jg183/8EvLf7N+yvpbfe867um+n75x/SvpBGr+euIGnmNb/ABM/1W8MYqPC2CS/59x/IdRRRXkn3gUUUUAFFFFABRRRQAUUUUAFFFFABRRRQAUUUUAFFFFABRRRQAUUUUAFFFFABRRRQAUUUUAFFFFABRRRQAUUUUAFFFFABRRRQAUUUUAFFFFABRRRQAUUUUAFFFFABRRRQAUUUUAFFFFADXXcKgvrVZ4GjZVZW4IIyCKs0jLuFTJXVgWjuj8zf+Cn3/BK7auofET4a2TPKxaXVtCtYss4JDNJAg5LcZMYGW6jng/m1nJGCDwDxz/n8P8ADP8ASdc2izoyN91hgj1HpX5x/wDBT/8A4JZHVW1L4ifDmzzeLmbV9HhGTeH7zzwoo/1pzlkA+c8gbi2/8x4s4S5nLFYLfdry6n9ReD/jA6HLk2dz93RQm+nZS8vM/M2inOxR9pHOAeuf8/59shOUr8rqUpQdp6M/rilWjOKnF3T2sNooorM2CiiigAooooAKKKKACiiigAooooAKKKKACiiigAooooAKMUUU+Zhr3AMV/wD1mp7DUp9Ju47i1mkt7iFg8ckR8tkYc7gVAOffOcVBRV06jhrF2OepRpSg4TSaffW/qfWv7MH/AAWB+JnwPvLe18QzHx3oseF8q9YR3kSgYwk6jLHp/rA2cYyPvD9Kf2Uf+Cg/w8/a0gjh0HVPsWueWZJtGvsQ3kQHUhc4dR/eQsvvnivwhxkfz4ByPx4q3ousXnh6/t7zT7qexvrVxJbzwOVkhcfdKt95WHGHUhx2YDivssl4yxeDtGr78PxR+L8Z+B2S5vCWIwFqNZ/yr3W/Nf5H9I63W5sfqKmByK/Kn9if/gtDqng6S08P/FWObWNNjYQxa9Cmbq3GDlZ41GHAyvzqAxHUO1fpr8OviXofxU8M2useH9StNV028TfDcW8gdXH9CO4PI71+t5TneEzCHNh5XfVdUfx3xTwRmvD9d0sfB8t9JLWL9H+jszoaKaHzTq9c+TCiiigAooooAKKKKACiiigAooooAKKKKACiiigAooooAKKKKACiiigApGOBS01zzQAbunNJO/lpupkh2/NXmv7Sn7TOi/s6eA5tS1JjNdSArZ2UR/fXcnUKo9O5boB+FbYfD1K01Tpq7Z5ua5thcuws8ZjJqNOKu2yH9p/9p7Qf2cfA0moam/mahcBksbKNh511IBkKo9BkZPQZ78Z/Lf4wfGLXfjj41n1/XrpprybMYiX5Y7SPqsUY5wo5yeSSST1qb4xfGbXPjh42uvEGu3Amu7g+VFEoxHZx/eWOMdgvPPUkk965Jvu1+1cL8N08DS9tVV5v8D/O/wAXvFfEcT4t4fCtxw0HpH+bzffyE38dh9KbRRX1qk73Z+H83cKVT81JSOQEO47R0zTl3KUbvQ/UX/gmVB5X7JOgP/z0muz/AOTMo/pX0IvSvCf+CcFmbD9kjwvG33mE8n/fU8jf1r3YHIr+c86lzZhWf95/mf6veHsFHhrApf8APqH/AKSgooorzT7IKKKKACiiigAooooAKKKKACiiigAooooAKKKKACiiigAooooAKKKKACiiigAooooAKKKKACiiigAooooAKKKKACiiigAooooAKKKKACiiigAooooAKKKKACiiigAooooAKKKKACiiigAooooAR13Cobq186Bo93yvwfcdx+NT02VN6UWT3DbY/OX/AIKc/wDBK0eLZdQ+Inw4syNYUGXVdHhT5b7A3PNCq9JT1ZAPnPIG4sX/ADGlDRO0brtZWCkZ6HBP9MenB56Z/pOlhV4GVhuU9j3r8+P+Cnf/AAS0i+IX9o/ED4d2McPiKMPcanpcS4Gqgnc0kYH/AC2J5bA/eEDPzc1+ZcXcJqoni8N8XVdz+lvB/wAYHg3HJ86l+70UZv7Pk/Lz6H5b+XQUwKkuY2tZmjdWSSPAdWG0q3OQR7Efjg9xioycpX5RUpypy5ZqzP7EhVUqcZd9dO3T5DaKKKzNgooooAKKKKACiiigAooooAKKKKACiiigAooooAKKKKACiiigA7U5X2jop+optFVGTWwNXVhc8/ef65G79Rj9K9e/ZN/bZ8Zfsg+MYr7Q7z7Roskga+0adm+yXa9yByVkI6Pyc4HTIryCnIfm/wB4EH6EY/zmurBY6thqqq0JcrTueTm2S4LMsNLC42mpwktU/wCt/M/e79kD9srwf+198Phq3hu88u8t8C/0y4IW6sHbJAZR1U4O1h8pwcEkHHskU244r+df4MfGfxF+z38QbXxR4V1KbS9TtMAtHytwg4MTr/EjAfd4524I2rj9kv2Bv+CgWg/tjeDfLk8rR/F2moq6lpjS5bd/z0jzy0Z9ex496/aOGuLaWPj7HENRqr7mfw/4m+EeL4ek8bg7zw7fzh5P9H959NZoqslzhsYqdXzX2nmficZJ7DqKKKCgooooAKKKKACiiigAooooAKKKKACiiigAooooAKKKKACmSnYN3X29aV22LXn37QH7Q+i/AHwNeaxq80arH8kMQcb7iQjhFH948nAzwCa0o0alWooU1ds8/M8zwuAw8sVjJqMIq7bK37Rn7R2h/s+eBLnVNWkLS7SLe1Q/vbmTHCqP5+gzX5a/Gr446/8AHPx3da5rdxIZJgFgtwf3dpFyQij8QT6kZ9czfHP48a18ffHNxrmsyvjcVtLZXPk2kfZVX1PUnqT7cVxMj7zX7VwzwzHAwVSorza37eR/nn4veLWI4lxTwmEbjhoPRfzeb7+QGTJ6UF8im0V9klbY/C/IKKKKBWQUB1Q5bp0oob7jfQ/yqKjtFs1pJuaS7n6y/sH2rWv7Kvg4N942CSf99c/1r2FG7V5b+x6pT9mHwT76Pak/9+lr1CA5Ar+b8yali6kvN/mf6ycGU/Z5Fg6fanD/ANJRJRRRXEfUBRRRQAUUUUAFFFFABRRRQAUUUUAFFFFABRRRQAUUUUAFFFFABRRRQAUUUUAFFFFABRRRQAUUUUAFFFFABRRRQAUUUUAFFFFABRRRQAUUUUAFFFFABRRRQAUUUUAFFFFABRRRQAUUUUAFFFFABRRRQAjLuqC4tfMB6fiM5qxSNyKGk1Zh1ufAn/BTb/glxb/FqC48deALWO38WKGl1DTo1VE1gcbpRjAE3HXo+ADyAR+VeoWM2mXEkFxDJBPCxSSORSrxsDgqwPIYHgiv6RriHeK+Hv8Agpp/wS9t/j1b3fjfwRbw2XjKCPfd2sYCLrUY/hxkASADKsTg4wcA7h+dcWcIxrweJwitJbruf0l4QeL7wEoZPnU70npGb3j2Tf8AL+Xpt+SVFTajYXGj6nc2V3DNa3lnK8E8EqFJInUkMGU4IwQQc4IPGKhNfj9SnKE3CSs0f2RRrKtGNWi04tfh3CiiioNgooooAKKKKACiiigAooooAKKKKACiiigAooooAKKKKACiiigAoBwaKKAHeZyDj7pBHsRW98Mfilrvwc8faf4k8P31zZalp0nmRmLLbs/eUjurZII75PQ81z9GcH19j0Psfb1rWjWnTkpU3Z9zlxWBoYmlKhXipQlo09tT9xP2CP26dF/ax8BWas0Vl4kgTF3Zg/K+OC8eeSuR+HuME/SMb7q/nx/Zm+NGofB74jWl1Z3klj5kgKzI20xSAcOQODnAUgYG1iMH5cfsj+x7+2JZ/HTSf7L1RobPxNZoDLCPlW4XHEkfseTjtX7TwnxMsZD2FZ2kuvc/hvxY8KauQ4iWNwC5qEnfzj/wD6AoqCO6yKnByK+6Pw24UUUUAFFFFABRRRQAUUUUAFFFFABRRRQAUUUUAFNd9godtq1xPxy+OWi/A/wLeazrVwLeG3wqDPzTSH7qKOpJ/QAnoDWlGlKrNU4K7ZxZhmFDBYeWJxMlGEU22/Ij+PXx60X4B+A7rWtamWOOMBYYwcvO54VVHUnP5AE9q/LD9oD4/wCuftC+N59Y1h2jhA2WVmrHy7OM4OBxyx4JYjPbpxU/7Q/7ROtftHeOJNW1Rmhs4ztsLIE+XZx9sDuxHVsDPTgV5+/Ar9o4U4Zjgqf1iurzf4H+e/jF4wVeJMTLL8G3HDQeneT7vy7DQ+BQXyKbRX2Ufd0R+B8z2CiiiqGFFFFABQELnj6n6Dk0UFBIQrdCRWdX4GdOD1rwS7r8z9iP2cdObSfgP4Rt25aHSbZDx3ESiu7t/urWJ4GsF07wjptun+rit0VR6AKMVuQjGK/mrFSTryfmz/XHJabhgKEH0jH8kSUUUVgesFFFFABRRRQAUUUUAFFFFABRRRQAUUUUAFFFFABRRRQAUUUUAFFFFABRRRQAUUUUAFFFFABRRRQAUUUUAFFFFABRRRQAUUUUAFFFFABRRRQAUUUUAFFFFABRRRQAUUUUAFFFFABRRRQAUUUUAFFFFABSNS0UANMW4c1FcwZixU9NcZFHUHtZnxB/wU0/4JgW/wC0VYXHjXwXawWfji1iLTQLiKHWVHRX6BZQvCueDgK2BtZPyT13Q7vw1rNzp99bXFne2chhngnjMckLrwyMp5DA9iOgPQ8V/SLLD5gxn86+Mv8Agpd/wTEs/wBpHSbzxh4Sht7Px5aR7igxHHrKAAeU54AkwBtc8HAVuMMn55xdwisVF4nCq0lq/M/obwj8YJ5XKOUZvK9C9oye8fJv+X8vQ/HzPNFXPEGi33hXXLrTdSs7nT9QspDDcW9xGY5IXHBVlPIOc8H0PTGKqs3yV+OzpyjLkkrNH9qUa8K1ONehrGS/pobRRRUGwUUUUAFFFFABRRRQAUUUUAFFFFABRRRQAUUUUAFFFFABRRRQAUUUUAOjcxSKy8MpyD6Hsfwr6k/Z9+J95c+HNN1bT7yW31bS5BG0qNhkdeje+VwD6gkV8sgb3VT0Zgp+hOK9O/Zg8T/YPFNxprNuGoQ+cPTevX8wCc/T0rpw9ecJrkdj5/P8FDE0HGavo9HtY/X/APY8/bJs/jTp0Wj6w8Nr4lt/lKD5VulA++n9R25r6Bhu/wDShHt/H/P+f0z+Puk6hcaPqkF7ZzzWt1buJIpoXKSRMOQykdCOua++P2N/20o/izBDoPiB44/E0CYEmPLTUEH8aj+//eUe5GBwP2ThviiGKthqrs117n8V+JXhnPLZvMctV6L+JdYvy8vyPpSioUut56VMDkV90mnqj8SUrhRRRTGFFFFABRRRQAUUUUAFFFFACM22mBttLO21M1x3xb+L+jfB3wZea1rN0ltb2aFiD95m/hVR3Ynp706dOdSahBXZxZhjqODoSxWJkowirtt2tYX40/GjRvgl4KudZ1y6W1tYRhSPvyOeiKO7Htj36Yr8sP2j/wBpPWP2kvGjapfSSW+mwZWwsVJ8uCPPGcjlyMEnj2wMCrX7TX7T2tftMeMZL69aS10u3cjT7BWyLePpubtvP0yM+nFeZYxHj/P1+vvX7NwrwvHB0licQk5tH+f3jL4xVuIsRLL8vbjhov0c33fl2EEntQXyKbRX2/KrH8+6vVhRRRRqTqFFFFUUFFFFABV7wvYtqnijTLVPv3F5DEv1aRQP51RrqfgbYf2n8avCFvt3CXWrNWHqPPTP6ZrlxtTkoTl5M9bIaLrZlQpd5xX4o/Y3QoSukWvbESj9KvRjBqvpbeXaRL/dUCrgORX801H77P8AXHCfwILskvwCiiig6QooooAKKKKACiiigAooooAKKKKACiiigAooooAKKKKACiiigAooooAKKKKACiiigAooooAKKKKACiiigAooooAKKKKACiiigAooooAKKKKACiiigAooooAKKKKACiiigAooooAKKKKACiiigAooooAKKKKACkbJpaKAG7OKbKm6P+X1qSmuPSgXQ+Nf+ClP/BM3Tv2n9EufFHheOHT/AB9ZxhhtwkWsBQAIpeg38YVzwOAQQFK/kD4r8Nal4G1660nWLG40/UrCQw3NvOpV4nU4IIxxz0zgnkgHBx/SJIgda+SP+CkP/BNLTf2sPDk3iDQI7fTvHlimYZgNkepqAAIZsdTxhXOSvTGK+A4s4Sji4vEYZWnu/M/oHwj8XquUVI5VmsubDuyjJv4P/tfyPxiVty5pwOa0/Gng3Uvh74pvtE1mxuNO1TTZTBc206bXicdR9PQ/xDkcVmV+OVMPUpzcJqzR/bGHrQrUY1aTTjLVPo15BRRRWJ0BRRRQAUUUUAFFFFABRRRQAUUUUAFFFFABRRRQAUUUUAFFFFABWv4E1htB8Y6bdJ8rRXCAnP8ACTgj9ayKdF/rB69vrVRM60U4NM+w45vOG+Mhd2Svt0x/OpbK5k0++jntma1nt3WWOaJissbg5Dq3VWDcgjGDWV4Puf7Q8KabcY2meCOYrnOCUHGfxrTHJ/kfSu+jVlBqUT86xOFp1KcqVRXTutf1Pvb9jX9suH4rW9v4d8RTRweJIkIhkICLqIA5YDpuwMkDAznAA4r6ShnyRX48wXE1hfx3VvK1vdW7q8U0Z2yIRzkH1zzX3Z+xh+2vB8Tbe38M+JmW38QwLthumGyPUAOcj/bA6j2yPSv1rhbieOIgsPXfvH8seJXhjPAt5nlcb0vtQ6x815fl6H1EDkUVVt7xZPu8r2NWgcivvE09UfhykmFFFFMYUUUUAFIxwKWmu3NABu6UO22o3bac/pXO/Ef4naT8K/CV9retXcNnp9hEZJHZsH0AA9SSAB3JFVTpyqPlgrs5sVjKOHpSrV5KMYq7b0SS8xPin8VdJ+FHgq/1rWbpbKxsU3SSM23J4wB6kkgAdycV+Wn7VH7UerftKeMftNws1npFvI32GxY/6tenmMO7tweegOPerX7V/wC1bqn7THjBpGM1l4etGIsLDOAB3lcd3YZ9lBxyea8jY7SQvAPUZzn0P1xxX7FwpwysHBYnExvJ7eR/AfjR4xVc/ryyzLW44aLtfrN9b+XYA2KC+RTaK+6lFPc/nSV27hRRRVAFFFFABRRRQAUUUUAOEfFeofsYaCdf/aj8GW3H/H95pz6Rxu//ALLXmCdK91/4Jw6N/bX7Wuhvt5sIJ7nd7eW0f83FeTndTkwNWX91/kfY+HuFeJ4kwNFK69pC/wB6P1HiXBHtVhPu1EI9r9fu09PvV/OctWf6uxXKrD6KKKooKKKKACiiigAooooAKKKKACiiigAooooAKKKKACiiigAooooAKKKKACiiigAooooAKKKKACiiigAooooAKKKKACiiigAooooAKKKKACiiigAooooAKKKKACiiigAooooAKKKKACiiigAooooAKKKKACiiigAooooAKRsmlooAaEptym9KkpGGRQLY+TP+Ci3/AATn0n9rXwlLrGkxwaZ460+MCzuwNq3qjpBP/eU/wt1UngEZB/HHxz4F1f4aeLL7Qte0+50vWNMlMF1azrteJx/NSMFWHDKQwyK/o6uIRMNjdDXy/wD8FDf+CcWi/te+EpNR037PpPjfT48WN/sO24Uc+RPjlkPZuShOQDllb4PirhWGLputhlaf5n754S+LtXJKiyrNG5YaTVpbuD/yPxPpBnNbfxD+HWtfCjxvqPhvxFp9xpetaTJ5dzbzLjaexU9GVhyrDhl5BrGKYGa/GalGdOTp1FZo/tvB4yhiKEa1GV4yV0+jXkxKKKKxOhSTCiiigoKKKKACiiigAooooAKKKKACiiigAooooAKKKKACheGHtzRTZOUNVED6g+CM3n/CzRe3lQeX167Ttz+O3P411i/KM1xP7P8AJ53wr0tvaQflI4/pXbf8s66onwOIjapJeYGRgPl+VvX0p1jO1hfxXEJkimhcSK8Z+ZCPm3D3DDdx+NR0E1tTlKEuaG5y1KMakHCS0asfcn7Fv7bEfjkw+GfFM8EOsqoW2uj8q6gMev8Az0x1FfU0VyH6cr1r8ebe7ls7qO4hkeOaJtyOpwykdCD6ivtf9i39tv8A4S1Lbwz4uuEj1TAisrtzgXp5wh/28D8fav1bhrimNW2Gr77XP5f8SvDF4VyzPKY3hvOK6ea8ur7H1qDkUVWiuhvAX5lIyGHQip0k3V+geZ+DKVx1IxwKWmueaB3sJ5nzUjHvTQu09axvHvjrTfh34ZvNW1S6itbGxjMs0kjbVUD+p6AdyQKqEHOSjFXZjiMRSo03VrSUYpXbeiSRF8RviHpfwy8K3ms6xdR2en2Kb5JHOMcgD8SSAB3Jr8vv2uf2s9T/AGkvGjMrXFj4bsZCLKwLD94RkGaTjlyuQB/CGI5PNT/tiftgal+0p4p2QedY+GrFybG0fGJ+3nSDu3XC9FB7nmvFc7uyqOu0fdz6/XHFfr3CfCqwsFi8Qveey7H8D+NHjJPPKs8oyuXLhot3l1m1+hI0/GFXardRnOT2P1A4ppfIptFff3bWp/NvM3qwooopgFFFFABRRRQAUUUUAFFFFAEkY3AV9Rf8EntDa+/aG1K9Dfu7HSnjYY6l5IyP/QDXy7GcCvtj/gj5oRfUPGeotyMWsCcdMeax/wDQhXzPFlfkyyr5pL7z9a8DcG8TxlhU1om39yufdQXNOAwKaHwKAQT71+CWP9NbjqKKKYwooooAKKKKACiiigAooooAKKKKACiiigAooooAKKKKACiiigAooooAKKKKACiiigAooooAKKKKACiiigAooooAKKKKACiiigAooooAKKKKACiiigAooooAKKKKACiiigAooooAKKKKACiiigAooooAKKKKACiiigAooooAKKKKAGlMmmunFSU2TpQG58yf8FBf+Cenh/8Aa98HyXsP2fSfGWnp/oGoiP8A1w/54TYOWjJ6d0J3AHkN+MnxM+F2tfBjxpqXhvxFp8ml6vpc3lz28h59QynoynqCOCDmv6MJY/lr51/b3/YD8Pftm+BmJjg0/wAYadGf7N1PZzjr5MmOTGeT3Kn5gDyrfCcV8KRx0XXoK00vvsfuXhT4uVchqrLsyblhZNb6uHmvLyPw5JwKK6X4r/CfxB8FvHN74b8S6fPp+raa5jlSXneo+66HoyEYww4IxXOFMLnr9OcfX0r8ZrYepRm6dRWaP7gwuNoYihCvQkpRnqmtbobRRRWB3BRRRQAUUUUAFFFFABRRRQAUUUUAFFFFABRRRQAUZooI3fnTTsB9Kfs/ReT8KdMX3lP/AJFc123/ACzrlfgtD5Pwt0Xnd5luJPpuJbH4ZxXVf8s67Y7HwNf+JL1G0UUVRiBGf7v4ik3NFtZWbdGQysT8wIOQfc5/AmlprjNVG/MrPUiVOM1yyWh9ofsTftujWTZ+E/GF1GNRfEFhfSbt10P4Y3JzmQHIBzlsgHLZJ+uI7sFxt+761+O4HlurddpBH+H09v519m/sVftxPqy2vhPxddI978sNjfyE7rpjnbHIx/j4wpzluAcscn9Q4X4qU39VxT1WiZ/MniZ4Z/V5SzXKYe5q5xXTzXl3XQ+w0fdSScVFbz70DdO4+lZ/i/xhY+DvD9zqWoXEVrZ2qGSSSRgqqB7n8q/SIRc2ow1b2P57xFanRpurVdox1b7EHjTxtp/gXQ7vVNWuI7Kws03yzSMAFHb8zgeuT0r8xv2xf2wr79pPxVLBYtJaeFbKUm0tslTdEfL58vqeCFXooPc81P8Atmftl3v7SXiNrHTZJLTwnZSkwQg4N644Er8A/Renfk4x4Yw+T3r9a4T4V+rxWLxS957Lsfwj41eNM83nPJ8ofLQi7OS3m9n/ANujWfcu3+Hrj39fypuaKK/Q9YuyP5j5m9WFFFFMAooooAKKKKACiiigAooooAKKKKL21Y1uPUZT6g1+iP8AwSQ8PSab8DtSvJG41DVJHjGOirHGh/8AHlb86/O5MkKB1YgD8TX6n/8ABOvw3J4b/ZR8LrMuJLiKW66dpZXkX/x1hXwnHtZQwEY9ZNfgf0X9GXAqtxPKs18EG/m2l+p7qy7qan3qWOkT71fjR/oE9x9FFFBQUUUUAFFFFABRRRQAUUUUAFFFFABRRRQAUUUUAFFFFABRRRQAUUUUAFFFFABRRRQAUUUUAFFFFABRRRQAUUUUAFFFFABRRRQAUUUUAFFFFABRRRQAUUUUAFFFFABRRRQAUUUUAFFFFABRRRQAUUUUAFFFFABRRRQAUUUUAFFFFABSNyKWigBu0mozFg9efWpqbJwaCZLqfPP7eP7Afhv9svwGyzJHp/ijTkZtM1JE+aJv7j9zGT1HbqO4P4sfGz4L+Iv2e/Ht94Z8Uae+m6rZPgpJgRzgnCyRtn51Zc4I44IJBBFf0P6rq1vpdjNcXEiwwQqXeRjhVUDJJNfmF/wUc/aV8O/tI+PrGw0nS7Gex8MzSLb6u0Q869YgB1R+vlDg7eQSA3YY5aHhTU4sxip4X3HvKXRLz8+3c+ry76S0PDTBTeY/vabT5Kd/e5ult2lff+r/AAZpHgDWNbh8yCxkMZ6FjjNO1T4c63pEHmSafN5YGSy4IH617hnMfyhV9ABgVGOa/WofRPyNYZRqYmp7TurWv6Wv+J+LVv2knF6zB1I5fRWGvove5ret/wBD55/Ar6gjGKM17trvhWx8RxbbqFZOMbujL9DXnvjH4PXGkEz6duuLXBYoxy6gDnHr+lfiHHP0dc7yKlLE4L/aKa1934kv8P8Akz+uPBv6dnBvF1WOX5v/ALHiXpaTvBt9paWfqjizRnNNBYOVZcEU6v56rUZ0ZOFRWa37ryaP7io4inWpKtTknF2tJO6d9rBRRRWZsFFFFABRRRQAUUUUAFFFFABSoNzY9en1pKtaDZNqWvWNup2tNcxJnGcZcCqirmdSooxbZ9UeArH+zvBul2+7d5NsiFsYyQqjpWwRhKjs4TbwKjdUGP8AP5VK/wB2u5H5/KV5yfmMooooAKKKKACmy7vL478HjqO/6U6impNaomUYuPLJXXY+vP2O/wBvKKys/wDhHPHWoJDHbIfsmqXEnBQAt5ch/vALwx5bjPNeH/ts/tnXn7QOuzaTpMslt4Ts5jGEHDX7D+Nv9jjIX1wc9q8vaIAfofcVzeuWwt7yRR93G5R7ZxX9H+CueUcbjXhMUuacVeL9D/MX6d/COOybIaea5JLkw1SfLVS01a0+T626meDlsszN2GT0pxbjFNor+poxs7xP8jrtu7CiiiqGFFFFABRRRQAUUUUAFFFFABRRRQAUUUAZo3AkjG7aCdoJwT6Cv2T+A3hP/hBvhJ4c0n/oH6fDAeMfdjA/pX5IfBnwx/wmfxY8NaSY/NS/1OCGRf8AYMg3/kuT+FfsppsH2e0hjHRUA/SvyvxExF3Ro+Vz+y/oqZXeGMx8l/LFfm/0LbNtpqfepzLupqfer8zP7De4+iiigoKKKKACiiigAooooAKKKKACiiigAooooAKKKKACiiigAooooAKKKKACiiigAooooAKKKKACiiigAooooAKKKKACiiigAooooAKKKKACiiigAooooAKKKKACiiigAooooAKKKKACiiigAooooAKKKKACiiigAooooAKKKKACiiigAooprttFABI2xM1Xvb6O2tHlkYLHGMs2egpt3fqkTbvlVQWLduO3/wBavzx/b2/b1X4mNeeEfBd6G8P/AOqvtQjzt1TnJjjI/wCWBxgkEbxnblGDn3uGeHcVneLWFwsdPtPokfFcdccYDhnL3i8W7yfwx6yfl5dyv+3l+3vJ8U7y68I+ELhl8OwsY72/jbI1FgPuxEf8sgerdyOmCpPyikhKjOOmOPbjH0/rRHwoXnPqT3/z/knJKt1r+xOGuG8Lk2CjhcPH1fVvzP8APDi7izHcQ5hPH4163aiuy7ATmk8vA60UZ4r6HlV7ny6stEJjJp6r8vtTacjUppONnsVGbhrF29NzlPHHwxtvFkvm2+y1vsff6LKfRv8APWvKdX0a60C/e2vIvJmQ9G6N7qe9fQLLlqx/GHgm18Y2HkzfLMo/dy45U1/NXi34E4LPKMswyeKp4nV2Win6+Z/eX0Yfpk5twXXpZJxLOWIwEmlrrOlqkmn1S3seG0Ve8ReG7rwtqLWt0jKw6Njhh61RzX+f2a5TiMtxM8Ji4uM4uzv/AF9x/t7w7xDl2eZdSzbKqqq0aiTjJNPRrrYKKKK8s9lSTCiiigoKKKKACiiigLpbiOcIx9Bmuv8AgXpX9r/FXT42QNFb75mJ7FQcfriuQflG+mK9X/Za0L7T4gv9SxhYYhF/vFiT+gUfXPtWlNann5hJRoSl8j3KL93Gq/e2gDPrTi+RTaK7D4sKKKKACiiigAooooB6qw1fvNXPeKhjUP8AgH9a6FjsVm9BmuT1S4+1XTybtwY8H09q/evATLKlfN546S92EbLzb6fI/wA8f2h3F2HwnCGHyRNOpXqJ2/uxTu/vsVaKKK/r56Ox/jDsFFFFABRRRQAUUUUAFFFFABRRRQAUUUUAFPh+9zTKdH98Z+7/ABH0Hf8ASple2m4Hu3/BOTwr/wAJT+1ho8hjVo9KimvCT2Hl+X/6FKpzX6kQR7eOwOK+Ef8AgkP4KS51/wAV69JH80CQ2UEnudzuv/fPlGvvJVwRX4jxxilWzNx/kSR/op9HPJ3g+E4V2rOrJy/T9LkgGDQBgU0PgUAgn3r48/e7jqKKKBhRRRQAUUUUAFFFFABRRRQAUUUUAFFFFABRRRQAUUUUAFFFFABRRRQAUUUUAFFFFABRRRQAUUUUAFFFFABRRRQAUUUUAFFFFABRRRQAUUUUAFFFFABRRRQAUUUUAFFFFABRRRQAUUUUAFFFFABRRRQAUUUUAFFFFABRRRQAUjHApaa4zQAjSYFRXF4tvEWkZVQDJJ7CkvLiO2hZnbaqjJNfAf8AwUC/b2/4SOa78D+DbvdYhjDqt/G2VuMYzBGw/hyMOQeRuXjO4e5w5w7i86xiwuEWnV9EvP8AQ+N4z4zwPDmXyxmMlr9mPWT8v1KH7f37fjeP7m68G+CLlP7FQ+VqeoqCRfgcmGM9DCejHPzjcB8jAv8AIXGfl3fUnJJ7n8f8PTFEshY9WY9yxyWPdie7Hue/4UZy1f2FwzwvhclwkcNhlru31b8z/PPjPjHG8R5hLG4t6X91dIry7CjIPWgnNFFfTHyOoUUUUBYKAcUUUAOD0BuabTk5NRyLoGuyM3xX4XtfF+nfZ5lCtn5HxyrdM/8A1q8Y8S+GrjwxqclrOvzIx2nsy9M171nJ/n9Kw/Gvg6LxdYNH8q3CD9y5HT0H49K/nfxv8IaPEeEePwEVHFQTa7SS6Pz7H9v/AESfpP4zgTNI5FnFTmy6s0nfX2b/AJ12V918zxCjvVjUNMl0y8kt512SwttZfQ1AU2iv86MVg6uGrSo1U1KLaafRrc/3byvMsLj8NDGYSalCaTi1qmt7p9biUUUVynpBRRRQAUUUUA1fcD0+nNfQ/wCzbocmj/D1ZJNoa+maYY7Lwoz/AN85/Gvny1tpL65jt4V8yW4YRIv94t8oH619beHtKj0TRLS1jbctvGkOcYyQvP6g1007Hz+cYi0PZIvUUUVufNhRRRQAUUUUXtqKUrBQKa7bVqK5v1tLZpX+6oz9a6cHhZ4nERw1JXlLoeXm+bYfLMFUzDGzUadNOUm9LJK5U8S6otlaCNT++mHA9B6/0rnM/u6ffXj6leNK38XAH90Uxvu1/ePh7wjHIMrp4feb96T7tr9D/nv+kt4w1PELjCtmFPTD024Ul/dTfver3GUUUV989dz+eAooooAKKKKACiiigAooooAKKKKACiiigAp0e7f8hVW9zTasaTYTarqtra28fnXF1KsMMecb3YgKPxYioq1FCDm9kbUKbqVI00rtu1j9LP8AgmL4AHhH9mmwvmjaOXXLma+ZSOQM7FP4qin8a+kAcGuX+EXhWHwF8ONC0W3+aHTbGK2U4xkIgXp+FdQDkV/N2Z4j2+KqVe7/AFP9Y+DcnWV5HhcFH7EIp+tlf8R23dzTgMCkT7tJ/wAtK4z6ZDqKKKBhRRRQAUUUUAFFFFABRRRQAUUUUAFFFFABRRRQAUUUUAFFFFABRRRQAUUUUAFFFFABRRRQAUUUUAFFFFABRRRQAUUUUAFFFFABRRRQAUUUUAFFFFABRRRQAUUUUAFFFFABRRRQAUUUUAFFFFABRRRQAUUUUAFFFFABRRTZH2igBWbaKimulhhZmYKqjJJOKjuLkRxszfKqjJr4d/4KB/t7NayXvgjwXdN52Tb6rqMTjNqw4aBCP4+zEcLnbyd2z2uH8hxWcYyOEwivfd9Eu7PkuMeMMDw7gHjcZL0XVvyKf/BQL9vb+05b7wT4NuVaNcw6nqMT7lJ7wJj8n5HBKjrkfE6kmQMxydm0/wA/06DvjuaQsFb5VwuCMdcEnJwfc8n1PNIDl6/sPhbhfC5Jg1hsOter6tn+enHHGmM4kx8sXiW+X7MeiQ4nJooor6c+LAHBpxfIptFABRRRQAUUUUAFAODRRQA4PQfmB5ptKvWpkrolrscd8V/Aya3prXlumL21XLY/5bL3z9Bz+FeUhGAKsMMpwa+iiM4+oNeU/F3wh/ZGqG/tV2wXTZlUDhG6f4V/F/0ifCnmpviXK4a/8vIpfdJL8z/WL6B/0kmpx8PuIqu/8CUnov7l3+H3HF+XQyYFOFI/3a/iRNan+tEZXd47JLfuMooopmgUjHCn6ZpaDg/e+739hQG252nwF8Pf278SbVmXdFYhrh8jjI4X/wAeIP4V9JIMDnr/AJz/AE/KvL/2X/C/2Hw1PqckQWa+l2q2ckxpkf8Aoe4fh716kTk10wR8XmVdTrNBRRRW554UGignaKAAGkMi+tMkbcPQU0usRy3RRkk1dGnKpP2UU3J9EceIxNOjTdXEvljFNt9El3Y6VvKjZmO1Rzmud1nVWu3Kr/q16VJrWtNet5cfEY/Wsxvu1/WnhL4ZvA01muaR/ePaPZdH6n+PX0xvpTLiGtPhDhio/q0G1UmvtyXRf3V+InmUF8im0V+/xP8AOSLdgoooqgCiiigAooooAKKKKACiiigAooooAKKKKACvX/2Efh2vxN/ah8N2ssYkt9OlOpTAjIVYhlW/CQx/nXkI4Nfcf/BIf4YK1p4i8WXEfzNIun2pPUKo3yEexLIP+AHntXzfFGY/V8tlKO70P0zwf4feccVYXD2vGMueXpHX8bWPtuKz8lFX72Bjpipo1xS7c8elA25r8D31P9QoxUY8qHUm35s0tFBQUUUUAFFFFABRRRQAUUUUAFFFFABRRRQAUUUUAFFFFABRRRQAUUUUAFFFFABRRRQAUUUUAFFFFABRRRQAUUUUAFFFFABRRRQAUUUUAFFFFABRRRQAUUUUAFFFFABRRRQAUUUUAFFFFABRRRQAUUUUAFFFFABRRRQAUUUjNtoAR22LUMt0qqd33RyadLcBYmY7fl55PWviv9v/APb+j8LvfeCvBN55mrSb4NQ1GJvl0/HyyRxOpB84ZAZgf3eQM787fXyPI8Xm2Ljg8IvefXol3Z8vxZxZgOH8DLHY6dktl1b6JFX/AIKBft7Np8+oeBfBN432wb4dU1ONiPsn8LQwsuP3oJ+ZwfkJwDvB8v4VeH589x8oOP4fT/P+GHJI0kxZjuY9Tnt24GB+GMDnuSaGOWr+vuE+FMNkmDWHor3n8Uurf+Xkf558dccY7iXMZYjEt8q+GPRLp/w5E8fzUoGBUdzfQ2xbzJY029cuox+tVJvFOm25O++s029d0yjFfXxT6HxkaNR7Jl+nBMisk+NNJH/MT08+wuFzT4fGmku4X+0tP/8AAhM/kDTcZW2G8JX6RZp+XTSMGq0XiKynkCx3VvLu6FJAc/1q2AJOQanVbmboVo/EhtLt+XNLs4oP3aLis1uNooopiCiiigApVbFJRSaurMBwbJqvqWnQ6vZTW867oZlKsPT0P4dfwqagHmuTHYGliqE8NWV4yTTT7M7srzKvl+Kp4vCzcZwkpJp2aad9PuPCPE+hyeGdbms3GPLb5T/eHXNUCcpXrnxS8G/29ozXUf8Ax8WYLqAv3h3H5ZNeSP8Adr/Lnxi4BqcMZ/VopfuqnvQfSz6eqf4H/RN9F3xtoeI/CFHGzaWJpJQqrrzJWUvSS19RlFFFfkp/TAVNp9hLqt/DawruluXWJR/vHH9ahzjrwO59BXf/ALOvhWTWvHS3jx/6PpqF2Of+Wh+UL+HJ/AetVFXZx4yoqdNyZ7v4P0VfDvhqzsVXaLaMR/iOtaVNiG1cU6u21j4iWsnJhRRQxwKpK7shBnNDDcKTcuPmNMvbqOxtxK7YRvun1rqwWBr4usqGHi5Sbtojws9z/AZRg547M6qpUoq7lJpJW8xzOtuhaT5R2PrXP61r73LtHCxWHo3+1UOqaw2qS55WNT8i+lU5Ohr+svDPwohlyjmeZJSqvaPRefqf49/Sg+mNiuJ51eHOE5OnhE2pVE7SqdNO0fzGmTPagvkU2iv3qKsrI/z2cpN3b1CiiimSFFFFABRRRQAUUUUAFFFFABRRRQAUUUUAFFFA5NG+gDoM+au3zNy8jYMtxzwPWv1x/Y7+ErfBf9nzw3ocyhLyG2Et2Ac5mky8nPf5mPPtX52fsNfB5vjD+0foNpJEslhprf2neFlyoSIjaPfMhQY+p7V+r9rai1iVR0UYHsK/J+Psxi5QwUH8OrP7Q+i7wm6dOvn9ZfF7kPRayf32XyZYVdtIEwacDmivzc/sAKKKKACiiigAooooAKKKKACiiigAooooAKKKKACiiigAooooAKKKKACiiigAooooAKKKKACiiigAooooAKKKKACiiigAooooAKKKKACiiigAooooAKKKKACiiigAooooAKKKKACiiigAooooAKKKKACiiigAooooAKKKRmxQArHAqG5uBEvJxyB0z3oll/d/dJ+lfFX/AAUw/wCCk+nfs+6Xc+D/AA/qEbeKLuPbcywuC+mxtjocHEjAnb6decYr1sjyPF5xjI4HBxvJ/cl3bPn+JOJMHkuCeNxb06Jbt9kWv+Cgf7eC+ELW78G+ELrOtTxul9f275bTo/usiMOk2TyQcpkEZPI/N/xL8UtL0KSXzZvtFwGDeVF8zEgEc+/Ofbnuc15p4x+MWq+NHudzNbw3EnmMik7nPdmPUknJJPrXJbfmzmv7Y4L8PMNkODVN/wAR/E+r+fbyP4Z40zvGcS5g8VmL9yL92C2S/wA+56Hq/wC0JdXTEWVhDb9t0nzsf0FcxqnxH1rU4pFbULiNZMZWN9q9fSsIpk0FMCvvKeFpw0ij52jgaNL4I/r+ZJNqE07lmkd29XYsf8P0pouHwMsT+n/1/wBajoroUIrodC02HtOzjGW/76P+NNDkUlFVZdiuZki3Dp0Zqlh1m7tn3R3EsZHQq2CKrUVPs49iZJPdG9pXxL1rSf8AV30zL2DncP1re0r48albFVuIre4AOSzZVj9McD8q4OisKmFpS1aOeeFoz0nE9i0v48addpm4t57X3zuX8+K6XSfG2l60m6C8hPqpbDD8K+eM05ZCprknlcZP3NDz62Q4aX8NtH0xFKsp+XlTUhUV886H4+1bw+y/Z7+6VV6IXyo/Cuw0D4/SRsqahYrIueZIPlYe5Hf8xXDWy+pB6anl4jh+tFXpO56qVxSVz+ifE7R9ejTybpVdv4JfkIreSRZACrK4PQqcg1xyhKLszw54etTdqsbMdTk60m3A/wAO31pU61nJ2WhFrPUcW2Z+mD7joa8Y+J3hX/hG9eZ4x/od188fH3X7j8q9lU5JrH8feHF8UeGprdv9bGN0Lf3SP8a/G/GrgOHEnD9SlBfvqXvQfXRar5n9S/RL8aanh/xvRniJP6piGqdRdLN6P1Td/S54bRSyxtbyMrAqynaeOjelJX+YFSjKlN06is02v69D/obw+KhWoRr03zKST02s9mhGOBX0j8A/B/8Awi3gWGSRNtxfn7RJ754X/wAdxXhvw28Kf8Jj40sbF13Qs/mSj/YXJP54xX1RFCsESqvRVA/w/r+dOnE8TOMStKaHUUE4FIGzXR1PB6C0E47MfoKZPcJawtJI21V6msLVPEzXce22by05BYH71fb8KeH+a59XX1ePLT6yasl8z8D8YvpE8J+HuFlLMq6niLe7Si05N+fZepqaxq6aZH/DK57Ken1rm7i9kuWaRmzI3X+lMDl0+ZizdeaRz8tf19wT4eZfkNJOlHnn1k97+S2sf4u+Of0leJ/EbFShiZujhIv3aUXp5OXdjfNJ+9yaGfIptFfoKsfzjzX3CiiiqAKKKKACiiigAooooAKKKKACiiigAooooAKKKKA3Cj5drbvu7Tn6YpVXdXWfBb4T3Pxl+KOj+G7fzB/aU4EzqOI4l5kOfZc8dzXNisVChTlVnslc9DLcBPHYqGEo/HOSSXq7H3J/wSt+DK+DfhXd+KbqNRe+JHAhduGNtHkJgdgzF246hhX1lF8yisnwp4btfCnh+y02xhS3tLGFIYo1HyqqqAAPbArVi4UV/PGaY6WMxU8RPds/1U4L4bp5Dk1DLKa+CKT829W/m2TAYFFAorzz6wKKKKACiiigAooooAKKKKACiiigAooooAKKKKACiiigAooooAKKKKACiiigAooooAKKKKACiiigAooooAKKKKACiiigAooooAKKKKACiiigAooooAKKKKACiiigAooooAKKKKACiiigAooooAKKKKACiiigAoJwKKRuRQA0yc0yWVljJxn2p0xKLu6+3rXyL/wU9/4KM2f7Ifgf+w9FeG58eeIIT9hib5lsIjkG4kXBHZgitwzI3UKQfQybKcVmeKhgsJFynJ2X+fkkeTnWdYbK8JLF4p2il977HPf8FRv+Cmtp+zbpM3g3wfcR3fju8jDSuvzJo0TY+d8f8tGB+VOCAdx42h/x+1rXrzxHrNxqGoXU15fXbmWa4lbdJKx6kmpte8SXvi/V7rUtVup77UL6Vp555nLvNKxJd2JySSSeT61Qbha/ujgHgXB8O5fGCtKrLWUut+y8j+LeMuMMTn2MlVm7QXwx6evqIZMtmjzKaRinA5evvJau7PiXIPMoL5FBfBppOTQSFFFFABRRRQAUUUUAFFFFABRRRQAUUUULQrmAHFbmg+PdU0B0+z3c2xP4JG3r+VYdKn3qipTjNWaJlaatI9Y8P/HxJ/3epWu3/ptF0/Ku30nxBYa7CHtLy3m3fwq3zD6j/CvnEpk1Y0zUZtJuBJDNLEw7xttNeZUyyL1hoeRisjoVPeg7M+lCcUkvKfiP51454c+OF/pYWO8VbqHuej/nXonhb4g6X4oCLBcrHM3Hly/KxPoPWvLxGDnBOMlfQ8DEZViKOttO6OD+Mnhv+x9cW8jX9zfckDorCuSiG/2Pb61v/tQ/HCx8Mw/2FbW632p8O7lsR2oz0PB3MfTjFeBj4u60JvmlhaMHPleX8n5Z/Gv82PGHw8hHifEVMnacJu7XSMnuj/br6Mnj86fAWDwfFMJqtTXKpWWsF8LevbQ+zP2afBi6bolxrUwHnXzmKE/7C/e/8eBr1ccLXkf7L/7Qek/Frw5HYqkWnalpcADWpfKlAcblOB1447Yr02/8Rw2rbY9lw6jkA/KtflGX8G5rjsT9TwtGTkt2lp97P2rjHxu4SyTAf2zmmMhCk7ta3k/KMd2/kXpG2qfu/UnArL1XxNHYEpbN5j/31PArLudSudQ5klGwfwKMCq0oz+Nf0Zwb4H4XD2xOcy55fyrZPsz/ADI8bPp95lmkamU8EwdClqnWl8bW3uraPk9xJbt7qZpJm3vng+lNL5NNor98wuDo4ekqFCKjBLZbH+dmdZ3js1xUsZj6sqlSTu5Sd238x2/FDPkU2iuvljZWPN5n1CiiijQiyCiiimMKKKKACiiigAooooAKKKKACiiigAooooAKKKKTYvIdGMtzkqoJbHXA6/pX39/wSu/Z5/4RrwdN431GJRe+IAosww5W3GSG/wCBnn6AV8k/srfs+XX7RvxasNFRZF0uL/SNTnX/AJZQg/dz2Z/ug9uTzt5/Wjw1odv4c0m1sbSGOC1s4liijRQqooGAABwAMdK/NuPM2VNLBUvie78j+sfo28AvE4ufEGMj7lP3YJreXV/I0PIyx/WnxrtpyilAwK/Kea5/b/W4UUUUDCiiigAooooAKKKKACiiigAooooAKKKKACiiigAooooAKKKKACiiigAooooAKKKKACiiigAooooAKKKKACiiigAooooAKKKKACiiigAooooAKKKKACiiigAooooAKKKKACiiigAooooAKKKKACiiigAooood+gBTXfaKVm21S1vWodE0m4u7iaG3hto2lkllOEjUDJYnsAOc+1EIyk7IipUjGLlJ2R5T+2z+1to/7IPwH1jxTqXlzXcamDTbMt82oXJXKRgDnHUseMKp9s/g58VPidrnxj+IOr+KPEl9JqOtaxcPcXMrMTt6BYwOgVF2ooAGFQCvY/8AgpP+2HN+2N8d5ryzlZfCOg77PRYOdrKpAe4IPRpSf++Y0H8JLfPKrsixX9peEnAKybL1jsVFe3qpPziv5fn1P4+8TuNJZtjXh6T/AHVN2XZtdRfMG3pSeZx0ptFfskmj8mb6ATk0UUVJAUUUUAFFFFABRRRQAUUUUAFFFFABRRRQAUUUUAFAODRRQA7zKPMptA/D8TVRTexUdxxfIoe5e2haSM7ZF5Vv7p9akttPmvZVWGGR2Y4C4+Y/Su68L/A68vQkl9L9mjP3kX7zA+/avieMOOMk4fw0p5jWUZNO0b6t9klqKtjcPhmpVpfI+W9Zupr3W7qWaRpZmlbc7dW5PWq/f+f0r1X9or4BXngXXn1HS7ea60WYAsykvJbv6MPQ+teVRb5G2+WQ5P3e9fwDic0oY6vUxUKl1OTf+R/ePB3EmWZnlFHE4OpFQcVpezi0tmjuf2dNWm0n41aDLA0iNJN9mbbzmNgQQR3xnP4V9vyqqMxVWVScgNwQO1eI/sTfsk302px+LvEkE2nwLCy6XbSfLJPu6zY7LtIx9a+i9X8B3VlGWik+1IAOTwwxnt+P6V+0cD5dWo4P2k18W3ofxH9I3irB5pxBGhgavMqUFGVn7t79DnA2XpWfFSSwPA211ZT7io3+7X2z8z+eHYZRRRSsMKKKKYBRRRRYAooooAKKKKACiiigAooooAKKKKACiiigAoooo30AKsaVo914g1K3s7GCS5uryZbaGJfvyyN0Ue/P4fhUONr+jZ+Uk8Bu2fbOK+9/+Cc/7FTeB7WLxx4q08Q61eJmws51xJYxEfecdpG647L75A8DOs7pYCj7aT1e0fPufoXhvwDjeKc0hhcOvcTTnLpFf5voew/sSfszW37OHwpgtpI4W1zUm+16jOibd8hH3B1O1c4HrgnjOK9oRMN9ahXi5DAbRt24/wA/55NTxnew/lX4RisVPEVZVaj1lqf6bZHk+GynAUsvwitCmrL9X6slAwKKKK5LI9gKKKKYBRRRQAUUUUAFFFFABRRRQAUUUUAFFFFABRRRQAUUUUAFFFFABRRRQAUUUUAFFFFABRRRQAUUUUAFFFFABRRRQAUUUUAFFFFABRRRQAUUUUAFFFFABRRRQAUUUUAFFFFABRRRQAUUUUAFFFFABRRRQAUUUjNtoASQZWvgT/gt/wDtfN8Kvhdb/DfQ59uteNIi2pSK3zWunq2CuO3nNvQZ/hST2r7h8d+OLHwF4R1PWNSmW2sNKtnu7iVukcaKWY/gAfxr+fT9qn47X37TPx18ReNNQb5tUuS1tEOltbjCQx++I1AzxltzYBYgfr3g3wj/AGxm/wBarK9Kh7zvs5fZX36/I/I/Fvir+zcs+q0X+8q3Xouv+R5955LvydrHIB52+309B2FNZs02iv7ShTtsfx/Kbk7sKKKK0MwooooAKKKKACiiigAooooAKKKKACiiigAooooAKKKKACgUVt+Ffh/qHjGbbaxsqZ5kYfLjvivKzXPMDluFljcdUUKcd29Pz6hUqQguabsjGjTzHCjktwPrXZ+D/g1ea2Emvi1hC3Kh1+Z/oM13fhL4ZWPhWISMq3F4ODKRwvsBXRKS7/N/Kv488SPpMTqKWD4bi4w1TqS3fT3V282fKZhxEtaeF37md4e8Haf4WhK2cAjZhh3PLP8AU1qxDDCmkYNI8620bSSNtRAWJr+SczzfGZnXlicdUdScusnf/hvkfLVJ1K0rzd2zlvi3qyw6ctmGYNcDLBTjgHP8xXnNpotnCVZbaFXVtwYLyDnOa2PFGqNreqy3DNkZwg9B2FZqnZ7+3tVUans46OyPvMpr18HQ9lRm4rrZtH1B8AfGa+LvA8MLOPtmmp9mkT+9GMbXHvwBXcMm0V8t/BD4iN4H8bW8khZbO5PkzqD/AAHgH8Dg/hX1Ek/nxKy4KsMqQcgjsa/rbw24ijmWWQpVH79L3WvyZ+Z8SYB0cQ6vSTv82VdR0W11ZcTxK/v3rnNW+GbFJJLKTKrzsYdPxrraPy/EV+i8qPn41ZI8tvdIuNOOJo3jPuKr+XXrLQpO2JEWZfSQbqyNW8B6fffNHGbdz3U8flScex1RxHdHnvl0eXXSaj8OLu2TdbyR3K/3c7XH4VgXNrNZSbZonib3FL1NoyuReXQUwKdmkf7tIu4yiiigYUUUUAFFFFABRRRQAUUUUAFFFGMijmsK4UDr0ZtvOFGScc1Ja2kl9cLDCjSSOcBR1NfYP7Dn7BX/AAltxa+KPF8DSaZGRJZ2Mq4W46/M65+Ze4B68V5Wb5rSwFB1qj9EfW8G8H5hxHmEcDgIXbau+iXVtj/+Cfn7DcniK9tfHHi61lWxQebplhMPlmyciZ1/u9NoPXG7A4r71tbT7OFVW2xxjCj2/wA/561FaWS2kSRr8qoNoH+f8/rVuIZAr8KzjNquPrutVfouiP8ASrgLgbA8MZdDB4Ja7yl1b638uwvle1LGuDTxRXk7n3NgooooGFFFFABRRRQAUUUUAFFFFABRRRQAUUUUAFFFFABRRRQAUUUUAFFFFABRRRQAUUUUAFFFFABRRRQAUUUUAFFFFABRRRQAUUUUAFFFFABRRRQAUUUUAFFFFABRRRQAUUUUAFFFFABRRRQAUUUUAFFFFABRRRQAU2ZsLTqhv7hbW1aR/urz179qFq7Ezdots+B/+C637Tb/AA9+DFh8PdMumh1TxszPdmNhvisosbh7b5Cg7ZCyCvyTmO6Ut36fQele4f8ABQ/9oFf2kf2q/FWvQzebplnctpGlbTlDbWzFN6/7LtmRfaQ/WvDRX94eFvDf9j5BTpyjadS0pd7vVfctD+I/ETiJ5pnFWcX7kfdXouv3hRRRX6Nsfn+wUUUVJIUUUUAFFFFABRRRQAUUUUAFFFFABRRRQAUUUUAtQAzUkFrJdTrHGjPIxwAB1q54c8PXXiK+WC1haRmPX+FR15PavZPBXw9tvDViskmy4uiOXI4T2Ar8k8S/F7KeE8NaclUrvaC1fztsjgzDM6WEjeWrOT8D/Bhnxcap5iqpysLDr/nrXo1tbR2sSxRxpHGowqqMAVP0PPNKDzX+e3HHiLnXE2KeIx1R8nSC+GK9D4DMMyq4ufvP3eiGqdooHWnFMmgLhq+BU1axyRtawY3msD4g6sun6BJHn95cfKvtzkmt8rg+2a85+I+qjUddaNG3R242itqK5noejleH9pWu9kcyZ+Ov6UNJk9ajL4NCHLV2W0PsiaOQxSqwr6R/Z2+If/CYeFjYzH/StNUDk8tHnA/LpXzYTitz4e+NZvAXim11CMnbG+2Rc/eU8H9DX3XA3EryjM1U+xOyf+Z5Ob5esTQcUteh9ddvfrj29fzoqtper2+u2cN5av5lvcr5kf8Au9/yOBVmv7Cw9aFekqtJ3Vl+J+Tyg4JwnumAODTi+RTaK0M76h+X4io57SK5jZZE8wN18z5qkooK5mY2oeBrG8HyJ5LdtvQfhWNf/DSdcfZ545d394bcfWuyoVN7YyR9KXKaRrST1PNb/wAI6hpqbpLeTZ3YDIrPkhaN9rAg+hr15bbaPvE+5qvdWENxuWSKOQHruXrT5Eb/AFhnk/SivSbjwdp1yWLWsa7v7vGKqXHw+sWB2NcR+gV/lH4Vm4voX9YicDRXZTfDWNydt3IvpuXdj9aj/wCFZHteZ/7Y/wD2VHKx+3j3ORorrR8MpAfmusD18r/69Pj+GcYfL3Rb1xHj+tPlYvrEUcfRuVfvHFd3bfDuwR18wzSY6jfgGtGy8M2Ng26O2h3erJmhIf1iJ5/YeH7zUivl27tvPB7fnXRad8NZCFkuJOnJjQcn8c//AK66+LajfN8q/wCwvT8K92/ZD/ZXuvi7q8eta3C0Xhu1kzGjLg3rKSCOvKgjk9+nqR52Z5lRwFJ16z07dz6Pg/hXMuJswhl+AjrJ6vtHq32H/sYfsax+Mr231/VLZLfQI23QQEZ+246MemF3c+5HpzX3Fp2mR6bbRwQqscUK7VVRxijTtGi0myjt7eNY4YVCIijaqgdgOwq0q4PWvwfOs3q5hXdSWkei7H+l/h34dZdwnl8cJhfem/jm95P/ACXYBCp7VIi4pVGKMYWvHP0QUHmim7gvSkT71FguPooooGFFFFABRRRQAUUUUAFFFFABRRRQAUUUUAFFFFABRRRQAUUUUAFFFFABRRRQAUUUUAFFFFABRRRQAUUUUAFFFFABRRRQAUUUUAFFFFABRRRQAUUUUAFFFFABRRRQAUUUUAFFFFABRRRQAUUUUAFFFFABRRRQAjttFfP3/BTL4/t+z3+xv4w1a2uPsup3dsNN091bEiz3B8sMv+0ql3H+5X0BMu+M1+WP/BwB8bv7Q8Y+D/h5ayHy9Ot31y/UcqWdjFCM9mAEpx3Eg9OfsOAcl/tXPsPhGrrm5n6R1d/Xb5nxfiBnX9l5HWxK3tyr1lp+tz844tzRLuDKQoAVv4R2H0AwB7UUHrRX+gsVyx5UfwzWqupLmYUUUUjEKKKKACiiigAooooAKKKKACiiigAooooAKBRRTiruzKiruwVveCvAVz4zv1jjzHHnLuRwg9Pr7VZ+Hnw+m8XX25t0VpH9+Tbn8B/tfy617LpWkw6Jp8Vpbr5dvCOFB+8e7H1PvX83eM/jVR4fpTy3LXzYh6Nr7F+/n2PGzjNoYePJT+Ii8P8AhS08J2ht7VFGOGdT9/6/jV9X2dqaTmj7xr/P/NMyr4/ESxWKm5zk7tt3Pg61aVSXNN6skE2f4f1oZuKaG200nJrzfeZhYd5lBfIptKv3v5+wo5UElpoVdZvxpelXFwx2+WmQfQ9B+teSXt01zPJI3LScmu4+Kur+VZw2at/rPncfjxXByHKV2UY9T6vJ6KhT55bsrk5NORsU0jFFdR7ZIsmTR5u/jbUdOjODU7aoW2p7Z+yv8S2tmbw9dSfuZWMlqSejd1/Svcn4T8a+KbK9ksJo5onZJI2DKwOMEcivqr4QfEOP4j+E45mkT7ZaqqXCscfNgDcP5Yr+lPCXi5Yij/ZOIlacV7vmup8BxRlvJL63BaPf/M6iijGO6n6Giv2o+LCiiigApUba2aSigCTz/b9aPP8Ab9ajoquYd2OMuT0oL5FNoqRBRRRQAUUUU9w3Cj/I+v8AnvR/kAdWPoPc9B7mvaP2T/2U5/jhrC6lq8b2/hm1f585DX7g8xr/ALIIwzDuCo5yV83Ms0oYGjKtWe3TufVcH8KZhxDmMMtwMLyn16RXVvsvX5En7Jv7KVx8Z9Xg1bVlNv4bt5OMg5v3XOUU8fKGHLd8YHcr94aJo8GhabDaW0SQ29uoRERdqqAMAAVFo2iW3h7Trezs4Y7e1tUEcUUahVRQMAADoB6VfQnC/rX4PnueV8zrc9R+6tl2P9NPDjw5y/hPL1QwyvUaXPN7yf8AkiQJkU4DApE+7SFMmvEP0lDgeaAcim52UB8CgLisu6mp96nLzzSgYFAWCiiigYUUUUAFFFFABRRRQAUUUUAFFFFABRRRQAUUUUAFFFFABRRRQAUUUUAFFFFABRRRQAUUUUAFFFFABRRRQAUUUUAFFFFABRRRQAUUUUAFFFFABRRRQAUUUUAFFFFABRRRQAUUUUAFFFFABRRRQAUUUUAFFFIzbaAGXcnlW7NX8+X7dHxePx1/az8deJFm8yzn1OW2s8HK+RAVgiK+gaNFOPWv26/bV+Mf/Ci/2V/HHijzhbzabpMxt5D/AAzuPLh/8iOg/Gv58JEbb8zbm71/SH0fMmc8RiczktIpRT8203+Fj+dvHbOOWNDL4ve8mvwX6kNFFFf1I5H81asKKKKCQooooAKKKKACiiigAooooAKKKKACiiiizeiAK6H4e+Crjxhqu2NT5UXMjY/h9vf+XWsrQtFn8Q6pDaW67pJjj6Dua958K+F4fCeiw2sO1yqgyPj77Hv7emPavwfxu8U4cL5YsPhn/tFW6j3iu7/Q8vOswWEpcq+JlrT9It9DtI7W1j8uGMAAZ/Mn39/SpieKTvRX+cOOxtbF4iWKrycpyd231bPzytKVSfPJ3CgHBoorlE1fcCcmgnAopH+7QAnmUq5lyo/iBBye2Of0zTKqa7f/ANmaRcT/APPNf/rVUdyqcW5JI888cat/bHiO4kUbYwdqgnOAOBWK/wAtTTSmeVnbqxzUMgzmu6noj7qjFRiosjJyaKCMUVodAUqnFJRQA4ycYrpvhP8AEW4+G/iuK8j3NCWxNGDwyHg1y9OhOGrrwOPq4KssTRdpRaf3amOIowq03TqK6Z9paPrlr4l0qK+smVre4/epgYwMYI/A1Yr5x+AnxjfwXqy6bfuzaTdvgEdbZj3x3GevTGSeelfRwO5QysrKwypU5DDsR7e9f2HwbxTTzrAxq6KokuZfqflOc5TPB1rLWL2YUUUV9ceOFFFFABRRRQAUUUUAFFFFABQBz39gOrH0HuenPH0o/wA4HU/T3r2L9lP9ly8+OOvfbdQ8208O2r4eRWw14e8akdF7EjryB6jhzDMqOCpOtXdkvx8j6PhbhfG8Q4+GXZbHmnN/JLrfsSfsp/srXXxt1iLUdSSe28N28mHYZVr1h1RD1Cg8FxzkEDnkfe2g+HrXw5pNvY2UEVva2qCOKONQqoo6AAVDoHhu08MWEFnZQx29vbxrHEiLtVFAwAB+FaSNzX4Nn+eVczr+0n8K2XY/018MfDTAcIZcsPR96rJe/NrVvsvJAY89D09qFXmnBsU6vCP0+2twAwKKKKBjSmTR5dOooFZABgUm35s0tFAwooooAKKKKACiiigAooooAKKKKACiiigAooooAKKKKACiiigAooooAKKKKACiiigAooooAKKKKACiiigAooooAKKKKACiiigAooooAKKKKACiiigAooooAKKKKACiiigAooooAKKKKACiiigAooooAKKKKACmyH5adTXOBQB8H/8ABen4rN4V/Zl0bwvDKFk8WasDKn963t0Lt/5EaE1+RTHKj6AV9y/8F7/ib/wlX7Ufh/wysm638M6IJtv92e4kYuP+/ccJz718Mt8sYr+3/BjK/qnDFNyWtRuT87vT8Ej+LfFbMHjOIK2t1C0V5W3/ABuRkYNFOKZNIVxX6pyo/M+YSiiimSFFFFABRRRQAUUUUAFFFFABRRRQAUAbjRWx4E0FvEXia3twuY87nPtXm5xmVLLcDUx9d2jTTb+SuFSoqcHN7JXPRvg34L/sjSl1CcfvroZjBH3F/wDr13XSOoIrZIYQqDaqgKMegp+3aK/yf424sxHEGbVcxxLbdRuyf2V0SPzHG4yWJrSqv0CiiivkdjkjJLQKKKKBhQRkUUUBewix89a5r4p6x9j8Px2qnmdvmH05rp14Ned/Fi8abWUi3ZWJQAPTPP8AWqoq87HflNL2uJu9kcsZ8Hp+tDt3pm3ApS+RXopWPs+VDScmiiimUFFFFABTkPzU2nRDLUASglT1+te1fs9/G3yVj0HVbh/L+7ayyN8qDsn514oDxSxymKQMpwV5BHavb4X4ir5NjliqV/NdGuxw47AU8VSdKa/4c+1ZfkPy/Mvf1B+np70A5FeN/Av45C7SPR9YmWOT7lvcM2PMH91j/L8K9jQ5Hf8AEV/YnD/EGFzfCqvhn6rqn2PyvMMsq4So4T27i0UUV7p5oUUUUAFFFFABjFB//UB1b0A9z0A9cUZz7+w6n6e9epfsy/s1ah8evEe9vMttBsnAu7pf4j18tD/eII57Dn+7u48dmFHB0nXrOyX4+R9Jwzw3jc9x8MuyyDlOb+5dW+iSJ/2Xv2Y7z47+IBPc77XQbNwLiYDmZh1jU+o7nnHvmvvrw14Vs/CejW+n2FvHb2trGI40QYVQKi8LeDrLwNolrp2nQR29paRiOONBgKAK1oz83WvwjiDPquZV+eWkeiP9LvCzwxy/hDL1RglKvJLnnbd9l5IkWHBpwixTqK+eP1XlQ3y6AmDTqKBhRRRQAUUUUAFFFFABRRRQAUUUUAFFFFABRRRQAUUUUAFFFFABRRRQAUUUUAFFFFABRRRQAUUUUAFFFFABRRRQAUUUUAFFFFABRRRQAUUUUAFFFFABRRRQAUUUUAFFFFABRRRQAUUUUAFFFFABRRRQAUUUUAFFFFABRRRQAUUUUAFR3LbYGPtUlYfxF8WweBvAuraxdcWul2kt1Kc9ERCzfoDWlOm5zUI7t2McRWjSpSqS2Sb+4/B3/gox8R/+Fpfts/EbUycrDq0mnx85wtsq23HHfyicds45614n/wAs6s69rc/iXW7vUrqXz7rUZnup5MY3yOxZzj/eJqt/yzr/AEcyHBRweW4fDR2jCK+5I/z9zvEPEY+tXbvzSb+9h5lBfIptFeoeOFFFFABRRRQAUUUUAFFFFABRRRQAUUUUb6AFej/AHS/Pur66Zf8AUxqin0yev6Y/GvOK9M+AWoqsV7bMMO22ReeoGQf1Nfj3jvUrf6m4uphk76LTtf3vwPPzdyWEnY9JAwuKGPNIPmFOzgV/l9o/fhrY/NIyWqQ2l3fLikoqnruOyTCiiigoKKKBQFr7hMQEG4bl9K8j8W3rX+uXEjf3yBXrGqTCDTZpG6JGzfpXjV0xlkZiMFmLY9M81th/iZ7nDtNpSmyCilK4pK7j6gKKKKACiiigApyNtam0UASebTi+ahpU+9Q9Q9CXzmjO5fvLyPavZvg5+0Y9p9m0nXXeS2+5DdM2TF7H1FeMK22l717vD/EWNyjFLEYWXquj9Tjx2CpYqDhVR9qRTx3MayQyLJG4yrDowp1fMPwx+M2o/D+ZYyftliTgwyvjZ/uHnafwr37wT8StJ8e2pNlcbbqNQZbaYbZU+gGdw9x2r+o+FOPsvziKpt8lW2sX38ntY/N8zyGrhbyjqjoKKByPT9f5Z/Wiv0DltZ2bPnoyV7MKP8j3NHY45ODj6/5/yelejfs5/s7an8fPEyxw+Za6Pbuv2q928EEZKJkYLkeoKgMpOcgHjx2Oo4OjKtWei+/0PoMh4dx2c4+GXYCHNOVttbX79iX9mv8AZz1H48+KwnzWmh2rbby7HUHHMSZGC+MHuAOSOVDfoH4I8Bad8PtBtNL0u3jtbKzQJHGo6Ae/U56knJJJOab4F8Aad8OvDVppOl28dtZ2abERf6k8knqScknk1txoCy/7Nfg3EGf1sxrcz0gtkf6W+FPhXg+D8uUElLEStzzt+C8l+ICH8aI4NtS0V81fU/WuVBRRRVFBRRRQAUUUUAFFFFABRRRQAUUUUAFFFFABRRRQAUUUUAFFFFABRRRQAUUUUAFFFFABRRRQAUUUUAFFFFABRRRQAUUUUAFFFFABRRRQAUUUUAFFFFABRRRQAUUUUAFFFFABRRRQAUUUUAFFFFABRRRQAUUUUAFFFFABRRRQAUUUUAFIzbaWgjIod+gDRJxXgf8AwU4+IB+HX7C/xHvuUM+ltp6MOf8Aj5ZbfP4eb09u1e9su0V8R/8ABd/x0fDv7H1lpsbfN4g122tnXPVESWbP4NEn5ivouDsGsVneFoSV06kbryTTZ8vxljfquS4mte1oP72rH457dq/d29AVznB5pf8AlnQ5/wAT70f8s6/0Tiko2R/Bsp3bG0UUUjEKKKKACiiigAooooAKKKKACiiigAoooHJo1ew1uKi7mx0r2v8AYX/ZZ8ZftRfGGPTPDI+x2diBLqerSxs1vYwHjbgY3SMQdsZKk9SQASMv9kD9kXxR+2F8VIfD/h+FobG32yarqcsZ+z6bCSRuJ7uQDtXgsQeytj9xv2aP2avDP7K/wqs/CfhWxS1tYAGuZzzNez4AaaRurO2OewAAGAAK/DfFvxAwmX4KeTUEqlWommnqop9X59vvP1nw/wDDaeey9tjrxw/X+95L9Wflj+0H+z7rv7OHjhtH1uNWjmZjZXijbFfIMYZQTkNz8y87SQMsCCeFPB5r9lPjt+z7ofx+8CXOia5CskcuGik6NDIPuup7Ee2MgkdDX5WftE/s267+zX47bRdWUzWshLWF+qkR3sXt1w44ypPHXoVLf5759ksqFaVeivck7u3R/wCR8D4s+D9bhys8fgk5YZ9d3H16nnwTmmng1M0e4cNxTGTapr5k/CE1L3o6jKKKKCwooooAy/HUjQeFLxh/cC/mwH9a8qmORu+n+Fek/FCXHhT6TKv14J/pXmrjeldOHR9RkkLYe/mQ0UpXFJXWe4FFFFABRRRQAUUUUAFAODRRQA7zKVZB6UyigCUzYH9KlstTmsZ0mhkkhkQ5Vkcqw+hFVacHwKKcpU5c9NtPyZEoJnp/g79p7XNF2w3vlapCBwZztkH/AAMY/UGu30/9rHSZomN3pmoQS/3Iiko/PK/yr57DdKXfsOa+3yvxCzrBx5FWbS2vY8jEZFhK0uaUFc911/8AaxhaJ49L0ubzGGElumACN67Rnp25HODXuX/BNL/gp+3wt8Qx+DvH00Z8PX87Cy1QKA2nSu5zHLgD5GY7gx+6WI+7gL8MrJuO6nf6x1U/xEKenIPB4OR+dcuaccZvj6inXndLpp+h9VwbmUuGswWPy+KUtL+a6pn9GemahHqlnHcQzJNDModGQhlYEZBBHGCKsoMNX5M/8E1v+CnFz8C7vTfBXji8luPCNw3l2V453vpLFtoRj1MXfnJXPBwNtfq5o+t2+uWMF1aTRXFvcIJIpI3DI6kZBBHUH1r3cDjo4mnzLc/vLg3jLBZ/gliMO7S+1F7p/wCXZl6iiiu2x9kFFFFMAooooAKKKKACiiigAooooAKKKKACiiigAooooAKKKKACiiigAooooAKKKKACiiigAooooAKKKKACiiigAooooAKKKKACiiigAooooAKKKKACiiigAooooAKKKKACiiigAooooAKKKKACiiigAooooAKKKKACiiigAooooAKKKKACiiigBswzHX5k/wDBw14r8uD4ZaEj/K5v76VfdfIRP/Q5Pyr9N3+5X47f8F7PFcmsftcaPpitmDSvDsDFc9Hee4JP/fOyv03wewvtuKqDe0eZ/g1+bPy/xexXseG6ses3Ffjc+HaXd8uKSiv7nloz+MbBRRRQSFFFFABRRRQAUUUUAFFFFABRRTo08xsdPf0ovbUENr1H9k39k/xN+158VbXwz4ftysfEuoX8qH7Pp8GcF2YHluyqCCxxjjJFf9lz9l/xN+1f8W7Xwr4Zt/MkZfNvrx0P2fT4OhkkYevRQDkkjp1H7jfsh/sjeFP2QfhTbeG/DNv8xxLf30mDcX8+AC7n8MBRwo4FfkPid4lUshofVMFJSxEl/wCAp9X+iP1jw78PKuc1lisSrUIvX+95L9Sz+yj+yx4X/ZL+Flj4X8Lwslvb/vLq5lw0+oTYw0srY5Y8cDAUKFUBRivThFuf60LH5dSIvev4xxmKq4mrKtXk5Sk7tvds/rzA4OjhaMcPRilGKskhJYvMj25x71wXx1+AWg/HjwJdaLrlvHNDKNySkYeBx910P8LD19z2Jrvx940xhuWuWdOM4uEtmLH4DD4yhLDYmKlCSs09j8bv2kP2cNd/Zj8ePo+rRtcWb5axvwP3V5F3PfEyjAZT2OQCCCfPy29D/D6E8bvpX7O/Gr4EaD8d/BlzouvWsd1bzYdCR88Ei8rIh/hZT39yOhIP5V/tPfsw6x+zF4zNjfYudLvGLWF+q/u7xevUZAkA6jjjpkEGvzvPMlnRn7WivdP4U8W/B/EZDUlmWXR5sNJ6pbx9fLseaBcmkYYNKPmTNKT8tfMn89czveI2iigdaDV7HL/Fg7dChX+9Nn8gR/WvPX4Ar0H4v/8AIHs/+up/rXn0v+rNdWH2ufXZP/uqRGXyKbRRXUesFFFFABRRRQAUUUUAFFFFABRRRQAUUUUAAODTg+TTaVPvUAPBoDkDpz2ppfBppOTUq97k6liJlU/dK9jg9a+yP+Cbn/BTG7/Z212z8HeNLiS88E3UipaXTks+js3HHrFnHy8bQcjuD8aRfKv1qWL7xz+FdmFxlTDz54s+g4b4hxuS4yOMwUrNNXXRrsz+i7Q/EVr4j0u3vbOaK4tbqNZYZYmDpKpGQwI4II5zWgDkV+P/APwTh/4KXXn7M+qweEfF1xc33ge5mCxTMGeTR2bq64yWi3HJTqvLDJyrfrZ4Y8T2fi3RbXUdPuLe8s7yMTQTwSCSOVGGVYMOCCMHjivvsDj4YmCcdz+4uC+NsFxDg1WoO018UXun/kalFND04HIr0D7S4UUUUAFFFFABRRRQAUUUUAFFFFABRRRQAUUUUAFFFFABRRRQAUUUUAFFFFABRRRQAUUUUAFFFFABRRRQAUUUUAFFFFABRRRQAUUUUAFFFFABRRRQAUUUUAFFFFABRRRQAUUUUAFFFFABRRRQAUUUUAFFFFABRRRQAUUUUAFFFFABRRRQBHOWaE7fvdhX4Xf8FefEv/CSf8FAvHA3s8dh9js4sn7u21iLAf8AAmb86/c+7UfZmz8wAzX8+P7cviP/AISv9sb4lXxO4N4hvYVPqscojU/kor9y8AsLz57Vrfyw/Nr/ACPw/wAdMRy5TSpLrO/3J/5nk5GDRTimTSFcV/YR/KFxKKKKBBRRRQAUUUUAFFFFABRRQBk/z9qAAbRncdoAJ/z/APXr0T9mL9mjxN+1R8U7Pwv4btd9xIFluriQEW9lD1aWQ/3QMDacFmZVwN2aqfs7/s7+JP2oviba+FPC9q019cMGllcHy7SEcmZ/RV4yDjLMi/xZH7i/sW/sc+F/2PfhjbaHodukl9cKsup37pia/mxy57qg5AXOBz1ZmZvyPxN8SqOQ4d4XCtSxElZL+X+8/wBEfqfh74f1s7rqtWXLSi02+/kv1LX7HX7Hvhj9kD4VW/h/w/CXuZD52oahKMz6jMRy7n26KvRRx717AkO2miLD1NX8Y47GVsZXliMTJylJ3bfc/sHA5fRwdGNCgkoxVtBvl04DAoorlOywAYNN8unUUARywebGVz1rkPi/8F9F+MXgi80XWrWO6tboDlkBaNh0Zf7pXqCOnvXZ02QZWplFSTjLZnLjMHRxVCWHrxUoyVmnsz8g/wBqL9k/XP2YfGH2W8ia70G5b/QNSVc+eBztkPQOBnr1xxXlMz4Yr/D2boD3A+uOfpX7T/F34V6L8ZvBd5oOv2sd1p92m1lYcqexB7EHkGvyy/ay/ZP1j9mXxiI5BPfeHr6Qrp+oEZz6RSHtIB07FVJyDxX57nWRuhJ1aWqP4V8YPB+tkeIlmeVwc8NLddYP/LszyEUdql8nK/e6Eg8dxxj60x02V8rGakfzxGUXdr0OV+Li7tEtT/dl/mDXnsv+rNemfEqE3HhZtv8AAyu3tzj+teZy8x12Yfax9fkslLDpLoQ0UUV1HsBRRRQAUUUUAFFFFABRRRQAUUUUAFFFFABQDg0UUABOTTg+BTaKAHGXI6U5Zst6VHRR5ha5N9q2nsw9CK+sP+Cc3/BSm+/ZY1u18M+JvO1DwFdS4ByXl0RmYkyoMEtFk5dO3zOvOVb5Jp0JxIOvoceneujC4qpQnzwZ7fD+fYzJ8ZHGYKfLJb9muzP6LvCXi6x8a6BZ6ppt1a3tjfxLNBPbyiWOVGGVZWHBBGDkcVsAYFfjP/wTw/4KPal+yjr9v4f19ptQ8A3cvzR8tJozMSTJFj/llk5aP/eZcElW/YDwP460z4ieGrPWNIvLe/06/jE0E8Dh45VPIIIr9AwGPhiYXW5/bvA3HWC4hwqnS92rFe9F7rzXdGxRRRXoH3gUUUUAFFFFABRRRQAUUUUAFFFFABRRRQAUUUUAFFFFABRRRQAUUUUAFFFFABRRRQAUUUUAFFFFABRRRQAUUUUAFFFFABRRRQAUUUUAFFFFABRRRQAUUUUAFFFFABRRRQAUUUUAFFFFABRRRQAUUUUAFFFFABRRRQAUUUUAFNcZFOooAq3x2WMp9ENfzefE/wARr4u+KHiLVFfzF1LUbm4VvXfOzf1r+i/4ma7/AMI34A1rUN2z7FYzT5/u7Y2Of0r+bOXHnyYXapckD05r+lPo8Yd+1xmI8oL7+Y/nXx6rLkw1Jf3n+QF8Gmk5NFKVxX9QH80iUUUUAFFFFABRRRQAUUUKNzKv94gZJ6UDSu7Ao3MB0ycZPQe59q7j4A/s9eJP2lPiXp/hbwxZtdX987bpOkdpGv3ppD2VMrkHqWRf4qh+BXwK8S/tFfEXTfC/hOze81fUWyBjCW0IxvmkboqpnnvnbjOQa/b79hb9h7w3+xb8MF0vTUW917UFWXVtVkT99eSckKP7sSZIRB6ljl2dm/K/EvxGocPYb6vh7SxElov5V3f6Lqfp/h74f188xSqVly0YvV9/JE37Ev7F3hv9jf4bQ6Po8YuNWvdsmr6nIv77UJApwOckRIWbYuTt3HqzOze3pFhv880iw7TUiHmv4pxmOrYyvLE4mTlOTu2z+xMvwGHwWHhhaEVGMVZWHBMGnUA5orlOwKKKKACiiigAoYbqKKAI5YfMHpXLfFf4R6P8XPBF9out2kN5Y3ibZEdM49x3BHbHIrrajuV3wsp7+o4/H2qZRUlZnPisLRxFKVGuuaMlZp9j8j/2vP2TNc/Zg8Yqsq3GpeG784sNTxnGORDL6SKucHnzByuSGC+QsN8f1/T2+v6HqCecftN8Svh1pfxQ8HX2h6zaw6hp97GY5IZVO1l/PIbIyGHIIBFfl3+2H+yDq37MXjP71zqHhm+cixv2XPl4H+pkI6Oqg44+dR8oyHUfA59kPs37bD7dUfwz4xeDtXJ6s82ymDlh5O8kt4P9UeG+K7L7Z4cu4lO0mMnOPTn+lePt90V7dIhaMqv8Xygnvnt+Rz6emetePeI9NbSdYuIW/wCehI+ma+cw71sfi+RVYKE6S3M4pk00jBpxfBppOTXWfQK4UUUUFBRRRQAUUUUAFFFFABRRRQAUUUUAFFFFABRRRQAUUUUAFORttNoo2AkE2D6/jivpz/gnp/wUV1T9kbxZb6TrBuNS8B3kn+kWoy76a7HmaEYOFGfmQdRk5z1+X6VeDXRh8VUoT9pBnsZDnmLyjFxxmDk4yi/vXZ+TP6KvAHxD0v4neFLPWtFvLa/07UIxLBPBIHSRT0IP8/Q5FboHvX4l/sAf8FC9Z/Y88XxWN+bjVPA19IBeWIO5rJmPM0H93Gcsn3SMng4I/ZD4Z/E3Rvi54Nsde0G/t9S0vUo/NgnhbcrD+YIIIIPIIIPIr77L8wjiYJ9ex/bfAfH2E4iwalH3a0fij+q7o6SikTpS16R+ghRRRQAUUUUAFFFFABRRRQAUUUUAFFFFABRRRQAUUUUAFFFFABRRRQAUUUUAFFFFABRRRQAUUUUAFFFFABRRRQAUUUUAFFFFABRRRQAUUUUAFFFFABRRRQAUUUUAFFFFABRRRQAUUUUAFFFFABRRRQAUUUUAFFFFABRRQ3SgDyn9trVjof7I3xMvA2xofDGokH0P2aTH61/Pbcff3Y+8x/kD/Wv3s/4Kbar/AGN+wx8Rps7WbSnhH1kZY/8A2avwRZAFXB3DGAfoAP61/Vf0esK/qWKrdHJL7lf9T+XfHas3mFGj0Ub/AHt/5DacXyKbRX9En4EFFFFAgooooAKKKArMyqo3FiB1/wA/rQOKu7ABn+ldX8Fvg14g+PfxJ03wr4ZsZL7VtSbaq4+SJedzyEZ2ooByT6Ywehj+E/wh1743fEDS/DPhexl1TWNWmMUMSKRgDO6Rjj5UXBLE9AOeSAf21/YG/YL0P9jfwDGA1vqfizUkzq+qeV80jdoY8k7IkORtHU8nHSvzHxI8R8Lw5hnRg1LESXuror9X5du7P0ngHgDE59iPaSXLRi9Zfoi5+wN+wz4d/Yy+Gi2tmVv/ABJqirJq2qun727cZIUE5IjTJCrn1JyWJPv3k/NTUg21Kn3q/iPMsyxGYYqeMxcnKcndtn9j5bluHwOGjhcMrRihRFgdaAmRTqK47He9QAwKKKKoAooooAKKKKACiiigApGXeKWigCJ7fdWB8RfhxpnxL8JX2javaQXljfxmOWKVchh/QjqCOQQD2rpKZcQi4hZD0YYNTKKluY4jD061J0aq5ovRp7H5M/tifsfar+zF4m82MXGoeFr59tnfn5jA3UQzf3SOoboQOMHcD8t/FfSPNuY7xVwrDy5CD/F1/Uc1+9vjb4f6X458J3mjapaw3mn3sXkzQyruV1P+cg9jzX5Z/t2/sLal8A7q6nslk1DwnfHFtct8z2cmcrE/oOwboehwevwudZJOm3iKG3VH8U+KnhHPJMV/bOVRboS+NfyX7d1+R8Utb4H9ajKbe9Xrm1aznaN/vIcEd8/4dvy7HNQyV4XNpqrH5NfTyKtFO8umkYNMYUUUUAFFFFABRRRQAUUUUAFFFFABRRRQAUUUUAFFFFABRRRQAUqnFJRQA9H2PnnHtxX0T+wT/wAFA9a/Y78axw3C3GqeC76T/T9N38wf9NoM8Kw4yOAwyD/CV+c6dH1/zkfT3rahiZ0J+0gz1clzrF5Vi443Bz5Zx/rVdj+iD4U/FfRfjJ4H0/xDoF7Df6XqUQlgljP3h6EHkMDkFSAQQQQCDXTA5Ffh7+wZ+3hrX7HHjtcrcar4P1CTOp6X5n+rPTz4c8I4HUcK4GDjCsv7MfCj4waF8aPA2n+IvDt/b6lpWpRiSGaJuvqCDyrA5BBwQQQcGvvstzKGJhfqf234f8f4XiLCpO0a8V70Xv6ryZ1VFMEmRT69Q/RAooooAKKKKACiiigAooooAKKKKACiiigAooooAKKKKACiiigAooooAKKKKACiiigAooooAKKKKACiiigAooooAKKKKACiiigAooooAKKKKACiiigAooooAKKKKACiiigAooooAKKKKACiiigAooooAKKKKACkf7tLQTgUAfLv/BY3Uv7P/wCCfHj3DFWl+wRLjuTfW+R+Wa/DcLshUegxX7Tf8FutR/s/9hnWI93/AB/anYxY9cSh8f8Ajma/Ft/u1/YX0f6XLkNep3qP8on8m+OFTmzmnF9IL82R0UUV+4Pc/E1sFFFFUSFFFAGT/wDWo1voNCopd1UDJY4AHU+w9/at/wCGPws1z4y+OdL8N+HbCTUtW1pgtvCg6qTguxwQqKMlmOQApOCNu5vw5+G2r/Fnxnpvh3QLGXVNY1aYW8FtHzuY5wSRkBQAzFiCAqk/N0P7Xf8ABO3/AIJ76H+xh4I+13Xkap461mNTqupheI/+neLPIjU9e7sMt0UL+aeI/iBh+HMJ7Om1KvJPlX6vyXTuz9H4B4DxGfYm8ly0ov3pfovUtf8ABPP/AIJ96D+xl8P/ADGMepeMNUQNqmp4ztP/ADwhzykK+mcsRuJ6AfSHlZIxx6CmqDu69alT71fxFmeaYnMMTPGYyXNOTu2/6/4Y/sbLMrw+Aw0cJhY8sUKseBQEwadRXDY9G1goooqhhRRRQAUUUUAFFFFABRRRQAUUUUAFFFFACOu5axPGvgTT/Hnh660vU7eG6s7xDHLHIm4MDwR/nvW5QRkUmk1ZmOIw9OvB0qsU4vRpn48/8FIv+CfF9+zprM/ifQ7ea+8JzOPMkVSzaaTwPM/2eg3dh245+RZWKH5lxkApn+L/AOv7egNf0V+KPC1j4u0O803UraG8sb6JoZ4ZVDJIjDBBB4IIPSvyM/4KNf8ABN2+/Zn1afxJ4RhudQ8DzuTNCiF20VjyA5/548gKeq5weua+NzfJXF+1o7dj+TPE7wmqZdKWY5SnKjLWUesX5eR8himP96p9uEzUchyK+YjvZn4EtyOiiiqKCiiigAooooAKKKKACiiigAooooAKKKKACiiigAooooAKKKKAClU4pKKAJI5vLx617x+wx+3fr37G/j0yRifUvCepShtS0oSYGcbfOizwsoAX0DAbTj5WTwOnRHDVrh8RKhP2lPc9TKM3xOW4qOLwkuWcXuvyP6E/gt8a/D/x18A6f4i8N6hDqGnaggdWQ8oe6sOqsDwQeQRiuwSUNX4WfsT/ALbPiP8AY88ffa7HztU8O6g6jU9JaTCyqM5kjJ4WQA9eA2MMehX9m/gR8dvDf7Qnw/sfEnhi/hvtPvlyNp+aJ/4o3H8Lqcgg/XkHNfoGW5lDFU7t+92P7U8O/ELDcQ4dU5WjXivej3815dzu6KjEuGC1IDkV6Z+mBRRRQAUUUUAFFFFABRRRQAUUUUAFFFFABRRRQAUUUUAFFFFABRRRQAUUUUAFFFFABRRRQAUUUUAFFFFABRRRQAUUUUAFFFFABRRRQAUUUUAFFFFABRRRQAUUUUAFFFFABRRRQAUUUUAFFFFABRRRQAUj/dpaDzQB8Of8F6dUaz/Y+02Dot14ltY+vXEFw3/stfjy/wB2v1v/AODga98v9mLwlDt/1nieN856bbW5H/s36V+R7HKV/ZngRDl4ck31m/0R/IPjPU5s+cW/hjH/AD/UbRRRX7NE/H5BRRQBuPYematXb0FEK2PAXgLVvih4x07w/oNjNqWr6tMLe1tolO52PfpgKoBJY8AKeuMUzwX4J1b4i+LNP0LQrG61LWNUmW3tbaBT5jyHtnGBjrnoACfav2j/AOCbn/BOXR/2PfCiapq62uqePdUi/wBMvAny6ehwTbQ9SFH8R/ibJ4HFfnXiF4gYPhzCct+avK/LG/4vyR9/wPwLis/xKcValFrml09PVlj/AIJyf8E69G/Y58GLqWpLa6r481aEDUNREeBbqTuNvDn7sYPJPVyMngKq/UgTLHttpqxbZ6mAya/h3NM2xWZ4qeMxr5pye/8Al2Xkf2VlOTYXLcLHCYRWjFff6gsdOCYNKvHFICCfeuCx6uw6iiimMKKKKACiiigAooooAKKKKACiiigAooooAKKKKACiiigBrrms/wAQeHrXxBpNxaXtvDdWtyhjlilTckikYII7gitKmydKLX0ZFSnGcXGauux+UP8AwUN/4JV6j8Kbm+8X/DmzkvvDbMZ73SY23S6WpOWaIAHdCOTsHK9egr4fMKtHuBbDDOCuP/rfrn1Ar+jK7t0uVKsN0Z4I9R6V8U/tzf8ABI7RfjO954m8A/Z/D3iZsySWWCtjfsTliVUfu5D/AHlGGI+YZ+cfL5pkTmnUovXt3P5r8RvB11HLMslXnKC/9tPyfMO7vTXj2103xP8AhZ4g+CvjCbQfFWk3miarCxHk3C4EoH8UbDiRePvpuU+vBxzsifu8n+f+f8a+RqU505ctRWZ/NGKwtbDVXRrxcZLo9GQ0UEYoqTEKKKKACiiigAooooAKKKKACiiigAooooAKKKKACiiigAooooAKcjbTTaKAJPO4r179jj9sjxF+yD8R11TS2+2aLeOv9q6ZLJthuoxnLA9EcD+PB6YzjNeO0+IBXViobac4IrTD1pUJ+0puzPQyvM8Rl+Jhi8LJxnF6NH9Af7Pf7Q3hn9o74eWviPwzqEd5Z3BKyIWxNbSdWikTqrrkcHqCCCQQT6AknAr8F/2RP2ufEn7InxKh1rR5XutNkCx6pprsfLvoVJOPZ1ySrYOOR0Zs/tJ+zZ+0b4a/aZ+G1l4k8N3wure4/wBbC5AnspMAmGVequu4cdxhgSCCfvsrzSGKhy7SR/anh34jYbiHD+zqWjXitY9/NHo1FRfaMPjG7nHHOPrUoORXrH6gFFFFABRRRQAUUUUAFFFFABRRRQAUUUUAFFFFABRRRQAUUUUAFFFFABRRRQAUUUUAFFFFABRRRQAUUUUAFFFFABRRRQAUUUUAFFFFABRRRQAUUUUAFFFFABRRRQAUUUUAFFFFABRRRQAUUUUAFB5FFB5oYH53/wDBwjc/8WX8Bw4+9rcrZz0xA3/xX6V+UpGEr9SP+Dhqby/BHw2T+/f3jflHF/ia/LgnKV/bXgjBLhej5yn/AOlM/jbxdqX4irLso/khlAoor9Zloz8sjvYVRn/PStHwh4S1Lx14msdH0eyutS1TUZRBa21um6Sdz0VffvnoBzntUfhvw9qHi3X7PS9LsbnUtSv5VgtrW3jMks0jHAVQP4s9PTrX7Jf8Exf+Call+yj4eh8TeJo7S++IGpRfvdo3R6OhzmCI5I3c/Ow6ncBxyfz/AI+4/wAJw7g+aWtaS9yPVvu+yR93wXwPic9xfJFWpRtzS6Ly9WWv+CZP/BOHTP2R/DP/AAkOuRWeofEDVrfZc3KncunR5ybaH2B+83cjHQV9bRWoWTdn8PX/AOv/AEp6wbWqUDAr+HM6zbFZrjJYzGy5pyf3enZeR/ZOTZPhsrwscHhFaMV977vuCQjOacEwaVPu0teeeugAwaAMCml8GgEE+9Ax1FFFABRRRQAUUUUAFFFFABRRRQAUUUUAFFFFABRRRQAUUUUAFIwzS0UAM8rFMnh3Cpqa7dqBbbHnPx5/Zp8I/tIeDZtF8V6Ra6jbsP3TsuJrZv78bj5lbgcj0wcjivzN/av/AOCPXjL4SNdal4IaTxfoMYLi24XULVc90ACy8fxLhjj7nev12JwKrywLcj5h8p7V52MyyjiV7617nwnFnh7lWfrmxMLT6SWj/wCD8z+cu80q4026kt7qJrW6hYpJBKCskZHYgjIb/ZPI9Kj8kAZz/n/PpX7uftF/sMfDf9puxk/4SXw9byajtCx6jbH7PeR46fvF5YDqFbcoPOM18C/tE/8ABEvxl4HNzfeAdVh8WWMZLfYbsiC+VO2GP7uR+5OY8gHAJwD8pishr0XeHvI/mrijwZzjLm6uDXtoeW/3dfkfDYj96DHhc1t+MvAGt/DjWpNN8QaTqWh6hGSpt762aGTI64DDke65HTtWOwyp/wAQa8WpFwdp6H5FiMPVoS5K0XF9mrEVFFFSYhRRRQAUUUUAFFFFABRRRQAUUUUAFFFFABRRRQAUUUUAFLnikooAmguPJIbG7rXp37Jn7Wfib9kv4lx65ocn2ixuNseo6ZKWMF9EGJOQOkgBIV8EjJ6gkHyupIPlcNWlGtKjJTg9Tuy3Ma+BxMcVhpcsotNNeR+/H7MX7TPhv9qP4a2fiLw7dedHMALm3fCzWUuMtFIueGXI56MCGBKkE+jrNh8V+Bn7Lv7VPib9kv4mw+IvDc7tFKUj1HT3c/Z9QiDZ2sP7wydr8lcnHDMD+0X7Lf7VHhf9q34fW3iDw7cqd3yXlnIcXFjL3jkXse+e45r77K80hi42ekkf2h4c+JOGz7DKhWfLXjutr+a/U9WByKKbu49KdXrH6sFFFFABRRRQAUUUUAFFFFABRRRQAUUUUAFFFFABRRRQAUUUUAFFFFABRRRQAUUUUAFFFFABRRRQAUUUUAFFFFABRRRQAUUUUAFFFFABRRRQAUUUUAFFFFABRRRQAUUUUAFFFFABRRRQAUHpRTZDhaAeiPzN/wCDimbEfwmhx99tVkznpj7IP/Zv0r8ytvy4r9K/+DiiXzdU+Esf92PVmz9TZ/4V+aqjFf3F4Lx/4xTDW7z/APS2fxf4tSvxNXX+H/0lCLHk1Z0TQL3xNrlrpum2d1qGoX0qwW9tbRGSa4djgIqjksTwAOc07SNJudc1W2s7K3uLu7upVhggijLy3EpI2xoo5ZjwMetfr1/wS6/4JlQ/s4afb+NPGdvHdeO76PMMJbzI9DibcfLXnBkOTuceu0cfMfX4844wvDmC9pWs6kk+SN9W+78l1Z5HBfBuJz3HKjSXuRs5S6Jevcvf8EwP+CaNr+y5o9v4p8Ux297481OE7xlZI9FjIIEMbcgvjId14JyBkDcfsuOxWGT5T8q9Bk/5/wA/TCxQ+V8v9KnT71fw1nWeYvNcXLG453m39y8uyP7PyXI8LlWEjg8KrRW/m+7FVOKAmDTqK8k9gKKKKoBpTJoCYNOooCwUUUUAFFFFABRRRQAUUUUAFFFFABRRRQAUUUUAFFFFABRRRQAUUUUAFNKZNOooAb5dHl06igLDTHmo5Lbcfb6VNRQS4pnJ/Er4IeF/jFo39n+J9C0rXLTBAS8tll257qSPlPuOeBXyD8d/+CG3gXxfFNdeC9Y1DwjdYwkD7r+1xnONrsJB/wB94Gfu8AV91U2Vd61y18DQrfxInzuecI5Tm0WsdQjJ99n961PxX+MP/BIv4yfChZbi30a38VWMZJ87SJt8gX1MUmxyfZA35ZNfOvirwXq3gbW20/WtL1LSbpF3NBfWz20w/wCAOAfTn3r+i3yeMdvpWH4z+F3h/wCIelyWOuaPpuq2cnLQ3dskyE/RgRXiYjhym9aTsfj2ceAeAqXnl1ZwfaXvL79H+Z/O8tqw+8VVv7p60GHH8Vfsz8Uv+CPfwX+IcUhs9EuPCs8jbvM0a6e3RTnPER3QjPsgPPWvnD4o/wDBBrWrRppfB/jjT78HlLfVbRoWA/66xlgTjvsFeNW4fxcXeLVj8szbwU4jwnvUYqov7r/zsz89RFn2oMIAr6I+IH/BLD43/D4zNJ4RXVreE8zaZexXAI7EJlZD9Amfw5rxvxp8JPFHw2KjxF4c17QTIcJ/aGnS2wf/AHS6jP4ZrzamFrUl70X9x+e5hw3mmBdsXQlH1TObEX40eUMelOx6H9M0fh+ua55RZ48oNfEmNEIprx7amX8qjk5RjS16mcbN2RHRRRTKCiiigAooooAKKKKACiiigApyPtI9qbRQG5Ks2Pm2q3seR+Nei/sxftPeKP2XPiZb+IPDMx+bCXlnK37m+jzkq/pgdG/hxnnGK81qSDhs1pRrToy54PU7MvzCvgcRHFYaXLOLumj95P2RP2uPDv7WPw8j1rRLhVuI/kvrGRv39jL/AHHHv1B7gg166ku44r+fz9nL9ovxL+zH8ULXxN4ZvHt51xHc2zEmC+iz/qnX09D1U4PIGK/Z79j/APbA8N/tbfDaLWNFmVL61Ii1Gwdx51jLjoRwSpwcNjnGOoYL91lWbRxceWWkl+J/Zfhr4kYfPKKweIdq8Vr0T81/ke0UVHFLuqSvaP10KKKKACiiigAooooAKKKKACiiigAooooAKKKKACiiigAooooAKKKKACiiigAooooAKKKKACiiigAooooAKKKKACiiigAooooAKKKKACiiigAooooAKKKKACiiigAooooAKKKKACmTnCU+mynigmSurH5g/wDBw+udW+FLdW8rVBgDtmzyfzwMd81+btlp9xql7DbWdvPdXVzIsMEEKb5ZpWOFRV7ucgAepxkda/ev9uL9h3w/+3F8PrTSNYvLjSdQ0i4a60zUrdA8lpIVCtlSQHRgBlcjJUcjFeXfsPf8EhPC/wCyP4yPibVNcbxt4jhTyrO5msFtYbJeclI98nznJ+bd0PSv6O4G8V8ryPhf6lVTeIpuVo2dpXba12W5/PfGXhnmGb8R/W6X8GdryvtZJbbnN/8ABLD/AIJgW/wF02y8deNoYbrxpND/AKJat88eixtyVH/TY5O5h0yVHTNfcEViILncu1VVcbQvvn/P9OakRdrfLwKlT71fg+f8QY3OsbPG42V5N6dkuiXZH7Vw/wAP4TJ8HHB4RWS3fVvzF8ugJg06ivI63PcCiiimAUUUUAFFFFABRRRQAUUUUAFFFFABRRRQAUUUUAFFFFABRRRQAUUUUAFFFFABRRRQAUUUUAFFFFABRRRQAUEZFFFADSlGynUUCsNaLI9aTyvlp9FAyBrTc2agu9Bt9QiaOaKOSNxhlZAcir1FTKCaszOVGElaSujyLxv+wj8JfiCJP7S8A+GJJJjl5UsI4pWPqXQBv1ryDx1/wRZ+DPiiALp1rrnht1yQ1hqLsOeT8s3mAfgB1r68oIzWEsHQl8UUfP43hDJsW718NBvvyq/3n5x+Nf8AggJpsj7/AA78Qr6zjQEiO/01LlmPu0bR47/w15b4p/4IZ/EzTHb+ytf8KapGM/61p7eQ/RfLYf8Aj1frY8e5aj8vD9fwriq5LhZ/Zt82fIY7wb4axOvsnB+Un/mfih4h/wCCSXx40Jn8vwfDqKqeHtdUtdrf99yK36Vwnin9hb4weDR/p3w48WsF6m0sTeKPxiLZ/Cv3rEe5/rUU9orMflX8q45cOUG9Gz5jFeAWTTf7mrOP3P8AQ/nh1/4T+KvCqs2p+GfEGmrH977Xp01vt+u9Rj8awAP8+lf0dSafbvF80MLfVBWH4g+F/hvxYrDVNC0nUA3/AD8WkcmP++ga56nDMb+7M8HEfR7h/wAucX98f+Cfzw7eP73+7zj60oT/ADkV+92p/sSfCTXyZLv4c+C5pG/jOjW+7/vrZn9a5PXv+CX3wP8AEBYzeA9NhLdfs0stv/6Lda55cM1PsyPDxH0f8zX8LEQfqmj8PdlATn/64r9nb/8A4I5fAe5RivhS4hZu8erXny/QGUisTWP+CJfwb1CPbbjxNp/93ydUZgPwdWrH/VzEd0ebU8B8/W04P5v/ACPx92Y9PzFGyv1en/4IO/C+ZG8nxF41h3cgC6tjt/EwE/rWVqP/AAQT8I+Y7WfjjxPFuH/LeOCVh+Kop/Kolw9iltY82t4J8TQfuwjL/t5H5aY5p3l461+k2pf8ECUly1r8TJoh287QxIfzEy1mzf8ABAbUAhMfxOt2PYHw+QD/AOTJqJZDi10Rwy8IOKI/8w//AJNH/M/OrFPThv8A61foFef8EE9ehVjD8RdMkPYPpDpn/wAims26/wCCD3jYBvs/jLw9N/d32kqZ+uM4/WsZZNjOkDln4UcTx3wz+9f5nwkBg/UYP06V3P7Pfx48Q/s5fEqy8SeGbr7Lexssc0R/1N7FwDC4zyp45PIIUknbX1NN/wAEJviOjYXxP4TI9T54P/oFWdI/4IR+Pp76OO98WeGbW1bIklhjnlkQeylVDfTcKuhlGOp1FUirWOjL/DnizC4mFehh5RlFpp3R+hP7J37QFr+0x8DNB8ZWNvLZxatEfMt5DkwyIzRyKD3AdWAOBkYOB0r06N8iuA/Zx+Aum/s4fCDQ/CGkySy2mjw+X5spzJO7Es7t7szM2O2413yfer76mpKC59+p/a2TxxMcFTWL/iWXN621H0UUVZ6QUUUUAFFFFABRRRQAUUUUAFFFFABRRRQAUUUUAFFFFABRRRQAUUUUAFFFFABRRRQAUUUUAFFFFABRRRQAUUUUAFFFFABRRRQAUUUUAFFFFABRRRQAUUUUAFFFFABRRRQAUjDcKWigCNYGDZ3ZoWIjq2akooB6u7G+XQEwadRRYAooooAKKKKACiiigAooooAKKKKACiiigAooooAKKKKACiiigAooooAKKKKACiiigAooooAKKKKACiiigAooooAKKKKACiiigAooooAKKKKACiiigAooooAKKKKACgjIoooAb5dATIp1FArDfLoCZFOooCw0pkUgTcKfRQHKiPyBThHinUUC5UNMfFNENSUU7lDBFg08jNFFIBvl80Bcd6dRQA3y/moCYNOooAKKKKACiiigAooooAKKKKACiiigAooooAKKKKACiiigAooooAKKKKACiiigAooooAKKKKACiiigAooooAKKKKACiiigAooooAKKKKACiiigAooooAKKKKACiiigAooooAKKKKACiiigAooooAKKKKACiiigAooooAKKKKACiiigAooooAKKKKACiiigAooooAKKKKACiiigAooooAKKKKACiiigAooooAKKKKACiiigAooooAKKKKACiiigAooooAKKKKACiiigAooooAKKKKACiiigAooooAKKKKACiiigAooooAKKKKACiiigAooooAKKKKACiiigAooooAKKKKACiiigAooooAKKKKACiiigAooooAKKKKACiiigAooooAKKKKACiiigAooooAKKKKACiiigAooooAKKKKACiiigAooooAKKKKACiiigAooooAKKKKACiiigAooooAKKKKACiiigAooooAKKKKACiiigAooooAKKKKACiiigAooooAKKKKACiiigAooooAKKKKACiiigAooooAKKKKACiiigAooooAKKKKACiiigAooooAKKKKACiiigAooooAKKKKACiiigAooooAKKKKACiiigAooooAKKKKACiiigAooooAKKKKACiiigAooooAKKKKACiiigAooooAKKKKACiiigAooooAKKKKACiiigAooooAKKKKACiiigAooooAKKKKACiiigAooooAKKKKACiiigAooooAKKKKACiiigAooooAKKKKACiiigAooooAKKKKACiiigAooooAKKKKACiiigAooooAKKKKACiiigAooooAKKKKACiiigAooooAKKKKACiiigAooooAKKKKACiiigAooooAKKKKACiiigAooooAKKKKACiiigAooooAKKKKACiiigAooooAKKKKACiiigAooooAKKKKACiiigAooooAKKKKACiiigAooooAKKKKACiiigAooooAKKKKACiiigAooooAKKKKACiiigAooooAKKKKACiiigAooooAKKKKACiiigAooooAKKKKACiiigAooooAKKKKACiiigAooooAKKKKACiiigAooooAKKKKACiiigAooooAKKKbI/loWod+gFHxb4t03wH4Zvta1m+ttN0rTIWuLq6uHCRwRqMszE9hXzFP8A8Fuv2YYJmj/4WdDIy8gw6HqUyMvZlZbcqyn1BrxL/g4j/aU/4QX9m/R/hvYTeXqHj69F1fxpy32G22sQw7BpjDz0/dMK/F1htby8p1HK8ru9ec/iBio5mgP6Uv2cv+CiPwa/a08T3Gi/D/xxp+uaxaR+dJYvbXFnceX/AHlSeNGYf7oPGTXtVfzB/sl/Hm8/Zq/aT8EeO7WRS3hzUoLidYmz51qzFbmMMeRujZ1x2355xg/01eGPEVr4r0Sz1KymjuLPUIEureVPuyxOoZGHsQQaIyA0qKKKsAooooAKKKKACiiigAooooAKKKKACiiigAooooAKKKKACiiigAooooAKKKKACiiigAooooAK8z/aw/au8L/sb/By/wDG3iz7bJptlLHbrBZIslzcyuQFRFZlBOCWOWGFUnnpXplfCP8AwcODd+wTCv8Ae8UWA/8AIVzQBzOnf8HJ3whu9Rhjm8F/ES3t5ZAjTmC1YRgnG4jzug6nHOM4BPB+/PAnjfT/AIj+DdJ8QaTOLnStbtIr+zmAI82GVA6NggHlSD+NfyvOPNcr0XB7A8fjX9LP/BP6LZ+wp8GPT/hB9F7k/wDLjD6kmpvrqB7BRRRVAFFFFABRRRQAUUUUAFFFFABRRRQAUUUUAFFFFABRRRQAUUUUAFFFFABRRRQAUUUUAFFFFABRRRQAUUUUAFFFFABRRRQAUUUUAFFFFABRRRQAUUUUAFFFFABRRRQAUUUUAFFFFABRRRQAUUUUAFFFFABRRRQAUUUUAFFFFABRRRQAUUUUAFFFFABRRRQAUUUUAFFFFABRRRQAUUUUAFFFFABTZm2RE43egz1p1eD/APBST9p1f2T/ANjzxp4phlWPVvsZ07Sjn5he3H7qEgdymWkxxkR44zkDA/Ff/grl+0237Tf7c3i7VbW6a48P+GZBoOkKH3KYbY/vHXgZWSbzZAfSRRz1qn/wT2/YL1D9t6/+IEFrJcxr4R8M3N9abG2rcag+RaQt6byjndzjyiMHqPm+UyTL/FJNI2GCHcS7DJx6chgPXK9MV+9X/BDb9mT/AIZ8/Yh0vVLy2ji17x5cHX7klPm+zuNlqqnP3fKAkHp5zeuaye+oI/BiW1a3k2uDG6gqwX5cMAAT+ZyenUetfvF/wQo/acb4+fsV6fot9Os+tfDu4bQp+fm+zBVe1Yj08tvLBHH7lulfl3/wWC/Zp/4Zn/bk8XWNtatb6D4rf/hItLK/dEd0XMiLjhQk63CgdlWM4xxXe/8ABBj9pr/hSf7a0Phu6mEej/EW2bSpEb7oulLSWrA+u4NEFPBM5OR0p9S2fu8DkUVDb3PnRK2Pve+R+B9KmByK0ICiiq2sahHpOmXF3LnyrWNpXx12gZOPfAoAs5or8m/E/wDwcxXUGu3kek/CGOSxjk/0ZrrXik8sYJG9l+z4UkAfLk43dTjn7o/Yh/by0P8Aa+/ZkHxGkso/C1rZTXNvqiXV6jW1i8OGLeewQeWyOrhmVcAkHaRih36Ae+VGZsSbcf5/z6Zr85f2p/8Ag4t8B/DfWLrRvht4bu/Ht5byNC2pXMpstODD+KMbTJMnUBsIrdVZh1+VNd/4OKfjxqV1J9n0n4c6XGT8kcGl3D7FznB33DAk9CcDqelTzW3A/cbzPmp4ORX4n+Cf+Dj74t6LqEJ8QeEvA+uWKuuYbWG4sZm7YD+a6856eWx9ATivvT9iX/gsv8Lf2xdTttBb7V4N8ZTnYuj6k4Zbl8ZCwTKAkh/2WCPx9yjmQ+U+vKKi+04lClfqdwwPb1//AFGpQciqEFFNkfy03bS3sKy/E/jjS/BOhXWq61fWek6XYxma5u7yZYYYEHVmZsADkdf7w7nFAGsxwKZ5nzV+cn7Tv/Bxb4A8B6jc6T8N/Dl148uISU/tO6lax0wsD/yz+RpJvyT1BIFfLfif/g4p+Oer3Er2WkfDrSYiNqrDYzPNjPGDJcMCR/uj6VPMgP3A8ymmfD7dv/jwr8PvD/8AwcWfHLS5o/tei/DnUo1xnzNNuImbHVtwnADkcZxj2r6b/Zw/4OO/A/jXVLfT/iZ4UvvBckjBP7V0+c6hp6n1kXasqDoMKJCSRRzID9Kgciisnwd450n4heH7HV9C1Cz1fSdThW5tL2zmWaC5iYcOjrkEH+h9K1qoAoopsj7EzQArNtFIJOK+ef2zP+CnHwt/YiRbPxVqk194juIxJb6Fpe24v5FPR3XcFiTpy7AkZIBwa/P34t/8HKPjbV7t4/A/w98MaPZqxAfXLibUpWx0OImhVTnnBLY96HfoB+xHmU4NmvwvP/Bwv8fkuPN+z+AWUrjyjo8uwn+9/rt3t1xXpHwk/wCDlXxnp97bx+Nvhz4Y1i3BCmTRbmewmUdMhZWmDN/sgrnpxmpv3A/Yiivnn9jz/gp58J/22oFt/CesSWfiFVJl0LVVW1v0wMsVXcVkUYOTGWwFOQMYr6BiuvNfbj8f8/5/DmqAlJwK+D/+Dh2Tb+wTb/8AY0WP/om6r7vf7tfB/wDwcPDP7BFt/wBjRY/+irqgD8Novvfgf5V/S5+wK/l/sI/BltrN/wAUNovAH/TjDX80aqQ4VRuZvlVR/Ex4A/EkCv6LP2c/2gPB/wCzl/wTZ+EviXxlrlloeiWXgjREa4nb/WubGHYiKMlmbnAGScE9ATWb8wPor7Uqrubp6jJH50qTLIMryPWvyk/aK/4OS2tNZms/hZ4ChubSMkLqniSaRPNwcZW2iIwPQmYNyMrivEZ/+Dhz4+XV6sy2vgGFecxLpMxQjnHLTlhj60cw7H7mBs0V+PPwb/4OTvGel6nFH4++H/h/WrPcFaXQZprG4Re5CStKsh9FymfWv0k/ZE/bu+G/7b/g19Y8A62l49qv+nadc4hv9ObONssWTgejqWQ84Y4OK5u4j2Kio0n3sBt6/p7fX2qSqAKKbI/lpu2lvYVX1DWYNK06e7uZEt7a2iaaWWVhGkaKCSzE8KABkk9B1xQ79ALVNaTbXwH+1l/wcEfDT4KaxeaJ4F0i++I+rWZ2PdwTi00pW4yFmIZ5SO+yPZxjfmvkHxd/wcc/G7VbyQab4f8Ah3pdtk7FWyubiQAjuzXABP8AwEVPNbcD9ukfdTq/Dvw9/wAHGXxw065j/tHw/wDDzVrYEb42064SQgf3StxgH6qa+tv2Uf8Ag4Y+HPxa1K10n4haNefD/VLmQRJfLKb3SmYnADybVkiYnAwY2UZyXA5o5kB+h1FZ/h/xPY+K9HtdR0y7tdQ0++jE1tdW0yzQ3EZGQyOpKsCOQQcEVoA5FUAUUUUAFFFFABRRRQAUUUUAFFFFABRRRQAUUUUAFFFFABRRRQAUUUUAFFFFABRRRQAUUUUAFFFFABRRRQAUUUUAFFFFABRRRQAUUUUAFFFFABRRRQAUUUUAFFFFABRRRQAUUUUAFFFFABRRRQAUUUUAFFFFABRRRQAUUUUAFFFFABRRRQAUUUUAFfj7/wAHI37Tn9u/Ebwn8KbGbdb+HoDruqIhzm5mUrAjccFYhI2O/nr07/rn4p8R2Xg/w1qGralcR2mn6Xbvd3U8hwsMUalnY+wUE1/Mj+1B8brz9pX9onxd44vXbzfEmpyXMauTuii3bY41z2jjCL7EY7UAT/shfAi5/aZ/af8ABfgWz3f8T/VEgu2QlWgtUzJO+cYBWFJG69QBnnj+mTw94es/DGi2OnWEMdrYafClvbQxrtSGJVAVFHYAAAfSvye/4Nt/2azqnifxl8VtQtx5GnwroGkMw3fvpAsty49GCLAuR13t05FfrgY8LSaA/O7/AIOJv2Zl+In7Nmi/EXT7XzNU8A3ogu3UfMbG6KoST12rOIfoHc+ufxp8JeKb/wAEeKNJ1rTZZLXVNJvIr20kT78U8To8bD3DAEV/T/8AGX4Xad8afhN4k8I6vGZdN8S6bPptwAu4hJUKEj3Gcj0Ir+Y74r/DrUvhL8VNf8La1F5ereG9Qn024H8IeF9jgeoJwfcGnYd2f0sfssfHOy/aT/Z58H+OdPYGDxNpkV4ygY8mUjEsX1SQOmP9mvQ0+7X5hf8ABuH+00viT4deLPhTfTbrzw3cHWtLVmyRazFVnRR2VJtrY65uD+P6ep92gQtZPj7/AJEbWP8Arymz9NhrWrJ8fHHgbWP+vKb/ANANDv0A/lZu13Fx1G44DcgDPGOn0+lejTftU+LB+zDB8I7O8+w+FDq8+tXsaSBW1SeTy/LSYkY8uMxBlA/jZmO47dvncnMrf7xr6Q/4JXfsZw/tt/tXab4f1ITf8IrokTarr5Ubd8CFQluD6yuyocYIXeQcgVN9dStCv+yB/wAEu/i5+2hZjUvDOgppvh9fu6zrjG1tSeQUjwrSO2QchFYKeGKH5R9PD/g2o+Ij2W9viJ4NW5K58v7NdGMH037c499tfsD4e8N2PhbR7PT9Ntbew07T4Vt7a1t4xHFBGgCqiqOFUAAAAcYx04rRAylO1yT+db9rv/glD8ZP2OtIk1bXtFtdb8Nwn99rOiSPd2luvGWlyivEOcZkVVJ4zXzhZXj6c63Echt5ITvR7d2jMTLyGGCCG9Dz0IO0jFf1Xato9rrdhcWd9b295Z3UbRTwTxiSKZGGCrK2QykcEHg1/PV/wVm/YxtP2Kv2sr/RdFSaHwxrluusaEOSLWJ2ZTbhiSSI5EYAsSxULnJJalylcx+n/wDwRX/4KDzftd/B2bwr4qvvO+IXgpAl1I+FfVrInENyR3dRhJAM4IRs/OQPt4Pg1/OX/wAEuPj7d/s7ftv+AdWimaHT9U1CPQ9SQHEb2t26xPuHorMkn1iU9q/owhP05JIwe3b9KLkksr4hJ49MHvX4Gf8ABXT/AIKI6t+2D8Yr7wzoupTw/DTwvdvFp1vbP+71eVSQb2QkfMTn5AeEjfIwzMx/eLxloLeKfBuq6Ws8tq2pWc1qJoyQ8RdCu4EcgjOc+1fjLrP/AAbffGS21W5+w+MvhjcWgkf7LJPfXsEswP3d0a2rKpGBhQ7AZYZI6UB8cfsyfsj+PP2uviGvh/wLo82qXiqBcz7xHZ2EZOfMmc/6tSemOWYMApIr9G/hr/wbOWbaRHN4s+Kl1/aUygyQ6LpSLBEcdpZWLSD3KJ9K+4v2Af2JdF/Ye/Z/0zwnYyQ3mtSA3GuapHFg6pdscsxLDOxPuID0VRkbiSfdEg2f41PKB+UfxW/4NpI4tIkuvCPxQkkvIoiUh1rSU8t2H96aN8xrjPIjY1+cP7Sf7MHjL9lH4l3XhXxxpkmk6pDEJV2Pvju4mBAlglAIeMkMAwYYI2soYMg/p6uI98BXLLnuK/Pf/g4i+DGneKf2QNH8YPDH/bHhTWo4YJwp3fZrhWSWPr0LrC2TkgqcY3GjlA+Rf+CGf7f+ofs9fHOx+GviC4RvBXjudIrfzWKR6VfsMLLH1AWVgkboeM7GBG0hv3FV9yj3r+U2wvJrCWOeCR4ZrdhJHIjbWjKnIYHsRjI+lf1A/ALx1L8Uvgd4N8TTbVl8RaJZ6m6r91TNAkhH4bqL9wOxZtor5A/4K7f8FHf+GGPgzDp+gNbzeP8Axcjw6UJDuGnxDiS7Ze5XOEBwC+SchCrfXkieZBtO7DcHFfzo/wDBWD4+SftD/t3ePNWFxJNp+h3b6Dp48wsiwWrNGdo9HlWRwOxc9cghvyA8G8W+LtS8c+Jr7WtYvrzUtV1Sdri9upn8ya7kcglmLH5jkfxHA46AcfR/7Hf/AASP+MH7Y+jW+taTpth4d8LXIYw63rMjw297g/8ALuiI0si+jlFQkEbs9bX/AASE/Yusv2yf2t7Ow16Bbnwj4XgbV9XhYfLdBTtigPBHzSFSynqiuOM5H9BFlp0OnWUVvbxRw29uixxRou1Y1AwFAHQADGKV+4H5G/8AEND4kGm+Y3xW0X7Rt/1Y0SXZu9NxlBx77fwr5l/bD/4JG/GD9jvQbjXNU02y8TeFbcBp9Y0KRrmK2UnB86NkDoOcZKlM8ZPGf6EGi8xNuce9R3mkw6jYS2twkdxbzoY5YpEVklQ8MrKRggjIIxjBoaA/lZ8NeJtT8G6/a6to+o3ul6pp8gntbqynMc1nIvKtFIPmSQEcMpyNrYIA+b94P+CPf/BRiT9t34bXWjeJ5LdfiF4PiVL6SNFjXV7Y/Kl0qjABLAiQKAoYoRgMFH5Z/wDBW/8AYvi/Yv8A2tNR0zSLWSHwj4kiGraHlT5cETEiS3U4xmKUEYzny2Tpk1X/AOCQXxWvvhR/wUJ+Hc1m0ix63dtoV0kQ/wBfBcKy7H67lWUxyY45iXpjNF+4H9Eb/dr4Q/4OHhj9ga2P/U0WP/oq6r7qt2Btl2qq55wBgCvhX/g4g/5MEt/+xosf/RNzTew0fhqTvI7Dvzjjv/nn8a9I+L37R3jb9pi18F+H9Suri7sfCmk2HhrRNFsVPkwiGBIQyQ9fPlMaliCzHKqu0KqjzXKj77Kq989PofY1+uX/AAb5/sK6b/wgcvxq8TWUd5qmoyzaf4cSWNWS0gRyk84B/jeRXQHqETGTu4nct+Z80/s+/wDBA344fGTRINS1tdB8A21woZINYnka+IPPMMSNt45xIwf1FejeJ/8Ag20+JmnaHNJo/jzwXql7ECVtpo7i1EmOcB9j8noMgDOMkDJH7MIm3/8AVQY8jrT5SGfzH/tLfslfEH9kfxZ/Yvj7w5No81xk205ZZrS/UYyYpVO2TGcMoyV43KM1kfs7/HvxT+zD8XdL8ZeDb6Sx1rS5NwGWaO9jGd0MygjzEZSFKnqDxggEf0Yfti/skeHf2xfgZrfg7xBErfbYC1jchAZNPulBMU6dMMGwD0yhZQRuJr+bTx94K1DwB491jw9q0Jh1PQb6axvI9xys0b7JACR2ZevvS66iP6T/ANjn9p3R/wBr34A+HfHeiqI4NWtgLm23bmsLlfllgP8AusDyQMgocDNeqg5Ffkv/AMG1Hxzuv+Eh+I3w5upt1rLDD4isYunlyBhBckD0YNbcdtvfPH60VXoAy4I8ltx2huM/XivxO/4LV/8ABUHUPjV4+1P4V+CdSktvA3h2RoNYurWUr/bNzGSj7m7wRurAAHDsm4nG3P6U/wDBVL9pe4/Za/Yn8Ya9Y3BstZ1CJdH0qdXKvHcXBCb1I6OkfmyKfWMV/OhFcH7QrKWRlIJZWweOpGeme+P9n+6KV+4HafAD9nbxl+1B8SrXwn4I0W41nW7pWfy0VIo4I0wGlkd8KiLkbjndllHzFsV+jnwk/wCDaW4vNGgn8dfFBbS+mUM1loul+dHDx086VwHP/bLtx2NfWX/BHT9i/Tv2VP2SdC1C4sVh8YeNLaPVdYmZF8xA65it17qkcZX5c/faRsDdtH1k1rmTdn+n+fxp2A/Jf4y/8G0smn6RJeeCfibHdXsKnFrrOkiNZGxwPOidmXJ4+WJjyMCvzp+Pv7O3jD9mH4hXXhPx1od3oetW4VvJkwUuYWz+8ilXKyKcEbkZuQfQiv6gXT5GHrXyv/wVr/Yo0/8Aa7/ZX1iWG1VvGPg62m1TQriMbZCypuktieT5cqrjH94Rn+HBXKB+bX/BHD/gqBqP7L3xH074f+ML+S5+GuvXQt7dpef+EfupG+WROywu7DzEAC5PmDB8wSfuZDOJlDD7p545r+UmRcSbdvLZKrt27hwB64JJx+BPav6Ff+CO37SUv7TH7DPhe/1C6a71zw7v0HUndtzs9vgRsx7s0JhYn1Y0X7gfUtFFFUAUUUUAFFFFABRRRQAUUUUAFFFFABRRRQAUUUUAFFFFABRRRQAUUUUAFFFFABRRRQAUUUUAFFFFABRRRQAUUUUAFFFFABRRRQAUUUUAFFFFABRRRQAUUUUAFFFFABRRRQAUUUUAFFFFABRRRQAUUUUAFFFFABRRRQAUUUUAFFFFABTZG2oSBk9h606myHCUO/QD4g/4LyftOt8FP2Lbnw7p9x5OsfEa4/seEjBK26gS3D47rsCRkcZ88c9j+En2TzLnavnMzNhQnMj9wAf7xYnn1IOOK+0v+C6n7TSfHr9uHUNEsblm0X4dW/8AYUKK+Uluwxe6k9sOyxEd/s4Pbn51/ZM8eeEPhh+0n4N8S+PLPVtQ8K6BqKajeWumxRzXNwYgXiQLJJGjKZVjDAuPk3dehjmaHY/oE/4J3fs1L+yZ+yJ4N8GyRxx6pa2QudUKjlryb95Nk99rsUB4+VF44r3Cvz1t/wDg5E+BsaKv/CL/ABVLdz/ZmnjJ/wDA2pD/AMHJXwMB/wCRW+K3/gt0/wD+TaIyEfoJMpeJgu0HsSMj8q/Ev/g4V/Zr/wCFW/tT6Z480+3Eel/ECx3XGxcKt9ahUkJ9MxvAc9zu9CT9Xn/g5M+BgH/Iq/Fb/wAFun//ACbXzl/wU/8A+CtfwT/bt/ZiuPC+l+H/AIhWPiSyvodS0i61DT7NbeGRfklV2juncK0TycBTlgmeBkOUgPk7/gmx+0w37LH7Z/gvxPNMYdJlu/7N1Y/w/ZbkeXI7D0Rikvb/AFWMjOR/R/bS+cobjknoc1/KQm6eP5N0bMpI3D27j09fav6J/wDgkt+0yP2nv2I/COp3N013rmhwnQ9XZ23Sfabf5dz9Ms8XlSE4xmWlGQH0tWR4/wD+RG1j/ryl/wDQDWvWR4//AORG1j/ryl/9ANU/ID+VyQ5kYAc7iB9c1+wn/BtF8OLex+CvxJ8WKu6fVtdg0tnI6LbW6yjHuftWT68V+PcnEjYOG3HHsc1+1n/Btqi/8MWeLNq9PG90Rz0/0CwGPwGPzqeupUrdD9DPLpwGBRRVkiP92vzF/wCDln4fRXvwg+HHinyV8/T9XuNMaYDkrNCJAhPcZgYgdjn1r9OyMivz2/4OQ9h/Yk8Lp5i+Z/wm1qwXuR9hvgf5j86TA/FSznazkjmjZkkhYSIVOCGU5H6iv6lvh1r6+K/Aei6orK41KxhuiyrtDF0DE49yTX8shcxRNt5bBAr+nb9lG2uLP9l74cQ3a7bqHwxpqTD0cWsYb9c0lqwPQSMx01DtYD9ayfG3jbTfAHhbUNW1i+tdN0vS7d7q6uriTZFBEg3MzHsAMe5zxX45/t//APBezxf8UNVuvDnwaupvCfhmN/K/tkxganqqkcNHuBECHGVK5cgZ3DpT9AP1u+LX7RHgX4Dw/avGni3w74XhxlW1LUIrdpB6IrMGY59Aa+dfiF/wXV/Zz8Bllh8Wah4gkUkFdM0qdlP0eRUQ/g2K/BeebWPiV4naWSfWvEWtapLlnctqF7dynruK7nds8dST+lfQnwt/4I8/tFfFqyiu9P8AhvqWnWshAL61cW+lOgI+95UzpMR/wA9fSp5mgPv7x5/wctfDmwjk/wCEa+HfjXWmXgNfz21hG34o0xA+or5U/bx/4Lba1+2v8D9T8Bp4B0nwzpGrSwSySnUXvrlPKlWQBW8uNRkqATt6Zro/AP8AwbjfF7XmVtc8WeAdEt+5innvJU9tqxIhOf8AbP8ASqv7b/8AwRLs/wBiP9lTWvH158SJPEmpWU1tBFYro4so2aWdEbDec5bCknoOlCkUrHwCThCOx4P0r+lj9gV937DXwaz1bwRoxJ9T9hhr+aZ/u1/Sx+wJ/wAmNfBn/sR9F/8ASGGl1CyPVde1D+yfD97dbQ/2WCSXaf4tqk4/Sv5V/EeqTa/rd9dTOZbi8uJJZJO8kj/eP1LZP41/U945YJ4F1hm+6tjOT/37av5W5AyTNxtbcWX8TkH+RrQk/Xr/AINn/CEdv8MPid4gEf7zUdVtdP8ANJzlYYnlAHp/ryT65HpX6gAYFfm7/wAG1aqP2X/HjBenikqB6D7JBX6RA5FKwBRRRTA4n4u/s4eBfj8lrH438JeHfFkNixe1TVdOiujasRgmNmUldwAyM84HpWF8PP2IvhD8JPFNtrnhn4b+DND1izYtb3tnpMMM8BKlCVdVyMqxHHYmvU6D0pWAYyYr4Q/4OH/+TCLf/saLH/0VdV94v92vg7/g4f8A+TCLf/saLH/0VdUPYD8NSu8Ee3P0r+k//gm74eh8N/sEfB+GAIqzeE9Pu2CrtBeaBJnOM92cn3NfzYr3+h/lX9Ln/BP/AP5MY+DP/YkaP/6Qw0olSPX6b/y0oL4NAIJ96om4SANGwPQjmv51f+Ct2gW/hX/goz8U4bZdscmqrdkerzQwzSE/VmNf0Vv9w/Sv54v+Cybf8bJPid/192v/AKRwVMgPRP8Ag3u1p9M/4KCQRRrzf+Hb21kOf4P3cmP++ok/Kv3ar8HP+CAJ/wCNh+l/9ga+/wDRdfvC4yKNQPzH/wCDl/xv9g+Efwz8O7vl1XV7zUSuerW8McYP5XLV+RvhOys9S8VaZbahLHBp9xdxRXMkjhFjiZwHYliAAFJPXtX6m/8ABznFm2+Cvzc79b4/DT//AK351+VOk2E2p6nbWtvDcXNxcSrFHFApaSVmOAoA5OSccevfpWbvcpWP6PbP/go58BbG1SH/AIW58P8A92NvGsw8frVhP+Ck/wABdv8AyVz4f/8Ag6h/xr8CU/YV+OEyrt+DPxWbaMMU8I6htJ4yQTFyMjqpOc1IP2DfjgY/+SMfFj/wkb//AONVeoaH75f8PJ/gL/0Vz4f/APg6h/xps3/BSH4CTxNG3xd+Hqq4KnfrMO057feHWvwP/wCGCvjj/wBEZ+LH/hI3/wD8aoX9gz44hx/xZn4sdf8AoUb/AP8AjVO7DQ4j4xw6bB8TfFFvorWs2kxarcR2T28omieFZHWJoyuRtKgnPfcB2yf1N/4NmPGE174O+K+g7v8AR7DULC/2f3XnjnRj/wCS6j8K/OST9g345LbP/wAWX+LB4P8AzKF/+A/1XTk8V+m//Bvb+y58RPgZL8Sda8aeFvEHhOz10WVvY2+r2j2k9wYWuS7eU4DKq+YMEgZ3n05nqDsfphRRRWhIUUUUAFFFFABRRRQAUUUUAFFFFABRRRQAUUUUAFFFFABRRRQAUUUUAFFFFABRRRQAUUUUAFFFFABRRRQAUUUUAFFFFABRRRQAUUUUAFFFFABRRRQAUUUUAFFFFABRRRQAUUUUAFFFFABRRRQAUUUUAFFFFABRRRQAUUUUAFFFFACM20V5t+1l8frX9mf9nHxl45ugu3w3pklzCrNgTXBwkMZ4P35XjXofvHjivSX+7X5cf8HIH7TH9i+EPBvwpsLlhPrEx8QarGnB8iImOCM+oaQyPjt5IPPGB36Afkxr3iG98Y+INQ1TU5mutS1C4kurqVzlpZXbLNk+p7dyxPfFaui/CXxV4k0qO+03wz4g1DT5siO6t9NnlicgkEBlQjqGHHdWHas/wd4T1Hxx4q0jQdKh+26trN3DYWsYP+vnmdEUdDjLkdjjNf0z/sx/Aex/Zt+AnhHwPpu37N4Z02KzLhcefIBmSQjJ+Z5C7nk/fI96z66juz+bD/hQnjZuf+EQ8Uf+Ci4/+Io/4UF42/6FHxR/4KLj/wCIr+pAR8UeXVcoXZ/LgPgH42B/5FHxR/4KLj/4il/4UP42HXwf4qwOTjSLgsR7DZyfQdzxX9R3l0jp8lDiC3P5T/EXh6+8M6hNY6lZz2F9b7TJb3cLRspIDDKMASOQfcGv0R/4N0v2nn8A/tB+IPhnqF0f7P8AHVq2o6dEz7sX1sGaTA7F4S2fUQoMd66f/g5D/Zi/snxf4Q+K+n2+2HXIj4e1dx0WeMGS3cj+88fmqTxgQKOc1+cnwP8Ai3qPwI+MfhjxppMi/bvDmowarBtO5JPLYlkOOu5fkI7hj+MpalyP6koJ/OyMbWXqKzfH3PgbWP8Arym/9ANVvhj45034nfD3QvEejyCbSdcsIb+zcDG6GRA6HHb5SOKs+PjjwNrH/XlN/wCgGr9DM/lbYZnOTtBfBJ7DPX8K/XT/AINofijb3Hw3+JHgx5vLvbLUbfW0hbuk0Qhcj/dMCA+m5fWvyLk/1rcbvmPGM7vbHfPTHfpXsH7B/wC1/qn7E37SOi+NLFft1hCzWurWWdzXlk5TzFHH+sBCup/vIOOanrqVof0sI+6nVwXwB/aA8J/tKfDbTfFfg3WbfWdJ1CMHMcitLbNg5ilUElJBnBU8jFdu1x5a9On4VXoSSs20V+V//BzB8UYYvC/wv8GpJG13dXV5rMsYb5kijSOFCRj+JpXA5/5Znrzj9IfjR8bfDPwG+Gmp+KvF2q22i6DpcRluLiY5yOyKv8TN0CjJYnj1r+dv9v39ry+/bc/ac8QeM547i201nisNGtZiN1tZRgiEEjjc5eSQkcZkOM4O2b9wR5N4a0C68Wa/p+l2MLXF9qdzHaW0Q6yyyMERR9WIH41/U34U0SHw34U03T7fKwWFtHbxgjBCqoUcfhX4C/8ABFb9mib9o79ujwzPJE39j+B9viXUHx8oaFx9njzxy0+3j+7G5xxX9BUQ2xjJBPcgYzSKkz8wv+DkH9ojUvCnw48H/DfS7qa3h8SSyapq2zILxQlVgQnuhk3MV6FoVzmvyr+Bfwjv/j38Z/DPgvR1WO+8TajDp8TFQwh3sA0mDx8q7mwePl9K/Q7/AIOXfBN5bfGX4b+JCv8AxL73Rp9MVscCWGfzSM+pWdcD/Zavhb9jH42Wv7Of7U/gbxrfQyTaf4f1SOe+RFy5tWzHMYx/FII3cheMkDkVV2Fj9/P2N/2Bfh1+xP4MtdP8K6PbTax5QW+166jWTUtRbqS8uMhM8iNfkXsM817cBub61j+B/G+lfEbwtp2uaHqNnq2j6tAtzZ3trKJILqJxuV0YEhlI6EH19K2U+9TaJFl/1Z/xxX5/f8HE/wAQ4fDX7FekaD0u/EfiO32oW5MUMUru3fOG8oderD2z91+O/HWlfDbwlqGua5f2el6TpcJnuru6mWKGBB1ZmbgD9T0AJwK/n9/4Kw/t9R/t3ftFrf6S1xD4L8MwvpugRsxAuk3ky3RU4wZiqHafmVY4gQCGpcoHy+XyK/pZ/YE/5Ma+DP8A2I+i/wDpDDX80lf0t/sCf8mNfBn/ALEfRf8A0hhqTQ9bvLRb+xkhkXdHMpRx6qeD+lfys+MvDVz4L8aatot4u270e9msJlxgq8TtGQR6grjFf1VL9yvwB/4La/szXH7Pf7dPiDUoodmi+Pj/AMJBYyhCqNNJ/wAfCA5PzLNvfHXbKprR36GZ9Wf8GzfxEjbQPil4Vkb99Dc2WqwrnlkkSSJzj0BiTn/bAxxz+qituFfzdf8ABOn9sW4/Yc/aZ0vxksNxdaI8cljrVnEwVrmzcfPtzw0iFY5FXjd5ZXI3ZH9D3wm+LPh/42eB9N8TeF9SttY0HVohPaXcDErIp6gggFWUgqysAUYFSAwIE37gdPRUbT7H27T/AJ/z2zXM/GD4w+H/AIH/AA71TxR4m1O10nRdHiM9xczyBFAGPlGSMsxwAo6kgVXoB5L+2/8A8FMPhv8AsCzaPa+Ml8QalqmuI09vp+i2iXNwkKsFMz75I1SPdxktyQQAcV5r+zx/wXT+DH7R/wAXdG8F6dY+OND1XxBOLXT5tX0+CO1uJTnageKeQgsw2jKjkj61+O/7en7WuoftqftMa740uI57fTZpPs2k2krKPslnHkQ9Om4b5G7FnJx6es/8ERP2ftQ+OP7enh2/jt2m0LwOsmu6hcbQqxMqlbZSMY3tM6MFIztjfuDib66jsfv2H8yLcMH6V8I/8HD6/wDGA1uf+posf/RV1X3ft+XFfCP/AAcQcfsC2/8A2NNj/wCirmm9hH4ZpyT9D/Kv6Xf2ARj9hn4Nf9iRo3/pDDX80adT/un+Vf0ufsBf8mNfBr/sSNG/9IYaUTRnrhTJoCYNOoqjOwj/AHD9K/nh/wCCyjY/4KSfE7/r7tf/AEjgr+h5/uH6V/PB/wAFlf8AlJL8UP8Ar7tf/SOCpkOJ3f8AwQAfP/BRDS/+wNff+i6/eWvwZ/4N/wD/AJSJaX/2Br7/ANF1+81SOTuz81f+DlP4fPrX7PfgHxIiZ/sPxDJYOccqt3b7t3+7utQPqRX48eH9Sm0HVbPULd0+0WMsd3EVb5codw59QwA/H2r+kn/goH+zOP2tf2RvG3gmMQ/2lqNiZ9NeT5Ql3CRLD838IZ0ClsHCu3Br+bPVtKuNE1W6tLiCazurOZoZ4ZU2PFKjbXBXt8wOQef1w92Sf1MfDTxlZ/ET4d6F4g09vMsdcsIL+2b+9HLGHU/iGFbe35cV+Y//AAQU/wCCiGleIPh1afBbxZqEVnr2iSP/AMI3LdSbf7UtWJcwKzHl4iSAOpTaAPl5/TVbjc5Xb9046/5/xq7ASAYFBOKb5lfK/wDwU5/4KZeH/wBg/wCGNxb2s1jqXxE1aPZo+kGZS8Ybg3Uy8lYUG7GeXcBQNu51VkB9USr5kRH9M1DDH5b56leMnriv5+5/+C3/AO05Jukb4kRxpu8wxR+HdM2Jx0XNuWx3GSxH4V+wH/BLn41+Of2hf2N/Cni34gLBJr2rSXJNzHaC2a7hSV0jleNcKrMFPKjBGCPvUwPoyiiigAooooAKKKKACiiigAooooAKKKKACiiigAooooAKKKKACiiigAooooAKKKKACiiigAooooAKKKKACiiigAooooAKKKKACiiigAooooAKKKKACiiigAooooAKKKKACiiigAooooAKKKKACiiigAooooAKKKKACiiigAooooAKKKKAGXI3QMPlzjjPTNfzYf8ABQv9peT9q39sDxp4w85ptLnvhb6UrfwWNuQkTDOMZUAnOBukbk9/6UJhuiYfLyMcjI/EV8O+JP8Ag31+AHiLxBe30S+M9KjvJGkSzstVRba13Z3KitExwcnhiQOPSgD4L/4IGfsxyfGr9sRfFF9btLovw4tDqGXyYWvpd0cCFePmXDyAjI/cj+9x+66oEHAxjgY7V5H+yJ+xP4D/AGI/Bd1oXgWwuLeHULj7VfXN1OZrq9lxgNI/GQF4CgBRzgCvXaVgCiiimAUEZFFFAHh//BRP9mhf2q/2O/G3g+ONZNSnsWvdLOPnW9g/eQ4P8O5l2E4PyyNweh/m3vYpIZnEi+XOrHapQryOGJDYIw2OOvc4Ff1bTLviYZx7+lfGfxa/4IS/AX4u+P8AVfEc1p4n0S81q5kvLuHSdSW3t3mfO51Ro2K5JzgHHtSsh3OP/wCDe/8AaWPxc/ZLvPBt5P5mpfDm8+zRq33lsrjdJBg4A2h0uEGM/LGnNfc3j458C6x/15Tf+gGvJv2MP+Cfvw8/YS0zWLfwLbal52vyRyX95qN19oubjy93lqSAqhV3tgBR949c1614/wD+RG1j/ryl/wDQDTd+gj+VyVmEjbWZTuPKnBHNfRHwX/4J2eKv2iP2L9Y+Kngm3n1jUPDPiK50nUdEhALNbJa2kyTQryXkDTygoAWKnjJAVvneX/WN/vH+dftZ/wAG3kazfsP+LlbPzeObpTg4/wCXDTzUddSpW6H5A/CP47eOP2ffEcmq+C/E3iLwlfuNkz2FzJamTHGyUDh8H+B8gYyBkce7r/wWn/aci0n7P/wtC5kjA25bQtOaTH++Lbdn33Zr9e/2qP8Agkn8E/2t9WvNX17w22j+Jbxt8mtaJILO7kf+842mORiOC0iM2DjIwMfK2vf8GyvhW4u2bS/itrtrBuyiXmiQ3Lge7JJGCffH4U2Sfl18aP2kPiB+0ZqsF5488aa94oktmLQi9uWeGAnj5I+EjHrsVe564NZfwt+FPiL40ePNO8M+FdIvtb13VJBBBaWqbnO7jzM/dUAZYsSAoU4AGc/rp4F/4Nrvh3pV/G/iL4g+L9atY2y0FlbW+niQd1LESHB74wcZ5B5r7S/Zq/Yp+GX7IWgTWPw98K6f4f8AtQAubld011d47STOS7DvtztB7Ut2BwH/AATF/YHsf2C/gJ/ZMzWd94u1+f7fr2oQIQs0vSOJCefLiTCj+829sDdgfSZGUqGK22zK29+O2ePy/wA/gOKsVXKgPC/+Cgn7GGmftx/s6al4Rup1sdWhP2zRdQI5srtQQpOOdj5KNjsehIFfzz/Hv9n3xV+zH8SdQ8I+M9HuND1nT3DFHULHdKMr51uzcSxtncJFBGeOvFf1FTLvjYeteffHT9l7wH+0z4Y/sfx54b07xLp6sXhS6T95ascZaKRSHjJwMlCCw4bIpW7FJn8837M37e/xZ/ZERovAPi7UdJ0+ZzJLp8yJeafIx6sIZdwRj3bCk7V54Gfoab/g4T/aAl037Ov/AAhKSkBRcDSXMufXHm7Mn/d/Cvrn4m/8G3Pwx8R6zNeeGfGnizw4szlzb3ccWpRR57ISI5AB/tO1cxo//Bsx4bivN2o/FrXLqBidyW+iR27gf7LGZwD9VI9QRxS6hK3Q/N/9pH9t74pftcXcLePvGGqa1a2rl47PEEFjA3XIgRVjBVd3zsu8jOWIJB7rwr/wTe8WW/7DPjr45eKI77w/oulQWn9gWU0ZWbV2mvrWD7QwZciHy5JCD1dtjbsbt/67/s1/8EXPgX+zdqtrqkOh3fi7XLNlkiv/ABHKl2YXH3XSBESBWBwQwj3AgEHIzX0J8b/gd4d/aJ+FGs+C/Fln/aXh/XYVhuoN5QttdZEYEHIZXRGHbKjirJP5cjwm7oN2CchuMZ/hyc+xx61/S5+wGuf2Gvgz2/4ofRQRnOD9hh4r51tP+DeL9n+1vopml8dzxxld1vJq8flTKCDtcCEEggYPIJHHvX2p4M8G2Pw/8K6XoekwR2WkaLaxWVnbRg7YIY0CRoMknCqAPwpWQ7s1Cvy4rwX/AIKHfsK6H+3h8Brjw5qEi2GuaeTdaHqapl7C4xggkZJjcfKwHOMHBIwffKa4yKYj+YH9oj9nTxp+yr8S7rwr440W90PWLYb4Sw2w3kYO0TwSA7ZIz/eQkA/KdrYBm+Bf7VHxC/Zj1O4vPh94u1rwpJeALPBaSBrWfHTfAytCzdgxUkDgY5B/pG+NH7P3gz9ojwc2h+NvDmleJNMZt4ivYdzRNjG6NwQ8bY43IQeT618U/FP/AINzPg94rvprrwx4i8ZeEZZSSsAnjvraEHsu9RMef70rVLQ15nwKv/BdP9phbNYm8bWM0iLt80eHrF5AfUjytoI9l7c+leE/Hf8Aay+JH7T+qR3fxA8Zax4oa3BaGC5l22tu3d0gXbEjYyPlVc+9fpfL/wAGyuiyy8/F7VDGU2lW8PoST3OftH9K9E+Fn/Buh8HfB+oQXXiLXvGHi14SuYJLhLO3cDsREvmAZ54kHPXIyDPUcrdD8hv2d/2avG/7VHxHtfDXgPQbzWNUl2vK0EOy1s4j/wAtriTBEadstjP3RkkA/vt/wTc/YQ0T9gz4JjQbOaHUvEGrTG713VI1IF7cDcAq7vm8uMHaueuS2AWNesfCH4B+DfgF4Si0XwZ4b0fw5pcJyLeytljDH+8zfeZufvMSa6wL827vV2JuTV8I/wDBxCP+MBLf/saLI/8AkK4/xr7tT7tefftK/s0+E/2sfhZfeDfGli19od+ySOsUhhmjkRgyOjjkEEH8DTA/mGzsVj7H+If0Jx+Nf0ufsCNt/Yf+DS4P/IkaN14P/HjD2/zzXznZf8G8vwBguoZJp/Hl5HC25oZ9XjKTAH7j7YQSvt+tfbHhbwpY+CvD2m6PpdulnpukWyWdpAnCwwooVEHsFAH4UDuzTooooEI/3D9K/ng/4LKD/jZJ8UD/ANPVtjJC7m+xwfKNxG4+wz/Sv6HpF3rjOPfHSvlj9qj/AII8/Bv9rz4t3PjXxNba/Z+IdQiigvZ9MvhAt6kaBFDqyMM7QoyoB4oA/ML/AIIBDZ/wUV0tfTR78fQiMZH1GRx1r95q+a/2PP8AglX8KP2I/Hd54k8I22tXeu3lu1oLvVLwXDW0LbSyRhVVVyVHJBbHGcV9KUuVANlG5K/LX/gsz/wSN1L4h+KNR+LHwu01r/UL1DN4k0K3GZbiTo17AueZCoO9QMn5mGWJB/UyopEy3XHvjpTA/lSSe5sNSV1a4s7y1m8wMA6TQTKwOc4ykilf9kgjPBwD9cfBn/gun+0D8F9Ah0mXWtH8YWtmoSBvENi1xOi8cNLG8cj8ZGZGJwetfrl+1J/wS6+C/wC17fyal4q8Kw2/iCTB/tnSm+x3xIGMuyjbKccZlVyO2K+T/F3/AAbO+Cr65ZtD+J/ijTY8nZ9v02C9kGexZGiBA+lDv0GvM+S/iT/wXx/aD+IelT2trqPhnwqbhWjM2j6SPNVT2DTtKR9RyOxzzXyH4r8Tap8QPEd5q2uatqGpatq0xnur2+nM815IRjdJJL+8YjH3iSQAByK/Wzwz/wAGz/hS0u4zrHxX8UX1uqgMllpkNozepBZ5VGRxyp619Nfs4f8ABH74D/sz6lDqOmeE/wC3tYt2DR3+vTm9kjI6FY8LCrA8grGCDz15qOo3bofmP/wTM/4I3eKv2qvEOj+LPHFjd+HPhtHKs7LcoYrrXUU52QpkMIW+UGU8EEgA1+4/hrwpYeENLs9P021gtLDToVtrSCJAqW0SqFCIBwFAA49vpi7FbbDncT9QP6cfpmpAmDVkjqKKKACiiigAooooAKKKKACiiigAooooAKKKKACiiigAooooAKKKKACiiigAooooAKKKKACiiigAooooAKKKKACiiigAooooAKKKKACiiigAooooAKKKKACiiigAooooAKKKKACiiigAooooAKKKKACiiigAooooAKKKKACiiigAooooAKKKKACiiigAooooAKKKKACiiigArJ8fc+BtY/68pv8A0A1rVj/EFtvgTWj1/wBBmwPU7DSkB/K7J/rW/wB41+13/Bttz+xH4s/7Hu6/9N9hX4oy/LcSK3y/MQvyk7iCcgYGC3B4GffHOP2u/wCDbYY/Ym8V/wDY83TdQSP+JfYDtkeueeCMUlqwP0K8ujy6dRVAN8unAYFFFFgCiiigAooooAKKKKACiiigAooooAKKKKACiiigAooooAKKKKACiiigAooooAKKKKACiiigAooooAKKKKACiiigAooooAKKKKACiiigAooooAKKKKACiiigAooooAKKKKACiiigAooooAKKKKACiiigAooooAKKKKACiiigAooooAKKKKACiiigAooooAKKKKACiiigAooooAKKKKACiiigAooooAKKKKACiiigAooooAKKKKACiiigAooooAKKKKACiiigAooooAKKKKACiiigAooooAKKKKACiiigAooooAKZcQC5gaNvuuMMMZyO4/HpT6KAPnHxT/wSQ/Z18Y+ILzVLz4W6Et5fSGWY201xbRs56ny45FjHPPCjmvYvg98D/C3wB8GWvh3wboun+H9Ds2Z47O0h2JvYks5PVnJPLMSccV1lFFgCiiigAooooAKKKKACiiigAooooAKKKKACiiigAooooAKKKKACiiigAooooAKKKKACiiigAooooAKKKKACiiigAooooAKKKKACiiigAooooAKKKKACiiigAooooAKKKKACiiigAooooAKKKKACiiigAooooAKKKKACiiigAooooAKKKKACiiigAooooAKKKKACiiigAooooAKKKKACiiigAooooAKKKKACiiigAooooAKKKKACiiigAooooAKKKKACiiigAooooAKKKKACiiigAooooAKKKKACiiigAoopGbbQAM20UiPurg/2nfjlY/s4fs+eLvHWpeWbXwzpsl55bttWeQcRxE4P35CievzV+HOvf8Fzv2l9V1e6vLTx5baRDcSuYrO30DTZIrVSQwRWlt3c4BxhmJ4zntQB/QC8uw/09aEl3/4elfhF+z9/wXb+O/h34xaDceN/F1v4o8JvexJqllNothb/ALhmCu6vDCjKVUluvVe44r90tF1GHV9Lt7q2mW4trqJJoZVbcJEYZVge+QetAF6iiigAoJwKKzfGV/NpXhHVLq3YrcW9rJJEQASHCkr146460MCO58ZabYXDQ3F/YwzL95JLhVZc8jIzwCM8n096taVrdvrUe+1mhuI1OGaKTcAfSv5Wdb1a413WLq9vLme+uLqZnuLh8NJM7HLNkjPIOR25HHev0C/4Ns/EF9D+2X4q0lLm4/smXwdPdPAsjeVJNHd2caOVB2lgjsCcZG4CpvrqB+2FFFFUAUUUUAFFFFABRRTZH2Ju/wAmh36AKzbRXmf7QH7Y/wAM/wBlnT1uPH3jHSPD/mDMcErmW6mHPKwRhpCOOoXHI55ryj/gq7+3y37Cn7OB1LS44ZvGHieVtO0KOT5lgk2kyXLLghhCCpweC7xg8Hn+fv4gfETXvir4yv8AxH4k1a91zXtSkaW4u71/NeZm55JBK/NjG3AUcYxmo5mgP288Rf8ABxB8ANEa4+zQePtYWFsI1po8aCcZHK+dNH9ecdDWdov/AAcdfAnVtWt7abQfidp8UzhXurnTLIw247u/l3bttHUkKcDnpX4//C39lv4mfHGxa68HeAPF3iexUsrXWmaRNPAhU42tIq7A2c/KCTx7HHZ6Z/wTP+P+p6hDbp8IfHEbzMFVrnSpYoVPq7MAFX1JP4HoVzAf0ZWnjzSr/wAGR+IobyGXRZrIagl0nMbW5TzBIPbbz9K+Gta/4OOfgTpWuXFnb6D8TNUSByi3NppVr5dxj+KNZLlJCp7EoM19Rw+CLn4cfsTf8I/fMJL7Q/BRsJ2BDAyRWWxvbqpr+ZtpmkkMny7ydxP95j1J7nnBAzx+orm7gf09/sx/tO+F/wBrb4Qab428HzXM2j6m0kapcx+TcW8kblHjkTJ2sCp4BPY5wa9DByK+H/8Ag33Xf/wT009hn5Nd1BRk5O3cvGa+4KoAooooAKKKKACiiigAooooAKKKKACiiigAooooAKKKKACiiigAooooAKKKKACiiigAooooAKKKKACiiigAooooAKKKKACiiigAooooAKKKKACiiigAooooAKKKKACiiigAooooAKKKKACiiigAooooAKKKKACiiigAooooAKKKKACiiigAooooAKKKKACiiigAooooAKKKKACiiigAooooAKKKKACiiigAooooAKKKKACiiigAooooAKR13rilqO7lWG1kZtu1VJO44XHuTQwPzI/4OO/2lG8OfDnwl8KLC8VZvEkx1jV4lb5vssLBYUPs8pZh6fZ++ePyS8LeEtR8c+IrLSNHs7jUtU1CVYILW2TdJLI3CBR3ZjnmvYP+CkH7STftW/tk+NPFUMhm037W2m6KSeBaQDyoT0/jw0mPWVutfR3/AAb1/s3L8Uv2qNX+Id5aMdL+H9gWs2J+Vr25Dxxk/wB4rCJ+O3yHvgRzMD8/um4qWXBIz9Dgg/p2xjPpg/v9/wAET/2m0/aJ/Yc8O2t1dG41zwPnw9f7n3NtiANux9jA0Yz3KtX5D/8ABVL9mmT9lr9tvxpoVrai10XUrg61pK7f3Zs7kmTy1H9xJDJGPQR/hXt//Bvv+0uvwa/a8ufA99eeXo/xItWtoVkfCDULcGSI+nzI0qgcZLoM8cikOx+41FNjkLgbl2n0p1WIKh1CyTUrGa3kGY5lKOPY8GpqRmxQB+WXir/g2S0/UtbupNJ+MV1punSEC3t7jwx9rmgQZ2qZftib8AkfdHavoX/gm7/wR+0j/gnz8SdZ8XHxpeeL9c1TT30uNv7O/s+3t4JJY5XHl+dLuYtDH82RgA8c19a3vjDTdNumhuL6xhlTG5JLhUYZ5GQT096sabr1tq5/0aaG4Ts8UgdT6jI4yOOPcUrAXKKKbPMtvEztwq8k+lMB1FY6/EDRHk2rq2lsxO0BbuMkn0xnr7VfTUdybim3r347c/rz6EHrQBZoqtdarDZWjTSywxJHjc0jhFGTjqcev41Qf4haEvA1rSWbIAUXaEkn2BzQBsUEZFV5tThtoDLJJHHCo3GQuAgHrk4GKoL4+0NxkaxpOOx+2R8/rQ79APxa/wCDjLx/N4j/AG1ND8Pn5bPw74ftwgzljNPJLI7D0UoIgV5yY1ORjFfNH/BOX9nmz/am/bM8DeDdTVm0q/u3ur6MH/XwW8L3Dxn2cR7D7P0PSvW/+C7Opx6x/wAFGvFU0F1b3Vumn6csbRyrIAPskfTB4+YH86tf8EGHs9N/4KIaVNeXEVukek37LJM6om7ytuMk9cZ/Os+uo7H7seG/DFj4T0Sz03S7W10/TdPhW3tbW2iEUMESjCoqjhQFAGBx+mNIx/LWX/wm2iof+Qxpf/gXH/8AFU7/AITzRf8AoL6X/wCBkf8AjVcojJ+N4z8FvGH/AGBL3/0Q9fy2lNor+n746ePdFHwU8YbdW0tmOiXoAF3Hlj5D4A56npX8wMkm2eSLn5CwyRg8MR/Sl11HY/d7/g3y/wCUeFj/ANh6/wD/AEJa+4K+H/8Ag3y/5R4WP/Yev/8A0Ja+4KsQUUU0yYbFADqKw/HPxM8P/DDSG1DxJrWk+H9PRgpu9SvI7WAZx/G5AHXHOMnivIdZ/wCCoX7PuhXDRTfFjwfIynDG3vPtCj/gUYYfrQB71RXjvgL/AIKCfBH4m3cdvofxU8B3l1M2xIG1qCGZ29AjsGJ9gDXrkN4syqVz83THzAj1yMigCaihTkUUAFFU9U1610VBJeXFtawltvmTTLGucZAySOTzx6A1Dp/i/TNYmMVjqFjfTKMlILlJGUdiQDnHb8aANKimxy7x9elOoAKKbI/loW647etUdS8S2ejeWby4t7VZchWmlCKxHXBPXAyfy9aANCiqel69a60X+y3FvceUdsnlTLJ5bdcHaTg/WrlABRRTZZPKjLelADqKzb7xVY6ZcrFcXVpbyMu/ZLOEfb3OPT/A1Pp2tW+rDdbSR3EeceZE6uoPocHrjB/EUAW6KKKACiiigAooooAKKKKACiiigAooooAKKKKACiiigAooooAKKKKACiiigAooooAKKKKACiiigAooooAKKKKACiiigAooooAKKKKACiiigAooooAKKKKACiiigAooooAKKKKACiiigAooooAKKKKACiiigAooooAKKKKACiiigAooooAKKKKACiiigAooooARm2ivmj/grP8AtOD9mH9iDxdqVvcLb6xr0I0HS2z8wmudyu2OvyQiVwR/EoHHWvpZ/uV+Lf8AwcV/tQf8J3+0J4f+HFjMH0/wNai7vlU9by6RWAYeqQhMHqDLIMc0AfnOrt5bKvmM7EEEHkkb/b/a9/xr+gz/AII1/szf8M3fsKeGVvLbyNb8YFvEl+G/1mbhV8lW9CtusII7Hd6mvxX/AGCf2cpP2rv2u/BHgpo3fT9S1FZ9R2HGLKBfOnycjbujRkB55deDnFf0n2NhHa2kaQqI4Y12xoBhVXtgduPyHFZddQPzf/4OMv2ZG8bfBHwv8TbG38y88JXw0nUWAHNjdMoUk+izhVAwf9exyOh/IL4e+PdQ+GvjzRvE2iztHqmg3sOo2UoH+rmicOm4f7yjK9xX9OP7Qnwa0/8AaD+B/irwTqgX7F4o0ybT2Zl3eSzqQkgGRko+1xz1UV/Md438F6h8OPGmqeH9Yhax1LQ7mWxu4pDhoZoW8tw5xzgoRnAzg1aiO7P6d/gF8YdL/aA+DXhjxro0iy6b4m06HUIcHJjEiBijf7SklW91NdjX5s/8G5v7Sx8dfAvxB8NL+53ah4Ivft9nE42t9kutzOAM87LgSEnkAToO+a/SaqEFNkG5eu3kGnUHpQ79AP5lv22NfvPEf7YnxOutQuJry5bxTqEbSytucxpcuqx85AQKoAAHG1fSv0D/AODZjxTqDar8VNDku7ibTIYNNvI4ZJWZY5yblHdQThS67QcDny09K/PH9rz5v2tfid/2Neqf+lctffn/AAbM8/EX4tf9g/Tf/RlxU311K0P14r5g/wCCzPiO+8K/8E0fiheafdT2lwYLG3MkJw5jl1G1ikTPo8bup9mNfT4GK+VP+C27bf8AgmD8Tz/s6Z/6dbOm/Ik/nqCGwtxt+QxrhBESpGOFUHPH1yOTnIr9SPi//wAFrNU+AH7G3wv8G+Ab+HWviJJ4U05td1q/U3K6UWto2VACcPcFWDNvyEyOGYkJ+XhfYNzK0gYEFQN24HjBHcHuOOPSvZ/2H/2F/GP7efxW/wCEd8NLb2tlZxrLq2s3QL2thCxABIx+8ZirbU/iIIJUZapux2OD+LHx/wDGvxy11tS8YeLfEHiK7dmZDqGoSS4JPO1Dt28cYUBABwBXJrKqluu1uDk5IH1P/wBb8Otfud8Hf+Dfj4C+CdDt4/Elp4h8aals23FxeajLYxuRnhIrZo9iZ5ClmIwPmNd9L/wQ+/ZflXn4YgtxyfEWrc/X/SuR2x0I46U1cR8c/tKeOdevv+DeP4Z3T6rfSXGo39rZXsgcq0luk13sicjGUUxRAA5+4OTX5dpIysn3/vBcIT93PTGfxzX9Qsf7PfgsfCGHwFJ4b0m68F21tHZxaNc24ntUijIKLtfO7DKrZOTkZ61wkf8AwTY+AYg2n4Q/D9uCOdGhP8xTYH82OcNtZvuYBJOcqMjI9fT8Kc07x/KrNG2NrYP6V9T/APBZz4VeHfg1+3x4o8P+FNF03w/osVlYslnYxeTCm+0jZsKpxksWOcd/xrR/4Iq/CPwv8bv259N0PxboOm+IdGm0m9nazvoRNCzquVJU8HH8wDS66mnQ+Q6ch5r+k7/h2r8Af+iQ+Af/AATw/wCFOX/gmv8AAJT/AMkh8A/+CeH/AApszP5tesecov8AvsVX8SOf8elRyHIb+L9Qv09BX9Fnxj/4J3/AzRfhD4qu7P4UeBbW6tdHu5oZotKjR4nWFyrAgAjBFfzqzjdIzZP7xiwB/hBOQPoOn4Ut3qO7P3a/4N8v+UeFj/2Hr/8A9CWvuCvh/wD4N8v+UeFj/wBh6/8A/Qlr7gpsQ2Y4j57kDp1zxX5e/wDBTr/guW3w48Qan8Pfg7Np95qViXtdU8RsvnR2kwO1obUH5WZeQZDnkMFUkbx7h/wW9/bRuP2V/wBlz+xdBumtPFnj+dtNtZYWxLa2yqGuJuhIO0iMHjBlyDlcH8G9h8rlmIUYJI6AdTx6DvzgD65Wo7G18Sfih4i+MXiabWvFevav4i1q4P7291G5NxMw7AFvuqM9Bj0A7Vj2Gl3GqzNHZW0100aGRxEj5Vf72Dg498Yr9fv+CWH/AARS8L6H4G0jx58XdKXXte1eJbyw0C+iDWelQnPlmVOkkzJhiHBC7sYyAa/Sbw34U07wdpcen6XY2Om2EIxFbWlukEUa+gVAAAPpRfuI/lWjl5IZSc5VlZWyR0I4HX9PXI4r2/8AZM/4KLfFX9jDWIT4V8S382hLIPO0K/mN1p0qHqFh3EQv0+eMKcjkEZB/oA/aB/ZF+G37Tugy6f458G6H4gV08uO5mtV+2WvTDRTj54yOOVIyBg5BIr8Lv+Con/BOe/8A2Bvi9BDZTXWpeCfEgabRb90CyRbeXtZyBy6EggknejKeDvCt+QH7N/sA/wDBQjwj+3p8NZtT0VW0nXtH2x6zok77riwY52uOBuhfBKvgZwRgFSK9+3bh/Ov5ov2JP2qNY/Y4/aI8P+MtJlkWG0l8nVLaNsLqFk5HmxN1ySPmB/vpGcYRVr+knwV4w0/x/wCENL1zSblLzS9atIr6zuEOVmhkQOjD2KkGpcrAfnL/AMHJXw71bVvgz8O/E0F1c/2PpGsT2F3arMfKaS4iVopSnQlfIlXJzjzBX5a/stfG+9/Zx/aI8H+NLG4ubVtC1O2uroQSeX9ptQ/79GODwYyynjo3fpX9BX/BRv8AZ+P7TH7FHxC8Jwwm41C60uS60+NR8zXUBE8IB7FnjC55wHPB6V/N0uN6qV27sA47565Hv3HuaFID+qvRdYh1vS7e8t5FmguYxJG6fddSMgj2I5zVwHIr5c/4I9fHVvjz+wD4Du7ib7RqXh+2OgXvqjWv7uPJ9Wh8lvX5/wAa+ok+7VgJJ93n9a/n6/4LU/tH3Px8/bs8WWcV402i+CnHh3T7d1Voonh3C4faQQzG48z5j/CAB0zX7l/tQfGa1/Z5/Z38Z+NrxkWLwzpM96gY7RJKqHykzg8tIUUcHlq/mJ13VbnxBrVzqN28lxdalO9xLK45Z3Zix65ySBnr3od+gH1V/wAEXv2jbr9n/wDbt8JW739xDoPjKZtAv4C5Mcxn4t2Zfu71uPKG8AHaSK/oGjl8xQR37iv5UdM1m48OXdvf2czQXljOskEiNtaOVfmUg+oYDHvX9Nn7K3xutP2hv2dvBfjOzbfH4i0mC7f5s+XKUAljJwPmWQMpGB93t0qb66geiVX1bUINI0u4u7qRYbW1jaaWRjgIijJJPoAKsA5FfMv/AAV8+O6/AX9gLx5eR3CwX3iC1Hh+zz1d7o+XIB7iDzm9toqvQD8IP2rvjne/tJ/tIeMvGV/PczDXNTnktFdtxt7fzD5MYB42qgQdP4Qfav1L/wCDa/4bano3wS8f+J5rm6/snW9Xgs7S2Zsw+ZbxEyzKP7z+cisRgfuVGOK/HGQiXcN7kMMbuhHb9PSv6Tf+CdPwHb9nH9jD4eeFZoPst9aaUl1fxf3Lq4JuJ8nuRJK4z6CpvrqB7fRRRVAFFFFABRRRQAUUUUAFFFFABRRRQAUUUUAFFFFABRRRQAUUUUAFFFFABRRRQAUUUUAFFFFABRRRQAUUUUAFFFFABRRRQAUUUUAFFFFABRRRQAUUUUAFFFFABRRRQAUUUUAFFFFABRRRQAUUUUAFFFFABRRRQAUUUUAFFFFABRRRQAUUUUAFFFFABRRTLj/UtkZGOR6+1Dv0Awvid8RdM+FHw/1zxNrUy2+keHbGbUryUn7kUKGRyB64HA7kgV/MX8bfitqPxw+LniXxlrDM2oeI9RuNQuRndsMjbigOB8qDCjj7uOOK/ZL/AIODP2mF+FP7Jtj4Fs7oLq/xCvhHMqtg/YbYpJNnv80hhXHcFx2r8UtI0i48QajbafawzXd1fzrDBAqeZJcSuwVUCgfMXJVQAOfxzU311A/Vz/g27/Zn/s3TPGnxY1CDbLeMPDekFh1iQiW6YeuX8hM9jFIOe36pg5FeUfsXfs/W/wCy7+zH4O8DQ+W82g2CxXkkfKy3bEyXD59GmeUj2YV6sn3adgEkOEOK/C7/AIL9/syt8Hv2xI/GFnCF0f4iWS35ITMf2+ECO4z+HkuRnrPX7pPylfG3/Bbz9maP49fsOa7qdtC0mteA5l8Q23lplniQFLlev/PF3fHcwoPcMD8mv+CT37SZ/Zf/AG5PB2rXFw0Oj65M2g6qxOf3F0VUOT2CTCKQn+6mOMZr+im2uPtEStwM9QDnFfylhcFFJ27m2nPGeATj1+8BX9HP/BMT9pRf2qP2MPBfiW4uvtOsW9mNK1ZmOWa8tgIpHPu+1ZfpKOtT1A+gaRzhTS02T7hqnfoB/MX+123/ABlp8TT/ANTXqn/pXLX6Af8ABszH/wAXD+LLf9Q/Tf8A0Zc1+f8A+1yM/tZ/E3/sa9U/9K5a/QD/AINmRn4g/Fn0/s/Tf/RlxUddStD9dq+U/wDgtz/yi/8Aih/u6Z/6dbOvqwDFfKf/AAW5/wCUX/xQ/wB3TP8A062dNkn890rARHdwMEE1+83/AAQd+DNl8PP2A9E1yOFE1LxrfXeqXr7fnOyd7eJM/wB1UiyB6yMe5r8GX6fiK/od/wCCNYz/AME1vhb/ANeVz/6WT0LVmh9OJDtqQDAooqjMKKKCcVMgPwL/AOC8/wDyko8Wf9g/Tf8A0jirQ/4IBN/xsT0kf9QS/wD/AECs/wD4Lz/8pJ/Fn/YP03/0jiq//wAEA/8AlIrpH/YEv/8A0XRHcrofvLRRRVEnK/HQ4+CXjH/sB3v/AKIev5b55M49gK/qQ+Ov/JEfGX/YDvf/AEQ9fy2zf0FQ9wP3c/4N8v8AlHhY/wDYev8A/wBCWvuAnAr4f/4N8v8AlHhY/wDYev8A/wBCWvt9vu1QH4bf8HDHxRm8Zft0poPmN9l8H6FZ2oiDcedMHuGbGO6SRg/7q89q8H/4JlfBm1+Pv7dfw38O6hClxp76oNQuoXGUmjtUe5KMD1VvJCkdwxrrf+C1OprrH/BTX4mzRfLGHsYGGc5dNPtY8/8Ajn611/8AwQOhS9/4KNaQzL80GjX8i/XYR/JzU9S+h+8FtH5YHU8cZqamL96n1ZAjrvXFfLH/AAWU+Bdr8af+CfHjrfbpNqHhWFPEVjKy7jbvbHdKw56m3adfo5PNfVFedftgWcWofsmfFCCdPMhm8JaqrrnG4GzlyKXoB/MXJyrR/MGYc46hSOSPfrX9Af8AwRK+J1z8Uv8Agnh4Na8mM93oMt1pLOT/AARTP5SgdgsTRoBzwor+fjP/ACzCr/zzyRkY+n15r9u/+DcbUJL/APYh8SRsFVbTxpeRLj0NpZv/ADY1HXUdj7+nRmt2VWVWYYBI6f59K/mv/wCChvwEH7NX7ZvxA8KW8At9Ps9Ua6sEQfIlpcqLi3APqI5FU+6mv6U8fLX5Af8AByZ8Bf7I+Jngf4kWsO2DWrJ9Cv2AwrSwEywsfVikjqD2EWOe1WQjU/4NqPjz9l134h/DW6mb/TIo/EenRgfKojK29wfqS1vx/smv1nmbfAw/vDFfzkf8Es/ji/7P37efw71gz/Z7C81AaNd5+75N0DAC/wDsozo5/wCufav6NAME/iaTA/PP/g4q/aCXwJ+y5ongO3k/0nxxqfm3SButpaYlYH6yvCR/uGvzB/4J7fAP/hpr9tHwH4RmTz7O61SO81BSvyvZwZmlB543JEyj0LL1r2L/AILr/Hub4yft461pkE27SfAltHoMAXndKgEs/HZhLK6ZyciNfw98/wCDbD9nw33irx98TbqD93Zwx+H9PkPzBncrNcYPbCrAPo/vRzFWPiX/AIKPfAJP2af2zfHvhCGLyNPttSe701QPlW0uR58QB9USRV9yp6YxX6af8G53x+Xxv+zb4g8B3D5u/A+qGe2DN/y63e+QADuRMJyT/wBNBx6+U/8AByZ+zy1n4g8C/E61gPl3cL+HdSdV+66FprYn3KtcDJ/uAV87f8EMfj8fgh+3tounzybdP8dW02gzBmwplcCSAn/aMsSJn0kPvldQsj992+ZK/Jz/AIOVvjs0tz8PvhnazMBCkniPUY8fK24tBbfiNl1+BFfrEW3w5+7xng1/Od/wVY+OLftBft4ePtWhuHuNP02+OjWJC5QxWoEG5T/dZ0Lg+sh69a0JOf8A+CeHwJb9oz9tP4d+E5LY3Gn3mppd34/hNtBumlU+gZImXPqwr+ky3Ty4wo6AcV+Q/wDwbY/AptS+JHjv4i3UGYtJso9BsJCM4mmYTT49CFihH0c+tfr5GlKwElFFFMAooooAKKKKACiiigAooooAKKKKACiiigAooooAKKKKACiiigAooooAKKKKACiiigAooooAKKKKACiiigAooooAKKKKACiiigAooooAKKKKACiiigAooooAKKKKACiiigAooooAKKKKACiiigAooooAKKKKACiiigAooooAKKKKACiiigAooooAKbIwVCWwF7k0rNtFeOft6/tIx/sr/skeOfGnnLDfabprw6aSfv3s37q3AHf946kjrhWPbNAH4r/8Fov2l/8Aho/9uvxH9lvHm0Lwaq+HdNQHKM0BP2iQdsGdphvH3gE7AV8s6Nrl14f1S1vbG4ubG+sZkuLa5tphFNbSowZJI2zlXVgGDDoQDVbUb+S8u5ri4aSWaRy8rs255GB6Z77iz/jzX6L/APBND/gif4f/AGwP2Z4PH3jLxD4m8Pya5fTx6bbacYVWa0ibYJW3o2SZA4A9EBzzgYu9yo+Z8ev+3r8c1lDf8Lk+KmQDk/8ACW3vzf8AkbA/4DipE/b7+Om3/ksfxU/8K29/+PV+oH/ENX8LP+h8+IH/AH1af/GakT/g2q+Fe3/kfPiB+dp/8Zq7lSsfl237fPxydcf8Lk+Kw9x4uvR/7WqvqX7cnxr1fT57W6+L3xOurW6jaGaC48V3skcyMMMjL53zKQSCO4Nfqd/xDVfCv/ofPiB+dp/8ZpG/4NrvhWFOPHnxCBIIBD2gIPr/AKmkTofi0Y1QMW8yTALNtBDOeuScctnoTX6cf8G4P7Sn/CM/FjxV8Lr64VbbxLbjV9NVmO03UG5ZVQf3mh2kj+EW/fPHi/8AwVl/4JaWP7Aa+FNU8OatrWveG/EDS209zqaxma0u0VWVQ0aqPnUuRx/yzcdsn5v/AGZvjpqX7Nfx+8H+OtPZnufDOoxXLIh/10Wds0Z9N8bOvf73Sminqf1AF8GiT7hrJ8GeLrHxx4d03WNNnW70/VrWO8tZ0+7NFKu9GHsV5/KtaT7hq3foZn8xf7XJx+1n8Tf+xr1T/wBK5a/QD/g2ZX/i4PxZP/UP03/0Zc1+f/7XIz+1n8Tf+xr1T/0rlr9AP+DZkZ+IPxZ9P7P03/0ZcVHXUrQ/XavlP/gtz/yi/wDih/u6Z/6dbOvqwDFfKf8AwW5/5Rf/ABQ/3dM/9OtnTlsSfz3lMr+Nf0Pf8Eaxj/gmv8Lf+vK5/wDSyev54/4Pxr+hz/gjb/yjY+Fv/Xlc/wDpZPREqR9PUUUVRIUUUHpQ/MD8C/8AgvR/ykm8V/8AYP07/wBI4qvf8EAv+Ui+k/8AYEv/AP0XVH/gvP8A8pJfFf8A2D9O/wDSOKr3/BAL/lIvpP8A2BL/AP8ARdR1K0P3moooqyTlfjr/AMkR8Zf9gO9/9EPX8ts39BX9SXx1/wCSI+Mv+wHe/wDoh6/ltm/oKiW4H7uf8G+X/KPCx/7D1/8A+hLX29JnYccHscdK+If+DfL/AJR4WP8A2Hr/AP8AQlr7gpvYD+fH/gt5pg0v/gpv8SvLjEcMo06cYP3mbTbZm/Nsn8a3P+CCuqppH/BSTw9FIP8AkI6XqNrGc/xLAZD/AOOofzr0j/g49+DM3hT9q/wv40jhxp/i7Q/s7OoJ3XVo+1w3YfupoMeuG9K+Pf2Mfj2v7M/7U3gXxw4m+y+HtUjnvfKG6Q2rAx3GPcwvJ/nmiJWp/TSn3qfWb4Y8QWninRbPUNPube+sb2BZ4LiCQPHLGyqyMCOoZWBB7gg960qokK8z/bT1iPQP2O/iteSDctv4Q1Z8ZxuP2OXAz7nAr0tm2iviD/gvB+07afBn9i3UfCsVxEuvfESVdLt4Ff8AeLbKyyXExHPybVERBxzOOe1JgfhCyt8zD5d2cH69P0NfuJ/wbsaS2n/sK6lLt8tdS8W3tyuR94CC2j49eUP5V+Hogyqr+7HzcZGFHIx+WD+df0Sf8EjfhBcfBT9gP4c6TdwNb3l9YNrNzHIPnja7ke4VT6MscqKfdaS1Zp0PpbZhMV8s/wDBZH4AD48fsAeNo44xJqPheJPEdmcfc+y5abHPLG3M4HqSK+qKq65pFv4h0a70+7jWa1voXt542GQ6OCrA/UEiiRmfynpM9lcq0czQTwuNpzsYMDx+fTPvX9IHwa/a/wBN8T/8E+dI+M2pTL5EHhQ6tqW0bQLmCJhPGv0mjkQcc5Ffz6/tI/Bm5/Z9+PXjDwXeNJJN4d1a4soS5+aRBIRGx6/eTYQMnr1Ne8eFv28W0L/gkhr3wc+1N/ad54uhitx2i0uTF059x9piYEcZEp6Y5kqx8xeOvGN/8QvGGs+ItSmebUtavJb27kThmmd2aRh77mJxX9Cv/BJ79n0fs8/sIeBdLuLX7NquqWp1vUAU2v590TKdwyfmVGRPogr8K/2EfgN/w0v+1x8P/BLRrJa6xqatfITz9kTM02emMwxSY9yo5zX9MFrCttbRxooRIxsVR2A4H6U92Ddtj57/AOCqn7P3/DRf7CPjzRYITNqWn2Y1mw2KTJ59q3nYXH8TRiSMf9dK/nd8JeJrzwB4n0vW9Mkkt9S0e7hv7aQD5o5Y3Eitj1DAH8K/qqlUSW7KwUjHQjIP4V/NL+3l8DV/Zp/a98feC/JmtLTTdTd7BS+4ixmAmg+buwikTnHUEY4p27C5j95PiZ+2Npeg/wDBPjUvjJp00K2snhRdYsTu3KLiaICGMn1850U8cHPHav5wbjUJb+/kuJJWnnebczv8x3bju57AEA++c19W+IP26pr/AP4JIaL8G1umj1e38VPDMn/PXS1/0pQx9BcyhQOwjHrx4F+zL8Hbj4/fHzwf4Ks1dm8SavBZuyjmOJpR5smO+2PcxHcDHFF9dQsfu5/wRd+AX/Chf+Cfvg6OaHydQ8VI3iG77FvtGDDkdiLdYR9RX1ZWf4d0i38NaJZ6bawrb2thCtvDGgwqIg2qB7YArQByKoQUUUUAFFFFABRRRQAUUUUAFFFFABRRRQAUUUUAFFFFABRRRQAUUUUAFFFFABRRRQAUUUUAFFFFABRRRQAUUUUAFFFFABRRRQAUUUUAFFFFABRRRQAUUUUAFFFFABRRRQAUUUUAFFFFABRRRQAUUUUAFFFFABRRRQAUUUUAFFFFABRRRQAUUUUAFFFFAARkV+Sv/ByR+0sZtX8GfCfT7jctr/xUerLH8xEjbobRW9No89yM8+Yh47/rPcH9y33vT5RyK/Dz/gpf/wAE9/2gfjH+298QPEmn+BNY8RaTq+oqdLv7PZJDJaiNI4VGWG0qqKpXtsLc5xQB8S/Cj4ean8XfiZoPhTQ08zVPEF/Dp1ttOArzSiJCx9BnJPYKa/p0+Cnwp034H/Crw34Q0eNYtM8NadBp1uFGMrFHs3H/AGicknuSa/Ln/gip/wAEs/H3ws/aXb4hfErwvc+HbXwvZzR6PDe7fOmvJQI2kCA52rE0gDHuwI6c/rhEm1fxJ5+tKwDqCMiiiiyARV20bflxS0UwPnj/AIKkfswf8NWfsT+MvDtvb/aNasYBrOkAA+Ybq2y4RcfxOnmRj/rrX85jSGMD5nPBYuBycAE8epyMDuM9K/q4mx5Tbl3DuK/Cv9vn/gj/APFbw/8AtV+MLr4e+AtU8ReD9avJNT0ufTjF5NrHKd5t2BYFPLZiijn5VB74pWC594/8EDf2mf8Ahd37GMfhe8ulm1j4b3X9kyx/xLaOoltW91Cl4wR3hNfccn3DX5S/8EK/2OfjX+zV+0z4j1Hxd4X1Lwx4R1DQ5LOcXzIn2y5WaN4SiqTu2qZTk4wHfrX6sXMnlW7NjdgdPWmB/Mb+158v7V/xObOP+Kr1T/0rlr9AP+DZRvM8f/FxvSw00f8AkS4rwH9rz/gll8eNS/ae+Il5pfw71rWtN1LX72+s7yyMckVxFNcPJGc78rlHBIPIORX2l/wQK/Yq+In7ME3xE1nx94fuPDX/AAkCWdpZWl0V8+QwmZpHKgnCjzIwD3JPpSsVpY/SKvlP/gtz/wAov/ih/u6Z/wCnWzr6sAxXgv8AwU7+BXiD9pX9hX4geC/C8Ed1r2q29tLaQO+wTmC8guGQE8bmWJgM9yKNCT+cADKfiP51/Q7/AMEbf+Uavwt/68rn/wBLJ6/GGH/glh+0MYkDfCfxQsjMqbcQ/K5wdpO/GfX25r9yv+CcfwZ1z9nb9iz4e+DPEcMdvrmkacTexK4YQSSyyTGPI4JXeAT361PXQD3CiiirAKKKRm21MgPwM/4L0H/jZP4s/wCwfpv/AKRxVf8A+CAf/KRXSP8AsCX/AP6Lr13/AILQ/wDBOz4wfGj9tO/8ZeCvBepeKtD1zTrNFlsWjLW8sUQiZHUsCB8ind/t9OMm3/wRQ/4J8fF74J/tkJ4u8ZeDb/wxoel6TcwGa+ZFa4klAVVRVJz1JyccD3FEStLH6+0UUVRJyvx1/wCSI+Mv+wHe/wDoh6/lvlGfyFf1PfEzw/N4t+HOvaTbbRcapp1xaRljhVaSNkBP0zmv56NR/wCCT37RWnahLbzfCnxI32djG8kIikjOOMq28KynsQec9KVgP1U/4N9Bt/4J42P/AGHr/wD9CWvt2YFozg4PY+lfLH/BHT9nnxZ+zD+xRo/hvxppv9k69NqF1fy2fmrI1skjAqrlSRuwM4z3r6ppgfOP/BTv9iSL9uL9lu/8OWqwr4k0eQaloMkh2r9pQEeUzdlkQsmegJVjnbiv539f8N6l4H8Q32jazp91puraTcva3tndRmOW3lRtrxujYIKkYKsAfmGRycf1WTLvjYetfHf/AAUV/wCCP3gn9t5G8Q6fcL4Q+IMcaRDV4rfzo9SVeES7QENIQpKiQHcARu3hFAXoFz8+f+CZX/BafVv2O/C9j4D8baffeLvA9qwh0+aCRV1DRIzkmNd/E0O45CMylASFYqqx1+knhH/gtJ+zb4s0uK4X4jW+nmTrFfaddwOhxkgkxbc8HoT7V+RPxz/4I9/tAfAnUJo5vAl94msFYiO/8OFtRjmA7hIwZlHr5kaj69/A9e+EXizw1f8A2XUvC+v6fcfxQ3Ng9vIPojbSanmaA/bb9oD/AIL8/Av4aaNLH4WutW+IWrSLiG30+zltbctxw80yDaMZ5VX6Yr8dv2rf2t/GX7aPxaufGHjK7ja6kT7Na2dvlLXT41JKwRqxOBksSScliSSSWJoeAv2Ufif8TLtYfD/w98aa0zcBrTRbiRFPbLqgQD1JPH14r7K/ZI/4N9viR8UtVt774nXUPgHw7lTNZxTJdatcL/EECMY4dwyBIzMw7x0lK5Wh43/wSk/YK1D9t79o2zW8tZo/AvhWeO88QXhX5Wx8yWgBx+8kKgMD9xCSRnCn+hC0tVs41jRVVUAVQBgAAcCuK/Z//Z38J/sv/DTT/CPgnSbfRdD08HbCg3PMx6ySOfmeQ9SzEk5+mO4T71aCuPooooEfiL/wcWfAb/hX/wC1zpPja1hmSz8d6UjSyKuEF5aYibPr+6a3P1zX59yKBbN2Xac+wr+gT/gsj+xRqn7an7McVn4XtY7zxd4W1BNR0+IuFa4UqY5YcsQASjbwe5jVf4sj8gbX/glD+0XdTLEvwl8TK0j+WvmCNFyTgZbftUe5PApcqHc+tP8Ag28/Z3/4SH4q+NviZfW8Zj8P2qaHpzsuT58zGSfBzwURUHQ5E3bv+wXl187/APBL/wDZFuv2LP2Q9C8I6ssP/CSXE02p6y0TBk+0yt90EEg7Ilij3A4Pl54zivolPu07CGv+6jY9u/tX5Af8HJfwD/sb4k+A/iZa28aJrVq+hag4X/ltC3mxEnPJKM69OkX5fsERkV87/wDBUD9ke6/bM/ZB8ReE9JWBvEUMkOpaOZm2p9ohbJXPQF42lQE8AupPAoYH85efMB9SSQffPFffv/Bu78C/+Fi/thap4wurfda+BNKeSJyuQLq63Qx49/LW5/IeteDXH/BKL9oi2aSNvhR4qdkbY3krE2ODnDb9p6cEEqeORX68/wDBGj9ijWf2M/2ZpofFVqll4v8AFWoSalqNusgka0jACQwO6khnVVLnHQyEdiTnrc06H12sWD/WpAMCiitDMKKKKACiiigAooooAKKKKACiiigAooooAKKKKACiiigAooooAKKKKACiiigAooooAKKKKACiiigAooooAKKKKACiiigAooooAKKKKACiiigAooooAKKKKACiiigAooooAKKKKACiiigAooooAKKKKACiiigAooooAKKKKACiiigAooooAKKKKACiiigAIyKY0O4df0p9FADFi2r1p4GBRRQAUUUUAFFFFACOu9cUgjwoHp+tOooAaibaJE8xCtOooAgNnz979Mfy/rmljtfLkDZ56fUen588VNRQAUjDcMUtFAET2+5dvT0NEMDRH724emOlS0UAFFFFABQRkUUUARmLmnLHg06iiwBRRRQAjDcKja23n7zL06fj/j2qWigBqJt/u/gMU6iigAoIyKKKAGmIMMH1zQsaqOlOopWAa0W4daatvtP3j/n/AD9akopcoDfLoCYNOoqgCiiigBjR5NMktd5znbu69f8AHFTUUARR23l/xf5/z+FSgYFFFABSMu4UtFAEfk8fepqWmyffu/IYz657Ht2zxU1FFguFFFFABRRRQAUUUUAFFFFABRRRQAUUUUAFFFFABRRRQAUUUUAFFFFABRRRQAUUUUAFFFFABRRRQAUUUUAFFFFABRRRQAUUUUAFFFFABRRRQAUUUUAFFFFABRRRQAUUUUAFFFFABRRRQAUUUUAFFFFABRRRQAUUUUAFFFFABRRRQAUUUUAFFFFABRRRQAUUUUAFFFFABRRRQAUUUUAFFFFABRRRQAUUUUAFFFFABRRRQAUUUUAFFFFABRRRQAUUUUAFFFFABRRRQAUUUUAFFFFABRRRQAUUUUAFFFFABRRRQAUUUUAFFFFABRRRQAUUUUAFFFFABRRRQAUUUUAFFFFABRRRQAUUUUAFFFFABRRRQAUUUUAFFFFABRRRQAUUUUAFFFFABRRRQAUUUUAFFFFABRRRQAUUUUAFFFFABRRRQAUUUUAFFFFABRRRQAUUUUAFFFFABRRRQAUUUUAFFFFABRRRQAUUUUAFFFFABRRRQAUUUUAFFFFABRRRQAUUUUAFFFFABRRRQAUUUUAFFFFABRRRQAUUUUAFFFFABRRRQAUUUUAFFFFABRRRQAUUUUAFFFFABRRRQAUUUUAFFFFABRRRQAUUUUAFFFFABRRRQAUUUUAFFFFABRRRQAUUUUAFFFFABRRRQAUUUUAFFFFABRRRQAUUUUAFFFFABRRRQAUUUUAFFFFABRRRQAUUUUAFFFFABRRRQAUUUUAFFFFABRRRQAUUUUAFFFFABRRRQAUUUUAFFFFABRRRQAUUUUAFFFFABRRRQAUUUUAFFFFABRRRQAUUUUAFFFFABRRRQAUUUUAFFFFABRRRQAUUUUAFFFFABRRRQAUUUUAFFFFABRRRQAUUUUAFFFFABRRRQAUUUUAFFFFABRRRQAUUUUAFFFFABRRRQAUUUUAFFFFABRRRQAUUUUAFFFFABRRRQAUUUUAFFFFABRRRQAUUUUAFFFFABRRRQAUUUUAFFFFABRRRQAUUUUAFFFFABRRRQAUUUUAFFFFABRRRQAUUUUAFFFFABRRRQAUUUUAFFFFABRRRQAUUUUAFFFFABRRRQAUUUUAFFFFABRRRQAUUUUAFFFFABRRRQAUUUUAFFFFABRRRQAUUUUAFFFFABRRRQAUUUUAFFFFABRRRQAUUUUAFFFFABRRRQAUUUUAFFFFABRRRQAUUUUAFFFFABRRRQAUUUUAFFFFABRRRQAUUUUAFFFFABRRRQAUUUUAFFFFABRRRQAUUUUAFFFFABRRRQAUUUUAFFFFABRRRQAUUUUAFFFFABRRRQAUUUUAFFFFABRRRQAUUUUAFFFFABRRRQAUUUUAFFFFABRRRQAUUUUAFFFFABRRRQAUUUUAFFFFABRRRQAUUUUAFFFFAH//Z;imageBorder=#121212;" vertex="1" parent="P7BREsWE-NC01rkeyd-l-10">
          <mxGeometry x="441" y="510" width="110" height="110" as="geometry" />
        </mxCell>
        <mxCell id="P7BREsWE-NC01rkeyd-l-15" value="" style="shape=image;verticalLabelPosition=bottom;labelBackgroundColor=default;verticalAlign=top;aspect=fixed;imageAspect=0;image=https://cdn-icons-png.flaticon.com/512/2282/2282278.png;imageBackground=none;" vertex="1" parent="P7BREsWE-NC01rkeyd-l-10">
          <mxGeometry x="790" y="292.5" width="117.5" height="117.5" as="geometry" />
        </mxCell>
      </root>
    </mxGraphModel>
  </diagram>
</mxfile>
